STARTFONT 2.1
COMMENT
COMMENT Converted from OpenType font "NotoSansMono-Regular.ttf" by "otf2bdf 3.0".
COMMENT
FONT -FreeType-Noto Sans Mono-Medium-R-Normal--30-300-72-72-P-144-ISO10646-1
SIZE 30 72 72
FONTBOUNDINGBOX 72 50 -18 -12
STARTPROPERTIES 19
FOUNDRY "FreeType"
FAMILY_NAME "Noto Sans Mono"
WEIGHT_NAME "Medium"
SLANT "R"
SETWIDTH_NAME "Normal"
ADD_STYLE_NAME ""
PIXEL_SIZE 30
POINT_SIZE 300
RESOLUTION_X 72
RESOLUTION_Y 72
SPACING "P"
AVERAGE_WIDTH 144
CHARSET_REGISTRY "ISO10646"
CHARSET_ENCODING "1"
FONT_ASCENT 32
FONT_DESCENT 8
COPYRIGHT "Copyright 2015 Google LLC. All Rights Reserved."
_OTF_FONTFILE "NotoSansMono-Regular.ttf"
_OTF_PSNAME "NotoSansMono-Regular"
ENDPROPERTIES
CHARS 3363
STARTCHAR 0000
ENCODING 0
SWIDTH 0 0
DWIDTH 0 0
BBX 0 0 0 0
BITMAP
ENDCHAR
STARTCHAR 000D
ENCODING 13
SWIDTH 600 0
DWIDTH 18 0
BBX 0 0 0 0
BITMAP
ENDCHAR
STARTCHAR 0020
ENCODING 32
SWIDTH 600 0
DWIDTH 18 0
BBX 0 0 0 0
BITMAP
ENDCHAR
STARTCHAR 0021
ENCODING 33
SWIDTH 600 0
DWIDTH 18 0
BBX 4 22 7 0
BITMAP
F0
F0
F0
F0
70
70
60
60
60
60
60
60
60
60
60
60
00
00
60
F0
F0
60
ENDCHAR
STARTCHAR 0022
ENCODING 34
SWIDTH 600 0
DWIDTH 18 0
BBX 8 8 5 14
BITMAP
E7
E7
C3
C3
C3
C3
C3
C3
ENDCHAR
STARTCHAR 0023
ENCODING 35
SWIDTH 600 0
DWIDTH 18 0
BBX 16 22 1 0
BITMAP
030C
030C
031C
0718
0618
0618
7FFF
7FFF
0E30
0C30
0C30
0C30
0C70
FFFE
FFFE
1860
1860
1860
18E0
38C0
30C0
30C0
ENDCHAR
STARTCHAR 0024
ENCODING 36
SWIDTH 600 0
DWIDTH 18 0
BBX 14 25 2 -1
BITMAP
0300
0300
0FC0
3FF8
7FF0
7310
E300
E300
E300
7300
7B00
3F00
0FE0
03F0
0378
0318
031C
031C
0318
6378
7FF0
7FC0
0300
0300
0300
ENDCHAR
STARTCHAR 0025
ENCODING 37
SWIDTH 600 0
DWIDTH 18 0
BBX 18 22 0 0
BITMAP
3C0600
7F0E00
E70C00
C31C00
C39800
C3B800
C33000
E73000
7F6000
3C6000
00C000
00CF00
019F80
01B980
0331C0
0370C0
0670C0
0670C0
0E31C0
0C3980
1C1F80
380F00
ENDCHAR
STARTCHAR 0026
ENCODING 38
SWIDTH 600 0
DWIDTH 18 0
BBX 16 22 1 0
BITMAP
0F80
1FC0
3DE0
38E0
3060
38E0
38C0
19C0
1F80
0F00
1F00
3F06
7B86
71CE
E0EC
E0FC
E07C
E038
607C
79FE
3FCE
1F07
ENDCHAR
STARTCHAR 0027
ENCODING 39
SWIDTH 600 0
DWIDTH 18 0
BBX 2 8 8 14
BITMAP
C0
C0
C0
C0
C0
C0
C0
C0
ENDCHAR
STARTCHAR 0028
ENCODING 40
SWIDTH 600 0
DWIDTH 18 0
BBX 7 27 6 -5
BITMAP
0E
1C
18
38
30
70
70
60
E0
E0
E0
E0
E0
E0
E0
E0
E0
E0
E0
60
70
70
30
38
18
1C
0E
ENDCHAR
STARTCHAR 0029
ENCODING 41
SWIDTH 600 0
DWIDTH 18 0
BBX 7 27 5 -5
BITMAP
E0
70
30
38
18
1C
1C
0C
0E
0E
0E
0E
0E
0E
0E
0E
0E
0E
0C
0C
1C
1C
18
38
30
70
E0
ENDCHAR
STARTCHAR 002A
ENCODING 42
SWIDTH 600 0
DWIDTH 18 0
BBX 12 13 3 11
BITMAP
0600
0600
0600
0600
8630
FFF0
FFF0
0F00
0F80
1980
39C0
70E0
1080
ENDCHAR
STARTCHAR 002B
ENCODING 43
SWIDTH 600 0
DWIDTH 18 0
BBX 14 14 2 4
BITMAP
0300
0300
0300
0300
0300
0300
FFFC
FFFC
0300
0300
0300
0300
0300
0300
ENDCHAR
STARTCHAR 002C
ENCODING 44
SWIDTH 600 0
DWIDTH 18 0
BBX 5 8 6 -4
BITMAP
38
38
78
70
70
70
60
E0
ENDCHAR
STARTCHAR 002D
ENCODING 45
SWIDTH 600 0
DWIDTH 18 0
BBX 10 2 4 7
BITMAP
FFC0
FFC0
ENDCHAR
STARTCHAR 002E
ENCODING 46
SWIDTH 600 0
DWIDTH 18 0
BBX 4 4 7 0
BITMAP
60
F0
F0
60
ENDCHAR
STARTCHAR 002F
ENCODING 47
SWIDTH 600 0
DWIDTH 18 0
BBX 10 22 4 0
BITMAP
00C0
01C0
0180
0380
0380
0300
0700
0700
0600
0E00
0C00
0C00
1C00
1800
3800
3800
3000
7000
7000
6000
E000
C000
ENDCHAR
STARTCHAR 0030
ENCODING 48
SWIDTH 600 0
DWIDTH 18 0
BBX 14 22 2 0
BITMAP
0FC0
1FE0
3CF0
7038
6078
E07C
E0FC
E1CC
C1CC
C38C
C30C
C70C
C60C
CE0C
FC1C
FC1C
F81C
7018
7038
3CF0
1FE0
0FC0
ENDCHAR
STARTCHAR 0031
ENCODING 49
SWIDTH 600 0
DWIDTH 18 0
BBX 13 22 3 0
BITMAP
0700
1F00
7F00
F300
6300
0300
0700
0700
0700
0700
0700
0700
0700
0700
0700
0700
0700
0700
0700
0700
7FF8
7FF8
ENDCHAR
STARTCHAR 0032
ENCODING 50
SWIDTH 600 0
DWIDTH 18 0
BBX 14 22 2 0
BITMAP
0FC0
3FE0
F8F0
6038
4038
0038
0038
0038
0038
0038
0070
00E0
01E0
03C0
0780
0F00
1E00
3C00
7800
F000
FFFC
FFFC
ENDCHAR
STARTCHAR 0033
ENCODING 51
SWIDTH 600 0
DWIDTH 18 0
BBX 14 22 2 0
BITMAP
0FC0
7FF0
F8F0
4038
0038
0038
0038
0038
00F0
1FC0
1FC0
00F0
0038
0018
001C
001C
001C
0018
8038
F0F0
FFE0
3F80
ENDCHAR
STARTCHAR 0034
ENCODING 52
SWIDTH 600 0
DWIDTH 18 0
BBX 16 22 1 0
BITMAP
0070
00F0
00F0
01F0
01B0
03B0
0730
0630
0E30
0C30
1C30
3830
3030
7030
6030
FFFF
FFFF
0030
0030
0030
0030
0030
ENDCHAR
STARTCHAR 0035
ENCODING 53
SWIDTH 600 0
DWIDTH 18 0
BBX 14 22 2 0
BITMAP
3FF0
3FF0
7000
7000
7000
7000
7000
7000
7FC0
7FE0
31F0
0078
0038
0018
001C
001C
0018
0038
8078
F1F0
FFE0
3F80
ENDCHAR
STARTCHAR 0036
ENCODING 54
SWIDTH 600 0
DWIDTH 18 0
BBX 14 22 2 0
BITMAP
03F0
0FF0
1F08
3800
7000
7000
6000
E000
E7E0
FFF0
D838
F01C
E01C
E00C
C00C
E00C
E01C
601C
7038
3C78
1FF0
0FC0
ENDCHAR
STARTCHAR 0037
ENCODING 55
SWIDTH 600 0
DWIDTH 18 0
BBX 14 22 2 0
BITMAP
FFFC
FFFC
001C
001C
0018
0038
0030
0070
0070
00E0
00E0
00C0
01C0
01C0
0380
0380
0700
0700
0700
0E00
0E00
1C00
ENDCHAR
STARTCHAR 0038
ENCODING 56
SWIDTH 600 0
DWIDTH 18 0
BBX 14 22 2 0
BITMAP
0FC0
3FF0
7878
7038
6018
6018
7038
7038
3870
1FE0
0F80
1FE0
7870
7038
E01C
E01C
E01C
E01C
E038
7878
3FF0
0FC0
ENDCHAR
STARTCHAR 0039
ENCODING 57
SWIDTH 600 0
DWIDTH 18 0
BBX 14 22 2 0
BITMAP
0FC0
3FE0
78F0
E038
E018
C01C
C01C
C01C
E01C
E01C
707C
7FFC
1F9C
001C
001C
0018
0038
0038
0070
23E0
3FC0
3F00
ENDCHAR
STARTCHAR 003A
ENCODING 58
SWIDTH 600 0
DWIDTH 18 0
BBX 4 17 7 0
BITMAP
60
F0
F0
60
00
00
00
00
00
00
00
00
00
60
F0
F0
60
ENDCHAR
STARTCHAR 003B
ENCODING 59
SWIDTH 600 0
DWIDTH 18 0
BBX 6 21 6 -4
BITMAP
38
3C
3C
38
00
00
00
00
00
00
00
00
00
38
38
78
70
70
70
60
E0
ENDCHAR
STARTCHAR 003C
ENCODING 60
SWIDTH 600 0
DWIDTH 18 0
BBX 12 15 3 3
BITMAP
0010
0070
01F0
03C0
0F00
3C00
F000
E000
F800
3E00
0F80
03E0
00F0
0030
0010
ENDCHAR
STARTCHAR 003D
ENCODING 61
SWIDTH 600 0
DWIDTH 18 0
BBX 14 8 2 7
BITMAP
FFFC
FFFC
0000
0000
0000
0000
FFFC
FFFC
ENDCHAR
STARTCHAR 003E
ENCODING 62
SWIDTH 600 0
DWIDTH 18 0
BBX 12 15 3 3
BITMAP
8000
E000
F800
3C00
0F00
03C0
00F0
0070
01F0
07C0
1F00
7C00
F000
C000
8000
ENDCHAR
STARTCHAR 003F
ENCODING 63
SWIDTH 600 0
DWIDTH 18 0
BBX 12 22 3 0
BITMAP
3F80
FFE0
F0F0
8070
0030
0030
0030
0070
0070
00E0
03C0
0780
0E00
0E00
0C00
0C00
0000
0000
0E00
1E00
1E00
0E00
ENDCHAR
STARTCHAR 0040
ENCODING 64
SWIDTH 600 0
DWIDTH 18 0
BBX 18 25 0 -3
BITMAP
01F000
07FC00
0F1E00
1C0700
380300
300380
70F980
63F980
639980
671980
6618C0
E618C0
EE19C0
EE1980
E61980
663980
673980
67EF00
63C700
700000
300000
380000
1E0600
0FFE00
03FC00
ENDCHAR
STARTCHAR 0041
ENCODING 65
SWIDTH 600 0
DWIDTH 18 0
BBX 16 22 1 0
BITMAP
03C0
03C0
03C0
07E0
07E0
0660
0E60
0E70
0C30
0C30
1C38
1818
1818
3FFC
3FFC
300C
700E
700E
6006
E007
E007
C007
ENDCHAR
STARTCHAR 0042
ENCODING 66
SWIDTH 600 0
DWIDTH 18 0
BBX 13 22 3 0
BITMAP
FF80
FFE0
C0F0
C078
C038
C038
C038
C030
C070
FFC0
FFC0
C0F0
C038
C038
C018
C018
C038
C038
C038
C0F0
FFE0
FFC0
ENDCHAR
STARTCHAR 0043
ENCODING 67
SWIDTH 600 0
DWIDTH 18 0
BBX 15 22 2 0
BITMAP
03F8
0FFE
1E1C
3804
7000
7000
6000
E000
E000
E000
E000
E000
E000
E000
E000
6000
7000
7000
3800
1E1C
0FFC
03F8
ENDCHAR
STARTCHAR 0044
ENCODING 68
SWIDTH 600 0
DWIDTH 18 0
BBX 15 22 2 0
BITMAP
FF80
FFE0
E1F0
E078
E038
E01C
E01C
E00C
E00E
E00E
E00E
E00E
E00E
E00C
E01C
E01C
E01C
E038
E078
E1F0
FFC0
FF00
ENDCHAR
STARTCHAR 0045
ENCODING 69
SWIDTH 600 0
DWIDTH 18 0
BBX 12 22 3 0
BITMAP
FFF0
FFF0
E000
E000
E000
E000
E000
E000
E000
FFF0
FFF0
E000
E000
E000
E000
E000
E000
E000
E000
E000
FFF0
FFF0
ENDCHAR
STARTCHAR 0046
ENCODING 70
SWIDTH 600 0
DWIDTH 18 0
BBX 12 22 3 0
BITMAP
FFF0
FFF0
E000
E000
E000
E000
E000
E000
E000
E000
FFF0
FFF0
E000
E000
E000
E000
E000
E000
E000
E000
E000
E000
ENDCHAR
STARTCHAR 0047
ENCODING 71
SWIDTH 600 0
DWIDTH 18 0
BBX 15 22 1 0
BITMAP
03F8
0FFE
1F1C
3C00
3800
7000
7000
6000
6000
E000
E0FE
E0FE
E00E
E00E
600E
700E
700E
780E
3C0E
1F1E
0FFE
03F8
ENDCHAR
STARTCHAR 0048
ENCODING 72
SWIDTH 600 0
DWIDTH 18 0
BBX 14 22 2 0
BITMAP
E01C
E01C
E01C
E01C
E01C
E01C
E01C
E01C
E01C
FFFC
FFFC
E01C
E01C
E01C
E01C
E01C
E01C
E01C
E01C
E01C
E01C
E01C
ENDCHAR
STARTCHAR 0049
ENCODING 73
SWIDTH 600 0
DWIDTH 18 0
BBX 12 22 3 0
BITMAP
FFF0
FFF0
0600
0600
0600
0600
0600
0600
0600
0600
0600
0600
0600
0600
0600
0600
0600
0600
0600
0600
FFF0
FFF0
ENDCHAR
STARTCHAR 004A
ENCODING 74
SWIDTH 600 0
DWIDTH 18 0
BBX 11 22 3 0
BITMAP
00E0
00E0
00E0
00E0
00E0
00E0
00E0
00E0
00E0
00E0
00E0
00E0
00E0
00E0
00E0
00E0
00E0
00E0
01C0
E3C0
FF80
7E00
ENDCHAR
STARTCHAR 004B
ENCODING 75
SWIDTH 600 0
DWIDTH 18 0
BBX 15 22 2 0
BITMAP
E01C
E038
E070
E070
E0E0
E1C0
E3C0
E380
E700
EE00
EE00
FF00
FB80
F380
E1C0
E1C0
E0E0
E070
E070
E038
E03C
E01E
ENDCHAR
STARTCHAR 004C
ENCODING 76
SWIDTH 600 0
DWIDTH 18 0
BBX 12 22 3 0
BITMAP
E000
E000
E000
E000
E000
E000
E000
E000
E000
E000
E000
E000
E000
E000
E000
E000
E000
E000
E000
FFF0
FFF0
FFF0
ENDCHAR
STARTCHAR 004D
ENCODING 77
SWIDTH 600 0
DWIDTH 18 0
BBX 16 22 1 0
BITMAP
F81F
F81F
F81F
F81F
FC3F
EC37
EC37
EC37
EE77
E667
E667
E7E7
E3C7
E3C7
E3C7
E3C7
E187
E007
E007
E007
E007
E007
ENDCHAR
STARTCHAR 004E
ENCODING 78
SWIDTH 600 0
DWIDTH 18 0
BBX 14 22 2 0
BITMAP
F01C
F01C
F81C
D81C
DC1C
EC1C
EC1C
EE1C
E61C
E71C
E31C
E39C
E19C
E19C
E1DC
E0DC
E0FC
E07C
E07C
E03C
E03C
E03C
ENDCHAR
STARTCHAR 004F
ENCODING 79
SWIDTH 600 0
DWIDTH 18 0
BBX 16 22 1 0
BITMAP
07E0
1FF8
1E78
381C
700E
700E
700E
6006
E007
E007
E007
E007
E007
E007
6006
700E
700E
700E
381C
1E78
1FF0
07E0
ENDCHAR
STARTCHAR 0050
ENCODING 80
SWIDTH 600 0
DWIDTH 18 0
BBX 13 22 3 0
BITMAP
FFC0
FFE0
E0F0
E038
E038
E018
E018
E038
E038
E038
E0F0
FFE0
FFC0
E000
E000
E000
E000
E000
E000
E000
E000
E000
ENDCHAR
STARTCHAR 0051
ENCODING 81
SWIDTH 600 0
DWIDTH 18 0
BBX 16 27 1 -5
BITMAP
07E0
1FF0
1E78
381C
700E
700E
700E
6006
E007
E007
E007
E007
E007
E007
6006
700E
700E
700E
381C
1E78
1FF8
07F0
0038
0038
001C
001C
000E
ENDCHAR
STARTCHAR 0052
ENCODING 82
SWIDTH 600 0
DWIDTH 18 0
BBX 14 22 3 0
BITMAP
FF00
FFC0
E1E0
E070
E070
E030
E030
E070
E070
E070
E1E0
FFC0
FF00
E380
E1C0
E1C0
E0E0
E0E0
E070
E038
E038
E01C
ENDCHAR
STARTCHAR 0053
ENCODING 83
SWIDTH 600 0
DWIDTH 18 0
BBX 13 22 3 0
BITMAP
0FE0
3FF0
7870
E000
E000
E000
E000
E000
7800
7E00
1F80
07E0
01F0
0070
0038
0038
0038
0038
8070
F1F0
FFE0
7F80
ENDCHAR
STARTCHAR 0054
ENCODING 84
SWIDTH 600 0
DWIDTH 18 0
BBX 16 22 1 0
BITMAP
FFFF
FFFF
0180
0180
0180
0180
0180
0180
0180
0180
0180
0180
0180
0180
0180
0180
0180
0180
0180
0180
0180
0180
ENDCHAR
STARTCHAR 0055
ENCODING 85
SWIDTH 600 0
DWIDTH 18 0
BBX 14 22 2 0
BITMAP
E01C
E01C
E01C
E01C
E01C
E01C
E01C
E01C
E01C
E01C
E01C
E01C
E01C
E01C
E01C
E01C
E01C
6018
7038
7878
3FF0
0FC0
ENDCHAR
STARTCHAR 0056
ENCODING 86
SWIDTH 600 0
DWIDTH 18 0
BBX 16 22 1 0
BITMAP
E007
E007
6006
700E
700E
700E
300C
381C
381C
1818
1C38
1C38
0C30
0E30
0E70
0660
0660
0760
03E0
03C0
03C0
03C0
ENDCHAR
STARTCHAR 0057
ENCODING 87
SWIDTH 600 0
DWIDTH 18 0
BBX 16 22 1 0
BITMAP
C003
C003
C003
E007
E007
E187
E3C7
63C7
63C6
63C6
6366
6666
6666
6666
7666
7C36
3C3E
3C3E
3C3C
3C1C
381C
381C
ENDCHAR
STARTCHAR 0058
ENCODING 88
SWIDTH 600 0
DWIDTH 18 0
BBX 16 22 1 0
BITMAP
F00F
700E
381C
1818
1C38
0C30
0E70
0660
07E0
03C0
0180
03C0
03C0
07E0
0E70
0E70
1C38
1818
381C
300C
700E
E007
ENDCHAR
STARTCHAR 0059
ENCODING 89
SWIDTH 600 0
DWIDTH 18 0
BBX 16 22 1 0
BITMAP
E007
700E
700E
381C
381C
1818
1C38
0C30
0E70
0660
07E0
03C0
03C0
0180
0180
0180
0180
0180
0180
0180
0180
0180
ENDCHAR
STARTCHAR 005A
ENCODING 90
SWIDTH 600 0
DWIDTH 18 0
BBX 12 22 3 0
BITMAP
FFF0
FFF0
0070
0060
00E0
00C0
01C0
0180
0380
0700
0700
0E00
0E00
1C00
1C00
3800
3800
7000
6000
E000
FFF0
FFF0
ENDCHAR
STARTCHAR 005B
ENCODING 91
SWIDTH 600 0
DWIDTH 18 0
BBX 7 27 7 -5
BITMAP
FE
FE
E0
E0
E0
E0
E0
E0
E0
E0
E0
E0
E0
E0
E0
E0
E0
E0
E0
E0
E0
E0
E0
E0
E0
FE
FE
ENDCHAR
STARTCHAR 005C
ENCODING 92
SWIDTH 600 0
DWIDTH 18 0
BBX 10 22 4 0
BITMAP
C000
E000
6000
7000
7000
3000
3800
3800
1800
1C00
0C00
0C00
0E00
0600
0700
0700
0300
0380
0380
0180
01C0
00C0
ENDCHAR
STARTCHAR 005D
ENCODING 93
SWIDTH 600 0
DWIDTH 18 0
BBX 7 27 4 -5
BITMAP
FE
FE
0E
0E
0E
0E
0E
0E
0E
0E
0E
0E
0E
0E
0E
0E
0E
0E
0E
0E
0E
0E
0E
0E
0E
FE
FE
ENDCHAR
STARTCHAR 005E
ENCODING 94
SWIDTH 600 0
DWIDTH 18 0
BBX 16 14 1 8
BITMAP
0180
0380
03C0
06C0
06E0
0E60
0C70
1C30
1838
1818
301C
300C
700E
E007
ENDCHAR
STARTCHAR 005F
ENCODING 95
SWIDTH 600 0
DWIDTH 18 0
BBX 18 2 0 -5
BITMAP
FFFFC0
FFFFC0
ENDCHAR
STARTCHAR 0060
ENCODING 96
SWIDTH 600 0
DWIDTH 18 0
BBX 6 5 6 19
BITMAP
E0
70
70
38
1C
ENDCHAR
STARTCHAR 0061
ENCODING 97
SWIDTH 600 0
DWIDTH 18 0
BBX 13 17 2 0
BITMAP
0FC0
7FF0
3878
2038
0018
0018
0018
1FF8
7FF8
7018
E018
E018
E038
E038
71F8
7FD8
1F18
ENDCHAR
STARTCHAR 0062
ENCODING 98
SWIDTH 600 0
DWIDTH 18 0
BBX 14 24 2 0
BITMAP
E000
E000
E000
E000
E000
E000
E000
E7C0
EFF0
FCF8
F038
F01C
E01C
E01C
E00C
E00C
E00C
E01C
E01C
F01C
F038
FCF8
EFF0
E7C0
ENDCHAR
STARTCHAR 0063
ENCODING 99
SWIDTH 600 0
DWIDTH 18 0
BBX 12 17 3 0
BITMAP
0FE0
3FF0
7C70
7000
E000
E000
C000
C000
C000
C000
C000
E000
E000
F000
7C70
3FF0
0FE0
ENDCHAR
STARTCHAR 0064
ENCODING 100
SWIDTH 600 0
DWIDTH 18 0
BBX 14 24 2 0
BITMAP
001C
001C
001C
001C
001C
001C
001C
0F9C
3FDC
7CFC
703C
E03C
E01C
E01C
C01C
C01C
C01C
E01C
E01C
E03C
703C
7CFC
3FDC
0F9C
ENDCHAR
STARTCHAR 0065
ENCODING 101
SWIDTH 600 0
DWIDTH 18 0
BBX 14 17 2 0
BITMAP
07C0
1FF0
3C78
7038
E01C
E01C
E01C
FFFC
FFFC
E000
E000
E000
E000
7004
3C38
1FF8
07F0
ENDCHAR
STARTCHAR 0066
ENCODING 102
SWIDTH 600 0
DWIDTH 18 0
BBX 15 24 2 0
BITMAP
00FE
03FE
03C6
0700
0700
0700
0700
FFFC
FFFC
0700
0700
0700
0700
0700
0700
0700
0700
0700
0700
0700
0700
0700
0700
0700
ENDCHAR
STARTCHAR 0067
ENCODING 103
SWIDTH 600 0
DWIDTH 18 0
BBX 14 24 2 -7
BITMAP
0F9C
3FDC
7CFC
703C
E03C
E01C
E01C
C01C
C01C
C01C
E01C
E01C
E01C
703C
7CFC
3FDC
0F9C
001C
0018
0018
8038
F0F0
FFF0
3FC0
ENDCHAR
STARTCHAR 0068
ENCODING 104
SWIDTH 600 0
DWIDTH 18 0
BBX 14 24 2 0
BITMAP
E000
E000
E000
E000
E000
E000
E000
E3E0
EFF0
FC78
F838
F01C
E01C
E01C
E01C
E01C
E01C
E01C
E01C
E01C
E01C
E01C
E01C
E01C
ENDCHAR
STARTCHAR 0069
ENCODING 105
SWIDTH 600 0
DWIDTH 18 0
BBX 14 24 2 0
BITMAP
0380
0780
0780
0380
0000
0000
0000
7F80
7F80
0380
0380
0380
0380
0380
0380
0380
0380
0380
0380
0380
0380
0380
FFFC
FFFC
ENDCHAR
STARTCHAR 006A
ENCODING 106
SWIDTH 600 0
DWIDTH 18 0
BBX 10 31 2 -7
BITMAP
01C0
03C0
03C0
01C0
0000
0000
0000
3FC0
3FC0
01C0
01C0
01C0
01C0
01C0
01C0
01C0
01C0
01C0
01C0
01C0
01C0
01C0
01C0
01C0
01C0
01C0
01C0
03C0
8780
FF00
FE00
ENDCHAR
STARTCHAR 006B
ENCODING 107
SWIDTH 600 0
DWIDTH 18 0
BBX 14 24 3 0
BITMAP
E000
E000
E000
E000
E000
E000
E000
E03C
E070
E0F0
E1E0
E1C0
E380
E700
EE00
FF00
FB80
F3C0
E1C0
E0E0
E070
E070
E038
E01C
ENDCHAR
STARTCHAR 006C
ENCODING 108
SWIDTH 600 0
DWIDTH 18 0
BBX 14 24 2 0
BITMAP
7F80
7F80
0380
0380
0380
0380
0380
0380
0380
0380
0380
0380
0380
0380
0380
0380
0380
0380
0380
0380
0380
0380
FFFC
FFFC
ENDCHAR
STARTCHAR 006D
ENCODING 109
SWIDTH 600 0
DWIDTH 18 0
BBX 16 17 1 0
BITMAP
CF3C
FF7E
F3EE
F3C6
E1C6
E187
E187
E187
E187
E187
E187
E187
E187
E187
E187
E187
E187
ENDCHAR
STARTCHAR 006E
ENCODING 110
SWIDTH 600 0
DWIDTH 18 0
BBX 14 17 2 0
BITMAP
E3E0
EFF0
FC78
F038
F01C
E01C
E01C
E01C
E01C
E01C
E01C
E01C
E01C
E01C
E01C
E01C
E01C
ENDCHAR
STARTCHAR 006F
ENCODING 111
SWIDTH 600 0
DWIDTH 18 0
BBX 14 17 2 0
BITMAP
0FC0
3FF0
7CF8
7038
E01C
E01C
C01C
C00C
C00C
C00C
C01C
E01C
E01C
7038
7CF8
3FF0
0FC0
ENDCHAR
STARTCHAR 0070
ENCODING 112
SWIDTH 600 0
DWIDTH 18 0
BBX 14 24 2 -7
BITMAP
E7C0
EFF0
FCF8
F038
F01C
E01C
E01C
E00C
E00C
E00C
E01C
E01C
F01C
F038
FCF8
EFF0
E7C0
E000
E000
E000
E000
E000
E000
E000
ENDCHAR
STARTCHAR 0071
ENCODING 113
SWIDTH 600 0
DWIDTH 18 0
BBX 14 24 2 -7
BITMAP
0F9C
3FDC
7CFC
703C
E03C
E01C
E01C
C01C
C01C
E01C
E01C
E01C
E03C
703C
7CFC
3FDC
0F9C
001C
001C
001C
001C
001C
001C
001C
ENDCHAR
STARTCHAR 0072
ENCODING 114
SWIDTH 600 0
DWIDTH 18 0
BBX 15 17 2 0
BITMAP
FE3E
FE7E
1EE6
0780
0700
0700
0700
0700
0600
0600
0600
0600
0600
0600
0600
FFF0
FFF0
ENDCHAR
STARTCHAR 0073
ENCODING 115
SWIDTH 600 0
DWIDTH 18 0
BBX 12 17 3 0
BITMAP
1FC0
3FF0
7860
E000
E000
7000
7800
3E00
0F80
03E0
00F0
0070
0070
8070
F1E0
FFE0
3F80
ENDCHAR
STARTCHAR 0074
ENCODING 116
SWIDTH 600 0
DWIDTH 18 0
BBX 13 22 2 0
BITMAP
0600
0E00
0E00
0E00
0E00
FFF8
FFF8
0E00
0E00
0E00
0E00
0E00
0E00
0E00
0E00
0E00
0E00
0E00
0E00
0788
07F8
01F8
ENDCHAR
STARTCHAR 0075
ENCODING 117
SWIDTH 600 0
DWIDTH 18 0
BBX 14 17 2 0
BITMAP
E01C
E01C
E01C
E01C
E01C
E01C
E01C
E01C
E01C
E01C
E01C
E01C
E03C
703C
78FC
3FDC
1F9C
ENDCHAR
STARTCHAR 0076
ENCODING 118
SWIDTH 600 0
DWIDTH 18 0
BBX 16 17 1 0
BITMAP
E007
700E
700E
300C
381C
381C
1818
1C38
1C38
0C30
0E70
0E70
0660
07E0
07E0
03C0
03C0
ENDCHAR
STARTCHAR 0077
ENCODING 119
SWIDTH 600 0
DWIDTH 18 0
BBX 18 17 0 0
BITMAP
E001C0
600180
600180
61E180
71E380
71E380
71E380
33F300
333300
333300
333300
3F3F00
3E1F00
1E1E00
1E1E00
1E1E00
1C0E00
ENDCHAR
STARTCHAR 0078
ENCODING 120
SWIDTH 600 0
DWIDTH 18 0
BBX 16 17 1 0
BITMAP
700E
381C
381C
1C38
0E70
0E70
07E0
03C0
03C0
03C0
07E0
0E70
1C30
1C38
381C
700E
F00F
ENDCHAR
STARTCHAR 0079
ENCODING 121
SWIDTH 600 0
DWIDTH 18 0
BBX 16 24 1 -7
BITMAP
E007
700E
700E
300C
381C
181C
1C18
1C38
0C38
0E30
0670
0760
0760
03E0
03C0
01C0
01C0
0180
0380
0380
0700
0F00
7E00
7C00
ENDCHAR
STARTCHAR 007A
ENCODING 122
SWIDTH 600 0
DWIDTH 18 0
BBX 12 17 3 0
BITMAP
FFF0
FFF0
0070
00E0
00E0
01C0
0380
0700
0700
0E00
1C00
3800
3800
7000
E000
FFF0
FFF0
ENDCHAR
STARTCHAR 007B
ENCODING 123
SWIDTH 600 0
DWIDTH 18 0
BBX 10 27 4 -5
BITMAP
01C0
07C0
0F00
0E00
0E00
0C00
0C00
0C00
0C00
0C00
0C00
1C00
3C00
F000
F800
1C00
0C00
0C00
0C00
0C00
0C00
0C00
0C00
0E00
0F00
07C0
03C0
ENDCHAR
STARTCHAR 007C
ENCODING 124
SWIDTH 600 0
DWIDTH 18 0
BBX 2 31 8 -7
BITMAP
C0
C0
C0
C0
C0
C0
C0
C0
C0
C0
C0
C0
C0
C0
C0
C0
C0
C0
C0
C0
C0
C0
C0
C0
C0
C0
C0
C0
C0
C0
C0
ENDCHAR
STARTCHAR 007D
ENCODING 125
SWIDTH 600 0
DWIDTH 18 0
BBX 10 27 4 -5
BITMAP
F000
F800
3C00
1C00
0C00
0C00
0C00
0C00
0C00
0C00
0C00
0E00
07C0
03C0
0F00
0E00
0C00
0C00
0C00
0C00
0C00
0C00
1C00
1C00
3C00
F800
E000
ENDCHAR
STARTCHAR 007E
ENCODING 126
SWIDTH 600 0
DWIDTH 18 0
BBX 14 6 2 9
BITMAP
3C0C
7E08
6718
4398
C1F0
C0F0
ENDCHAR
STARTCHAR 00A0
ENCODING 160
SWIDTH 600 0
DWIDTH 18 0
BBX 0 0 0 0
BITMAP
ENDCHAR
STARTCHAR 00A1
ENCODING 161
SWIDTH 600 0
DWIDTH 18 0
BBX 4 22 7 -6
BITMAP
60
F0
F0
60
00
00
60
60
60
60
60
60
60
60
60
60
E0
E0
F0
F0
F0
F0
ENDCHAR
STARTCHAR 00A2
ENCODING 162
SWIDTH 600 0
DWIDTH 18 0
BBX 12 22 3 0
BITMAP
0300
0300
0FF0
3FF0
7830
7000
E000
E000
E000
C000
C000
C000
E000
E000
E000
7000
7C30
3FF0
0FE0
0300
0300
0300
ENDCHAR
STARTCHAR 00A3
ENCODING 163
SWIDTH 600 0
DWIDTH 18 0
BBX 13 22 3 0
BITMAP
07E0
0FF0
1E30
1C00
1800
3800
3800
3800
3800
3800
FFC0
FFC0
3800
3800
3800
3800
3800
3800
3000
7000
FFF8
FFF8
ENDCHAR
STARTCHAR 00A4
ENCODING 164
SWIDTH 600 0
DWIDTH 18 0
BBX 14 15 2 3
BITMAP
4008
E79C
7FF8
3CF0
3030
6018
6018
6018
6018
6018
3030
3CF0
7FF8
E79C
4008
ENDCHAR
STARTCHAR 00A5
ENCODING 165
SWIDTH 600 0
DWIDTH 18 0
BBX 16 22 1 0
BITMAP
E007
700E
700E
381C
381C
1C38
1C30
0E70
0E60
07E0
03C0
3FFC
3FFC
0180
0180
0180
3FFC
3FFC
0180
0180
0180
0180
ENDCHAR
STARTCHAR 00A6
ENCODING 166
SWIDTH 600 0
DWIDTH 18 0
BBX 2 31 8 -7
BITMAP
C0
C0
C0
C0
C0
C0
C0
C0
C0
C0
C0
C0
00
00
00
00
00
00
00
C0
C0
C0
C0
C0
C0
C0
C0
C0
C0
C0
C0
ENDCHAR
STARTCHAR 00A7
ENCODING 167
SWIDTH 600 0
DWIDTH 18 0
BBX 12 24 3 0
BITMAP
1FC0
3FE0
78E0
6000
6000
7000
7800
3F00
3FC0
71E0
6060
6070
6070
7060
3CE0
1FC0
03C0
00E0
0070
0070
8070
F1E0
FFC0
3F80
ENDCHAR
STARTCHAR 00A8
ENCODING 168
SWIDTH 600 0
DWIDTH 18 0
BBX 10 4 4 19
BITMAP
E1C0
E1C0
E1C0
E1C0
ENDCHAR
STARTCHAR 00A9
ENCODING 169
SWIDTH 600 0
DWIDTH 18 0
BBX 16 16 1 4
BITMAP
07E0
1FF8
381C
71CE
67E6
4622
CC03
CC03
CC03
CC03
4E02
47E2
63C6
300C
1818
07E0
ENDCHAR
STARTCHAR 00AA
ENCODING 170
SWIDTH 600 0
DWIDTH 18 0
BBX 8 10 5 12
BITMAP
FC
46
03
03
7F
E3
C3
83
C7
FB
ENDCHAR
STARTCHAR 00AB
ENCODING 171
SWIDTH 600 0
DWIDTH 18 0
BBX 12 12 3 2
BITMAP
0C30
1C70
38E0
39C0
71C0
E380
E780
7380
71C0
38E0
1C70
0C30
ENDCHAR
STARTCHAR 00AC
ENCODING 172
SWIDTH 600 0
DWIDTH 18 0
BBX 13 8 2 4
BITMAP
FFF8
FFF8
0018
0018
0018
0018
0018
0018
ENDCHAR
STARTCHAR 00AD
ENCODING 173
SWIDTH 600 0
DWIDTH 18 0
BBX 10 2 4 7
BITMAP
FFC0
FFC0
ENDCHAR
STARTCHAR 00AE
ENCODING 174
SWIDTH 600 0
DWIDTH 18 0
BBX 16 16 1 4
BITMAP
07E0
1FF8
381C
77CE
6666
4622
C623
C663
C7C3
C6C3
4662
4662
6636
300C
1818
07E0
ENDCHAR
STARTCHAR 00AF
ENCODING 175
SWIDTH 600 0
DWIDTH 18 0
BBX 8 2 5 19
BITMAP
FF
FF
ENDCHAR
STARTCHAR 00B0
ENCODING 176
SWIDTH 600 0
DWIDTH 18 0
BBX 10 10 4 13
BITMAP
1E00
3F00
6180
6180
C0C0
C0C0
6180
7380
3F00
1E00
ENDCHAR
STARTCHAR 00B1
ENCODING 177
SWIDTH 600 0
DWIDTH 18 0
BBX 14 18 2 0
BITMAP
0300
0300
0300
0300
0300
0300
FFFC
FFFC
0300
0300
0300
0300
0300
0300
0000
0000
FFFC
FFFC
ENDCHAR
STARTCHAR 00B2
ENCODING 178
SWIDTH 600 0
DWIDTH 18 0
BBX 9 13 5 12
BITMAP
3C00
FF00
C300
0300
0300
0300
0600
0C00
1800
3000
6000
FF80
FF80
ENDCHAR
STARTCHAR 00B3
ENCODING 179
SWIDTH 600 0
DWIDTH 18 0
BBX 8 14 5 12
BITMAP
3C
FE
C7
03
03
07
7E
7E
07
03
03
83
FF
FC
ENDCHAR
STARTCHAR 00B4
ENCODING 180
SWIDTH 600 0
DWIDTH 18 0
BBX 6 5 7 19
BITMAP
1C
3C
38
70
E0
ENDCHAR
STARTCHAR 00B5
ENCODING 181
SWIDTH 600 0
DWIDTH 18 0
BBX 14 24 2 -7
BITMAP
E01C
E01C
E01C
E01C
E01C
E01C
E01C
E01C
E01C
E01C
E01C
E01C
E03C
F03C
F8FC
FFDC
FF9C
E000
E000
E000
E000
E000
E000
E000
ENDCHAR
STARTCHAR 00B6
ENCODING 182
SWIDTH 600 0
DWIDTH 18 0
BBX 15 28 1 -4
BITMAP
0FFE
3FFE
3FC6
7FC6
7FC6
7FC6
7FC6
FFC6
FFC6
7FC6
7FC6
7FC6
7FC6
3FC6
3FC6
0FC6
0046
0046
0046
0046
0046
0046
0046
0046
0046
0046
0046
0046
ENDCHAR
STARTCHAR 00B7
ENCODING 183
SWIDTH 600 0
DWIDTH 18 0
BBX 4 4 7 8
BITMAP
60
F0
F0
60
ENDCHAR
STARTCHAR 00B8
ENCODING 184
SWIDTH 600 0
DWIDTH 18 0
BBX 6 8 6 -7
BITMAP
30
30
70
38
0C
0C
F8
F0
ENDCHAR
STARTCHAR 00B9
ENCODING 185
SWIDTH 600 0
DWIDTH 18 0
BBX 10 13 4 12
BITMAP
0C00
3C00
F400
6C00
0C00
0C00
0C00
0C00
0C00
0C00
0C00
7FC0
7FC0
ENDCHAR
STARTCHAR 00BA
ENCODING 186
SWIDTH 600 0
DWIDTH 18 0
BBX 8 10 5 12
BITMAP
3C
66
C3
C3
C3
83
C3
C3
E7
7E
ENDCHAR
STARTCHAR 00BB
ENCODING 187
SWIDTH 600 0
DWIDTH 18 0
BBX 12 12 3 2
BITMAP
C300
E380
71C0
38E0
1CE0
1E70
1C70
38E0
38C0
71C0
E380
C300
ENDCHAR
STARTCHAR 00BC
ENCODING 188
SWIDTH 600 0
DWIDTH 18 0
BBX 17 22 0 0
BITMAP
380700
780600
F80E00
580C00
181C00
181800
183800
183000
187000
7F6000
7FE000
00C000
01C700
018F00
038F00
031B00
073300
063300
0E7F80
0C7F80
1C0300
380300
ENDCHAR
STARTCHAR 00BD
ENCODING 189
SWIDTH 600 0
DWIDTH 18 0
BBX 17 22 0 0
BITMAP
380700
780600
F80E00
580C00
181C00
181800
183800
183000
187000
7F6000
7FE000
00DF00
01FF80
019180
038180
030180
070300
060600
0E0C00
0C1800
1C3F80
383F80
ENDCHAR
STARTCHAR 00BE
ENCODING 190
SWIDTH 600 0
DWIDTH 18 0
BBX 16 22 1 0
BITMAP
780E
FC0C
8E1C
0E18
7C38
7C30
0E70
0660
8EE0
FCC0
F9C0
0186
038E
031E
071E
0636
0E66
0C66
1CFF
18FF
3806
7006
ENDCHAR
STARTCHAR 00BF
ENCODING 191
SWIDTH 600 0
DWIDTH 18 0
BBX 13 22 2 -6
BITMAP
0300
0780
0780
0300
0000
0000
0300
0300
0300
0700
0E00
3C00
7800
7000
E000
E000
E000
E000
E010
78F0
3FF8
1FC0
ENDCHAR
STARTCHAR 00C0
ENCODING 192
SWIDTH 600 0
DWIDTH 18 0
BBX 16 29 1 0
BITMAP
0E00
0700
0380
0180
00C0
0000
0000
03C0
03C0
03C0
07E0
07E0
0660
0E60
0E70
0C30
0C30
1C38
1818
1818
3FFC
3FFC
300C
700E
700E
6006
E007
E007
C007
ENDCHAR
STARTCHAR 00C1
ENCODING 193
SWIDTH 600 0
DWIDTH 18 0
BBX 16 29 1 0
BITMAP
0078
0070
00E0
00C0
0180
0000
0000
03C0
03C0
03C0
07E0
07E0
0660
0E60
0E70
0C30
0C30
1C38
1818
1818
3FFC
3FFC
300C
700E
700E
6006
E007
E007
C007
ENDCHAR
STARTCHAR 00C2
ENCODING 194
SWIDTH 600 0
DWIDTH 18 0
BBX 16 29 1 0
BITMAP
03C0
03C0
06E0
0C70
1818
0000
0000
03C0
03C0
03C0
07E0
07E0
0660
0E60
0E70
0C30
0C30
1C38
1818
1818
3FFC
3FFC
300C
700E
700E
6006
E007
E007
C007
ENDCHAR
STARTCHAR 00C3
ENCODING 195
SWIDTH 600 0
DWIDTH 18 0
BBX 16 28 1 0
BITMAP
0F08
1FD8
19F8
10F0
0000
0000
03C0
03C0
03C0
07E0
07E0
0660
0E60
0E70
0C30
0C30
1C38
1818
1818
3FFC
3FFC
300C
700E
700E
6006
E007
E007
C007
ENDCHAR
STARTCHAR 00C4
ENCODING 196
SWIDTH 600 0
DWIDTH 18 0
BBX 16 28 1 0
BITMAP
1C38
1C38
1C38
1C38
0000
0000
03C0
03C0
03C0
07E0
07E0
0660
0E60
0E70
0C30
0C30
1C38
1818
1818
3FFC
3FFC
300C
700E
700E
6006
E007
E007
C007
ENDCHAR
STARTCHAR 00C5
ENCODING 197
SWIDTH 600 0
DWIDTH 18 0
BBX 16 31 1 0
BITMAP
03C0
07E0
0660
0420
0660
07E0
03C0
0000
0000
03C0
03C0
03C0
07E0
07E0
0660
0E60
0E70
0C30
0C30
1C38
1818
1818
3FFC
3FFC
300C
700E
700E
6006
E007
E007
C007
ENDCHAR
STARTCHAR 00C6
ENCODING 198
SWIDTH 600 0
DWIDTH 18 0
BBX 15 22 1 0
BITMAP
0FFE
0FFE
0DC0
0DC0
1DC0
1DC0
19C0
19C0
19C0
39FE
39FE
31C0
31C0
7FC0
7FC0
71C0
61C0
61C0
E1C0
E1C0
E1FE
C1FE
ENDCHAR
STARTCHAR 00C7
ENCODING 199
SWIDTH 600 0
DWIDTH 18 0
BBX 15 29 2 -7
BITMAP
03F8
0FFE
1E1C
3804
7000
7000
6000
E000
E000
E000
E000
E000
E000
E000
E000
6000
7000
7000
3800
1E1C
0FFC
03F8
0180
0180
03E0
0060
0060
07E0
07C0
ENDCHAR
STARTCHAR 00C8
ENCODING 200
SWIDTH 600 0
DWIDTH 18 0
BBX 12 29 3 0
BITMAP
3C00
1C00
0E00
0600
0300
0000
0000
FFF0
FFF0
E000
E000
E000
E000
E000
E000
E000
FFF0
FFF0
E000
E000
E000
E000
E000
E000
E000
E000
E000
FFF0
FFF0
ENDCHAR
STARTCHAR 00C9
ENCODING 201
SWIDTH 600 0
DWIDTH 18 0
BBX 12 29 3 0
BITMAP
00E0
01C0
0380
0300
0600
0000
0000
FFF0
FFF0
E000
E000
E000
E000
E000
E000
E000
FFF0
FFF0
E000
E000
E000
E000
E000
E000
E000
E000
E000
FFF0
FFF0
ENDCHAR
STARTCHAR 00CA
ENCODING 202
SWIDTH 600 0
DWIDTH 18 0
BBX 12 29 3 0
BITMAP
0F00
0F80
1D80
38C0
7060
0000
0000
FFF0
FFF0
E000
E000
E000
E000
E000
E000
E000
FFF0
FFF0
E000
E000
E000
E000
E000
E000
E000
E000
E000
FFF0
FFF0
ENDCHAR
STARTCHAR 00CB
ENCODING 203
SWIDTH 600 0
DWIDTH 18 0
BBX 12 28 3 0
BITMAP
30E0
70E0
70E0
30E0
0000
0000
FFF0
FFF0
E000
E000
E000
E000
E000
E000
E000
FFF0
FFF0
E000
E000
E000
E000
E000
E000
E000
E000
E000
FFF0
FFF0
ENDCHAR
STARTCHAR 00CC
ENCODING 204
SWIDTH 600 0
DWIDTH 18 0
BBX 12 29 3 0
BITMAP
3800
1C00
0E00
0600
0300
0000
0000
FFF0
FFF0
0600
0600
0600
0600
0600
0600
0600
0600
0600
0600
0600
0600
0600
0600
0600
0600
0600
0600
FFF0
FFF0
ENDCHAR
STARTCHAR 00CD
ENCODING 205
SWIDTH 600 0
DWIDTH 18 0
BBX 12 29 3 0
BITMAP
01E0
01C0
0380
0300
0600
0000
0000
FFF0
FFF0
0600
0600
0600
0600
0600
0600
0600
0600
0600
0600
0600
0600
0600
0600
0600
0600
0600
0600
FFF0
FFF0
ENDCHAR
STARTCHAR 00CE
ENCODING 206
SWIDTH 600 0
DWIDTH 18 0
BBX 12 29 3 0
BITMAP
0F00
0F00
1B80
31C0
6060
0000
0000
FFF0
FFF0
0600
0600
0600
0600
0600
0600
0600
0600
0600
0600
0600
0600
0600
0600
0600
0600
0600
0600
FFF0
FFF0
ENDCHAR
STARTCHAR 00CF
ENCODING 207
SWIDTH 600 0
DWIDTH 18 0
BBX 12 28 3 0
BITMAP
70E0
70E0
70E0
70E0
0000
0000
FFF0
FFF0
0600
0600
0600
0600
0600
0600
0600
0600
0600
0600
0600
0600
0600
0600
0600
0600
0600
0600
FFF0
FFF0
ENDCHAR
STARTCHAR 00D0
ENCODING 208
SWIDTH 600 0
DWIDTH 18 0
BBX 17 22 0 0
BITMAP
3FE000
3FF800
387C00
381E00
380F00
380700
380300
380380
380380
380380
FF8380
FF8380
380380
380380
380380
380700
380700
380F00
381E00
387C00
3FF800
3FE000
ENDCHAR
STARTCHAR 00D1
ENCODING 209
SWIDTH 600 0
DWIDTH 18 0
BBX 14 28 2 0
BITMAP
1E18
3FB0
33F0
20E0
0000
0000
F01C
F01C
F81C
D81C
DC1C
EC1C
EC1C
EE1C
E61C
E71C
E31C
E39C
E19C
E19C
E1DC
E0DC
E0FC
E07C
E07C
E03C
E03C
E03C
ENDCHAR
STARTCHAR 00D2
ENCODING 210
SWIDTH 600 0
DWIDTH 18 0
BBX 16 29 1 0
BITMAP
0E00
0700
0380
0180
00C0
0000
0000
07E0
1FF8
1E78
381C
700E
700E
700E
6006
E007
E007
E007
E007
E007
E007
6006
700E
700E
700E
381C
1E78
1FF0
07E0
ENDCHAR
STARTCHAR 00D3
ENCODING 211
SWIDTH 600 0
DWIDTH 18 0
BBX 16 29 1 0
BITMAP
0078
0070
00E0
00C0
0180
0000
0000
07E0
1FF8
1E78
381C
700E
700E
700E
6006
E007
E007
E007
E007
E007
E007
6006
700E
700E
700E
381C
1E78
1FF0
07E0
ENDCHAR
STARTCHAR 00D4
ENCODING 212
SWIDTH 600 0
DWIDTH 18 0
BBX 16 29 1 0
BITMAP
03C0
03C0
06E0
0C70
1818
0000
0000
07E0
1FF8
1E78
381C
700E
700E
700E
6006
E007
E007
E007
E007
E007
E007
6006
700E
700E
700E
381C
1E78
1FF0
07E0
ENDCHAR
STARTCHAR 00D5
ENCODING 213
SWIDTH 600 0
DWIDTH 18 0
BBX 16 28 1 0
BITMAP
0F08
1FD8
19F8
10F0
0000
0000
07E0
1FF8
1E78
381C
700E
700E
700E
6006
E007
E007
E007
E007
E007
E007
6006
700E
700E
700E
381C
1E78
1FF0
07E0
ENDCHAR
STARTCHAR 00D6
ENCODING 214
SWIDTH 600 0
DWIDTH 18 0
BBX 16 28 1 0
BITMAP
1C38
1C38
1C38
1C38
0000
0000
07E0
1FF8
1E78
381C
700E
700E
700E
6006
E007
E007
E007
E007
E007
E007
6006
700E
700E
700E
381C
1E78
1FF0
07E0
ENDCHAR
STARTCHAR 00D7
ENCODING 215
SWIDTH 600 0
DWIDTH 18 0
BBX 12 13 3 4
BITMAP
C030
E070
70E0
39C0
1F80
0F00
0F00
1F80
39C0
70E0
E070
C030
4020
ENDCHAR
STARTCHAR 00D8
ENCODING 216
SWIDTH 600 0
DWIDTH 18 0
BBX 16 24 1 -1
BITMAP
0004
07E7
0FFE
1E7C
381C
701E
703E
707E
6066
E0E7
E0C7
E1C7
E187
E387
E707
6606
7E0E
7C0E
7C0E
381C
3E78
7FF0
67E0
2000
ENDCHAR
STARTCHAR 00D9
ENCODING 217
SWIDTH 600 0
DWIDTH 18 0
BBX 14 29 2 0
BITMAP
1C00
0E00
0700
0300
0180
0000
0000
E01C
E01C
E01C
E01C
E01C
E01C
E01C
E01C
E01C
E01C
E01C
E01C
E01C
E01C
E01C
E01C
E01C
6018
7038
7878
3FF0
0FC0
ENDCHAR
STARTCHAR 00DA
ENCODING 218
SWIDTH 600 0
DWIDTH 18 0
BBX 14 29 2 0
BITMAP
00F0
00E0
01C0
0180
0300
0000
0000
E01C
E01C
E01C
E01C
E01C
E01C
E01C
E01C
E01C
E01C
E01C
E01C
E01C
E01C
E01C
E01C
E01C
6018
7038
7878
3FF0
0FC0
ENDCHAR
STARTCHAR 00DB
ENCODING 219
SWIDTH 600 0
DWIDTH 18 0
BBX 14 29 2 0
BITMAP
0780
0780
0DC0
18E0
3030
0000
0000
E01C
E01C
E01C
E01C
E01C
E01C
E01C
E01C
E01C
E01C
E01C
E01C
E01C
E01C
E01C
E01C
E01C
6018
7038
7878
3FF0
0FC0
ENDCHAR
STARTCHAR 00DC
ENCODING 220
SWIDTH 600 0
DWIDTH 18 0
BBX 14 28 2 0
BITMAP
3870
3870
3870
3870
0000
0000
E01C
E01C
E01C
E01C
E01C
E01C
E01C
E01C
E01C
E01C
E01C
E01C
E01C
E01C
E01C
E01C
E01C
6018
7038
7878
3FF0
0FC0
ENDCHAR
STARTCHAR 00DD
ENCODING 221
SWIDTH 600 0
DWIDTH 18 0
BBX 16 29 1 0
BITMAP
0078
0070
00E0
00C0
0180
0000
0000
E007
700E
700E
381C
381C
1818
1C38
0C30
0E70
0660
07E0
03C0
03C0
0180
0180
0180
0180
0180
0180
0180
0180
0180
ENDCHAR
STARTCHAR 00DE
ENCODING 222
SWIDTH 600 0
DWIDTH 18 0
BBX 13 22 3 0
BITMAP
E000
E000
E000
E000
FFC0
FFE0
E0F0
E038
E038
E018
E018
E038
E038
E038
E0F0
FFE0
FFC0
E000
E000
E000
E000
E000
ENDCHAR
STARTCHAR 00DF
ENCODING 223
SWIDTH 600 0
DWIDTH 18 0
BBX 15 24 2 0
BITMAP
0FC0
3FF0
7878
7038
E018
E038
E038
E070
E0E0
E1C0
E180
E180
E1C0
E1F0
E078
E03C
E01E
E00E
E006
E006
E40E
E71E
E7FC
E3F0
ENDCHAR
STARTCHAR 00E0
ENCODING 224
SWIDTH 600 0
DWIDTH 18 0
BBX 13 24 2 0
BITMAP
1E00
0E00
0700
0300
0180
0000
0000
0FC0
7FF0
3878
2038
0018
0018
0018
1FF8
7FF8
7018
E018
E018
E038
E038
71F8
7FD8
1F18
ENDCHAR
STARTCHAR 00E1
ENCODING 225
SWIDTH 600 0
DWIDTH 18 0
BBX 13 24 2 0
BITMAP
0070
00E0
01C0
0180
0300
0000
0000
0FC0
7FF0
3878
2038
0018
0018
0018
1FF8
7FF8
7018
E018
E018
E038
E038
71F8
7FD8
1F18
ENDCHAR
STARTCHAR 00E2
ENCODING 226
SWIDTH 600 0
DWIDTH 18 0
BBX 13 24 2 0
BITMAP
0780
0780
0EC0
1C60
3830
0000
0000
0FC0
7FF0
3878
2038
0018
0018
0018
1FF8
7FF8
7018
E018
E018
E038
E038
71F8
7FD8
1F18
ENDCHAR
STARTCHAR 00E3
ENCODING 227
SWIDTH 600 0
DWIDTH 18 0
BBX 13 23 2 0
BITMAP
1E18
3FB0
33F0
20E0
0000
0000
0FC0
7FF0
3878
2038
0018
0018
0018
1FF8
7FF8
7018
E018
E018
E038
E038
71F8
7FD8
1F18
ENDCHAR
STARTCHAR 00E4
ENCODING 228
SWIDTH 600 0
DWIDTH 18 0
BBX 13 23 2 0
BITMAP
1870
3870
3870
1870
0000
0000
0FC0
7FF0
3878
2038
0018
0018
0018
1FF8
7FF8
7018
E018
E018
E038
E038
71F8
7FD8
1F18
ENDCHAR
STARTCHAR 00E5
ENCODING 229
SWIDTH 600 0
DWIDTH 18 0
BBX 13 26 2 0
BITMAP
0380
0FC0
0CC0
0C40
0CC0
0FC0
0780
0000
0000
0FC0
7FF0
3878
2038
0018
0018
0018
1FF8
7FF8
7018
E018
E018
E038
E038
71F8
7FD8
1F18
ENDCHAR
STARTCHAR 00E6
ENCODING 230
SWIDTH 600 0
DWIDTH 18 0
BBX 16 17 1 0
BITMAP
3E3C
7F7E
67E7
03C7
0183
0183
0183
3FFF
7FFF
E180
C180
C180
C3C0
C3C1
E7F3
FE7F
3C3E
ENDCHAR
STARTCHAR 00E7
ENCODING 231
SWIDTH 600 0
DWIDTH 18 0
BBX 12 24 3 -7
BITMAP
0FE0
3FF0
7C70
7000
E000
E000
C000
C000
C000
C000
C000
E000
E000
F000
7C70
3FF0
0FE0
0300
0700
0380
00C0
00C0
0F80
0F00
ENDCHAR
STARTCHAR 00E8
ENCODING 232
SWIDTH 600 0
DWIDTH 18 0
BBX 14 24 2 0
BITMAP
1E00
0E00
0700
0300
0180
0000
0000
07C0
1FF0
3C78
7038
E01C
E01C
E01C
FFFC
FFFC
E000
E000
E000
E000
7004
3C38
1FF8
07F0
ENDCHAR
STARTCHAR 00E9
ENCODING 233
SWIDTH 600 0
DWIDTH 18 0
BBX 14 24 2 0
BITMAP
00F0
00E0
01C0
0180
0300
0000
0000
07C0
1FF0
3C78
7038
E01C
E01C
E01C
FFFC
FFFC
E000
E000
E000
E000
7004
3C38
1FF8
07F0
ENDCHAR
STARTCHAR 00EA
ENCODING 234
SWIDTH 600 0
DWIDTH 18 0
BBX 14 24 2 0
BITMAP
0780
0780
0EC0
1C60
3830
0000
0000
07C0
1FF0
3C78
7038
E01C
E01C
E01C
FFFC
FFFC
E000
E000
E000
E000
7004
3C38
1FF8
07F0
ENDCHAR
STARTCHAR 00EB
ENCODING 235
SWIDTH 600 0
DWIDTH 18 0
BBX 14 23 2 0
BITMAP
3870
3870
3870
1870
0000
0000
07C0
1FF0
3C78
7038
E01C
E01C
E01C
FFFC
FFFC
E000
E000
E000
E000
7004
3C38
1FF8
07F0
ENDCHAR
STARTCHAR 00EC
ENCODING 236
SWIDTH 600 0
DWIDTH 18 0
BBX 14 24 2 0
BITMAP
1C00
0E00
0700
0300
0180
0000
0000
7F80
7F80
0380
0380
0380
0380
0380
0380
0380
0380
0380
0380
0380
0380
0380
FFFC
FFFC
ENDCHAR
STARTCHAR 00ED
ENCODING 237
SWIDTH 600 0
DWIDTH 18 0
BBX 14 24 2 0
BITMAP
00F0
00E0
01C0
0180
0300
0000
0000
7F80
7F80
0380
0380
0380
0380
0380
0380
0380
0380
0380
0380
0380
0380
0380
FFFC
FFFC
ENDCHAR
STARTCHAR 00EE
ENCODING 238
SWIDTH 600 0
DWIDTH 18 0
BBX 14 24 2 0
BITMAP
0780
0780
0DC0
18E0
3030
0000
0000
7F80
7F80
0380
0380
0380
0380
0380
0380
0380
0380
0380
0380
0380
0380
0380
FFFC
FFFC
ENDCHAR
STARTCHAR 00EF
ENCODING 239
SWIDTH 600 0
DWIDTH 18 0
BBX 14 23 2 0
BITMAP
3870
3870
3870
3870
0000
0000
7F80
7F80
0380
0380
0380
0380
0380
0380
0380
0380
0380
0380
0380
0380
0380
FFFC
FFFC
ENDCHAR
STARTCHAR 00F0
ENCODING 240
SWIDTH 600 0
DWIDTH 18 0
BBX 14 24 2 0
BITMAP
0C10
1E78
07F0
03C0
0FC0
1EE0
1870
0030
0038
0FD8
3FFC
7CFC
F03C
E01C
E01C
C00C
C00C
C00C
E01C
E01C
7038
7CF8
3FF0
0FC0
ENDCHAR
STARTCHAR 00F1
ENCODING 241
SWIDTH 600 0
DWIDTH 18 0
BBX 14 23 2 0
BITMAP
0E18
1FB0
3BF0
30E0
0000
0000
E3E0
EFF0
FC78
F038
F01C
E01C
E01C
E01C
E01C
E01C
E01C
E01C
E01C
E01C
E01C
E01C
E01C
ENDCHAR
STARTCHAR 00F2
ENCODING 242
SWIDTH 600 0
DWIDTH 18 0
BBX 14 24 2 0
BITMAP
1C00
0E00
0700
0300
0180
0000
0000
0FC0
3FF0
7CF8
7038
E01C
E01C
C01C
C00C
C00C
C00C
C01C
E01C
E01C
7038
7CF8
3FF0
0FC0
ENDCHAR
STARTCHAR 00F3
ENCODING 243
SWIDTH 600 0
DWIDTH 18 0
BBX 14 24 2 0
BITMAP
00F0
00E0
01C0
0180
0300
0000
0000
0FC0
3FF0
7CF8
7038
E01C
E01C
C01C
C00C
C00C
C00C
C01C
E01C
E01C
7038
7CF8
3FF0
0FC0
ENDCHAR
STARTCHAR 00F4
ENCODING 244
SWIDTH 600 0
DWIDTH 18 0
BBX 14 24 2 0
BITMAP
0780
0780
0DC0
18E0
3030
0000
0000
0FC0
3FF0
7CF8
7038
E01C
E01C
C01C
C00C
C00C
C00C
C01C
E01C
E01C
7038
7CF8
3FF0
0FC0
ENDCHAR
STARTCHAR 00F5
ENCODING 245
SWIDTH 600 0
DWIDTH 18 0
BBX 14 23 2 0
BITMAP
1E10
3FB0
33F0
21E0
0000
0000
0FC0
3FF0
7CF8
7038
E01C
E01C
C01C
C00C
C00C
C00C
C01C
E01C
E01C
7038
7CF8
3FF0
0FC0
ENDCHAR
STARTCHAR 00F6
ENCODING 246
SWIDTH 600 0
DWIDTH 18 0
BBX 14 23 2 0
BITMAP
3870
3870
3870
3870
0000
0000
0FC0
3FF0
7CF8
7038
E01C
E01C
C01C
C00C
C00C
C00C
C01C
E01C
E01C
7038
7CF8
3FF0
0FC0
ENDCHAR
STARTCHAR 00F7
ENCODING 247
SWIDTH 600 0
DWIDTH 18 0
BBX 14 14 2 4
BITMAP
0300
0780
0780
0300
0000
0000
FFFC
FFFC
0000
0000
0300
0780
0780
0300
ENDCHAR
STARTCHAR 00F8
ENCODING 248
SWIDTH 600 0
DWIDTH 18 0
BBX 14 19 2 -1
BITMAP
0008
0FDC
3FF8
7CF8
7078
E07C
E0FC
C1DC
C18C
C30C
C70C
CE1C
EC1C
FC1C
7838
7CF8
7FF0
EFC0
4000
ENDCHAR
STARTCHAR 00F9
ENCODING 249
SWIDTH 600 0
DWIDTH 18 0
BBX 14 24 2 0
BITMAP
1C00
0E00
0700
0300
0180
0000
0000
E01C
E01C
E01C
E01C
E01C
E01C
E01C
E01C
E01C
E01C
E01C
E01C
E03C
703C
78FC
3FDC
1F9C
ENDCHAR
STARTCHAR 00FA
ENCODING 250
SWIDTH 600 0
DWIDTH 18 0
BBX 14 24 2 0
BITMAP
00F0
00E0
01C0
0180
0300
0000
0000
E01C
E01C
E01C
E01C
E01C
E01C
E01C
E01C
E01C
E01C
E01C
E01C
E03C
703C
78FC
3FDC
1F9C
ENDCHAR
STARTCHAR 00FB
ENCODING 251
SWIDTH 600 0
DWIDTH 18 0
BBX 14 24 2 0
BITMAP
0780
0780
0DC0
18E0
3030
0000
0000
E01C
E01C
E01C
E01C
E01C
E01C
E01C
E01C
E01C
E01C
E01C
E01C
E03C
703C
78FC
3FDC
1F9C
ENDCHAR
STARTCHAR 00FC
ENCODING 252
SWIDTH 600 0
DWIDTH 18 0
BBX 14 23 2 0
BITMAP
3870
3870
3870
3870
0000
0000
E01C
E01C
E01C
E01C
E01C
E01C
E01C
E01C
E01C
E01C
E01C
E01C
E03C
703C
78FC
3FDC
1F9C
ENDCHAR
STARTCHAR 00FD
ENCODING 253
SWIDTH 600 0
DWIDTH 18 0
BBX 16 31 1 -7
BITMAP
0078
0070
00E0
00C0
0180
0000
0000
E007
700E
700E
300C
381C
181C
1C18
1C38
0C38
0E30
0670
0760
0760
03E0
03C0
01C0
01C0
0180
0380
0380
0700
0F00
7E00
7C00
ENDCHAR
STARTCHAR 00FE
ENCODING 254
SWIDTH 600 0
DWIDTH 18 0
BBX 14 31 2 -7
BITMAP
E000
E000
E000
E000
E000
E000
E000
E7C0
EFF0
FCF8
F038
F01C
E01C
E01C
E00C
E00C
E00C
E01C
E01C
F01C
F038
FCF8
EFF0
E7C0
E000
E000
E000
E000
E000
E000
E000
ENDCHAR
STARTCHAR 00FF
ENCODING 255
SWIDTH 600 0
DWIDTH 18 0
BBX 16 30 1 -7
BITMAP
1C38
1C38
1C38
1C38
0000
0000
E007
700E
700E
300C
381C
181C
1C18
1C38
0C38
0E30
0670
0760
0760
03E0
03C0
01C0
01C0
0180
0380
0380
0700
0F00
7E00
7C00
ENDCHAR
STARTCHAR 0100
ENCODING 256
SWIDTH 600 0
DWIDTH 18 0
BBX 16 26 1 0
BITMAP
0FF0
0FF0
0000
0000
03C0
03C0
03C0
07E0
07E0
0660
0E60
0E70
0C30
0C30
1C38
1818
1818
3FFC
3FFC
300C
700E
700E
6006
E007
E007
C007
ENDCHAR
STARTCHAR 0101
ENCODING 257
SWIDTH 600 0
DWIDTH 18 0
BBX 13 21 2 0
BITMAP
1FF0
1FF0
0000
0000
0FC0
7FF0
3878
2038
0018
0018
0018
1FF8
7FF8
7018
E018
E018
E038
E038
71F8
7FD8
1F18
ENDCHAR
STARTCHAR 0102
ENCODING 258
SWIDTH 600 0
DWIDTH 18 0
BBX 16 28 1 0
BITMAP
1818
0C70
0FF0
07C0
0000
0000
03C0
03C0
03C0
07E0
07E0
0660
0E60
0E70
0C30
0C30
1C38
1818
1818
3FFC
3FFC
300C
700E
700E
6006
E007
E007
C007
ENDCHAR
STARTCHAR 0103
ENCODING 259
SWIDTH 600 0
DWIDTH 18 0
BBX 13 23 2 0
BITMAP
3030
1CF0
1FE0
07C0
0000
0000
0FC0
7FF0
3878
2038
0018
0018
0018
1FF8
7FF8
7018
E018
E018
E038
E038
71F8
7FD8
1F18
ENDCHAR
STARTCHAR 0104
ENCODING 260
SWIDTH 600 0
DWIDTH 18 0
BBX 17 29 1 -7
BITMAP
03C000
03C000
03C000
07E000
07E000
066000
0E6000
0E7000
0C3000
0C3000
1C3800
181800
181800
3FFC00
3FFC00
300C00
700E00
700E00
600600
E00700
E00700
C00700
000300
000600
000C00
000C00
000E00
000F80
000780
ENDCHAR
STARTCHAR 0105
ENCODING 261
SWIDTH 600 0
DWIDTH 18 0
BBX 14 24 2 -7
BITMAP
0FC0
7FF0
3878
2038
0018
0018
0018
1FF8
7FF8
7018
E018
E018
E038
E038
71F8
7FD8
1F18
0030
0030
0060
0060
0070
007C
003C
ENDCHAR
STARTCHAR 0106
ENCODING 262
SWIDTH 600 0
DWIDTH 18 0
BBX 15 29 2 0
BITMAP
003C
0038
0070
00E0
00C0
0000
0000
03F8
0FFE
1E1C
3804
7000
7000
6000
E000
E000
E000
E000
E000
E000
E000
E000
6000
7000
7000
3800
1E1C
0FFC
03F8
ENDCHAR
STARTCHAR 0107
ENCODING 263
SWIDTH 600 0
DWIDTH 18 0
BBX 12 24 3 0
BITMAP
00F0
00E0
01C0
0380
0300
0000
0000
0FE0
3FF0
7C70
7000
E000
E000
C000
C000
C000
C000
C000
E000
E000
F000
7C70
3FF0
0FE0
ENDCHAR
STARTCHAR 0108
ENCODING 264
SWIDTH 600 0
DWIDTH 18 0
BBX 15 29 2 0
BITMAP
01C0
03E0
0370
0638
0C1C
0000
0000
03F8
0FFE
1E1C
3804
7000
7000
6000
E000
E000
E000
E000
E000
E000
E000
E000
6000
7000
7000
3800
1E1C
0FFC
03F8
ENDCHAR
STARTCHAR 0109
ENCODING 265
SWIDTH 600 0
DWIDTH 18 0
BBX 12 24 3 0
BITMAP
0700
0F80
0DC0
18E0
3070
0000
0000
0FE0
3FF0
7C70
7000
E000
E000
C000
C000
C000
C000
C000
E000
E000
F000
7C70
3FF0
0FE0
ENDCHAR
STARTCHAR 010A
ENCODING 266
SWIDTH 600 0
DWIDTH 18 0
BBX 15 29 2 0
BITMAP
01C0
01E0
01E0
01C0
0000
0000
0000
03F8
0FFE
1E1C
3804
7000
7000
6000
E000
E000
E000
E000
E000
E000
E000
E000
6000
7000
7000
3800
1E1C
0FFC
03F8
ENDCHAR
STARTCHAR 010B
ENCODING 267
SWIDTH 600 0
DWIDTH 18 0
BBX 12 24 3 0
BITMAP
0700
0780
0780
0700
0000
0000
0000
0FE0
3FF0
7C70
7000
E000
E000
C000
C000
C000
C000
C000
E000
E000
F000
7C70
3FF0
0FE0
ENDCHAR
STARTCHAR 010C
ENCODING 268
SWIDTH 600 0
DWIDTH 18 0
BBX 15 29 2 0
BITMAP
0C1C
0638
0370
03E0
01C0
0000
0000
03F8
0FFE
1E1C
3804
7000
7000
6000
E000
E000
E000
E000
E000
E000
E000
E000
6000
7000
7000
3800
1E1C
0FFC
03F8
ENDCHAR
STARTCHAR 010D
ENCODING 269
SWIDTH 600 0
DWIDTH 18 0
BBX 12 24 3 0
BITMAP
3070
18E0
0DC0
0F80
0700
0000
0000
0FE0
3FF0
7C70
7000
E000
E000
C000
C000
C000
C000
C000
E000
E000
F000
7C70
3FF0
0FE0
ENDCHAR
STARTCHAR 010E
ENCODING 270
SWIDTH 600 0
DWIDTH 18 0
BBX 15 29 2 0
BITMAP
7060
38C0
1D80
0F80
0700
0000
0000
FF80
FFE0
E1F0
E078
E038
E01C
E01C
E00C
E00E
E00E
E00E
E00E
E00E
E00C
E01C
E01C
E01C
E038
E078
E1F0
FFC0
FF00
ENDCHAR
STARTCHAR 010F
ENCODING 271
SWIDTH 600 0
DWIDTH 18 0
BBX 18 24 1 0
BITMAP
0018C0
0019C0
001980
001980
001900
001800
001800
0F9800
3FD800
3CF800
707800
703800
603800
E01800
E01800
E01800
E01800
E01800
603800
703800
703800
3CF800
1FD800
0F9800
ENDCHAR
STARTCHAR 0110
ENCODING 272
SWIDTH 600 0
DWIDTH 18 0
BBX 17 22 0 0
BITMAP
3FE000
3FF800
387C00
381E00
380F00
380700
380300
380380
380380
380380
FF8380
FF8380
380380
380380
380380
380700
380700
380F00
381E00
387C00
3FF800
3FE000
ENDCHAR
STARTCHAR 0111
ENCODING 273
SWIDTH 600 0
DWIDTH 18 0
BBX 16 24 2 0
BITMAP
001C
001C
001C
03FF
03FF
001C
001C
0F9C
3FDC
7CFC
703C
E03C
E01C
E01C
C01C
C01C
C01C
E01C
E01C
E03C
703C
7CFC
3FDC
0F9C
ENDCHAR
STARTCHAR 0112
ENCODING 274
SWIDTH 600 0
DWIDTH 18 0
BBX 12 26 3 0
BITMAP
3FE0
3FE0
0000
0000
FFF0
FFF0
E000
E000
E000
E000
E000
E000
E000
FFF0
FFF0
E000
E000
E000
E000
E000
E000
E000
E000
E000
FFF0
FFF0
ENDCHAR
STARTCHAR 0113
ENCODING 275
SWIDTH 600 0
DWIDTH 18 0
BBX 14 21 2 0
BITMAP
1FF0
1FF0
0000
0000
07C0
1FF0
3C78
7038
E01C
E01C
E01C
FFFC
FFFC
E000
E000
E000
E000
7004
3C38
1FF8
07F0
ENDCHAR
STARTCHAR 0114
ENCODING 276
SWIDTH 600 0
DWIDTH 18 0
BBX 12 28 3 0
BITMAP
6060
39E0
3FC0
0F80
0000
0000
FFF0
FFF0
E000
E000
E000
E000
E000
E000
E000
FFF0
FFF0
E000
E000
E000
E000
E000
E000
E000
E000
E000
FFF0
FFF0
ENDCHAR
STARTCHAR 0115
ENCODING 277
SWIDTH 600 0
DWIDTH 18 0
BBX 14 23 2 0
BITMAP
3030
1CE0
1FE0
07C0
0000
0000
07C0
1FF0
3C78
7038
E01C
E01C
E01C
FFFC
FFFC
E000
E000
E000
E000
7004
3C38
1FF8
07F0
ENDCHAR
STARTCHAR 0116
ENCODING 278
SWIDTH 600 0
DWIDTH 18 0
BBX 12 29 3 0
BITMAP
0700
0F00
0F00
0600
0000
0000
0000
FFF0
FFF0
E000
E000
E000
E000
E000
E000
E000
FFF0
FFF0
E000
E000
E000
E000
E000
E000
E000
E000
E000
FFF0
FFF0
ENDCHAR
STARTCHAR 0117
ENCODING 279
SWIDTH 600 0
DWIDTH 18 0
BBX 14 24 2 0
BITMAP
0300
0780
0780
0300
0000
0000
0000
07C0
1FF0
3C78
7038
E01C
E01C
E01C
FFFC
FFFC
E000
E000
E000
E000
7004
3C38
1FF8
07F0
ENDCHAR
STARTCHAR 0118
ENCODING 280
SWIDTH 600 0
DWIDTH 18 0
BBX 12 29 3 -7
BITMAP
FFF0
FFF0
E000
E000
E000
E000
E000
E000
E000
FFF0
FFF0
E000
E000
E000
E000
E000
E000
E000
E000
E000
FFF0
FFF0
00C0
0180
0180
0180
0180
01F0
00F0
ENDCHAR
STARTCHAR 0119
ENCODING 281
SWIDTH 600 0
DWIDTH 18 0
BBX 14 24 2 -7
BITMAP
07C0
1FF0
3C78
7038
E01C
E01C
E01C
FFFC
FFFC
E000
E000
E000
E000
7004
3C38
1FF8
07F8
0030
0060
00C0
00C0
00E0
0078
0078
ENDCHAR
STARTCHAR 011A
ENCODING 282
SWIDTH 600 0
DWIDTH 18 0
BBX 12 29 3 0
BITMAP
7060
38C0
1D80
0F80
0F00
0000
0000
FFF0
FFF0
E000
E000
E000
E000
E000
E000
E000
FFF0
FFF0
E000
E000
E000
E000
E000
E000
E000
E000
E000
FFF0
FFF0
ENDCHAR
STARTCHAR 011B
ENCODING 283
SWIDTH 600 0
DWIDTH 18 0
BBX 14 24 2 0
BITMAP
3830
1CE0
0FC0
0780
0780
0000
0000
07C0
1FF0
3C78
7038
E01C
E01C
E01C
FFFC
FFFC
E000
E000
E000
E000
7004
3C38
1FF8
07F0
ENDCHAR
STARTCHAR 011C
ENCODING 284
SWIDTH 600 0
DWIDTH 18 0
BBX 15 29 1 0
BITMAP
01C0
03E0
0770
0638
0C1C
0000
0000
03F8
0FFE
1F1C
3C00
3800
7000
7000
6000
6000
E000
E0FE
E0FE
E00E
E00E
600E
700E
700E
780E
3C0E
1F1E
0FFE
03F8
ENDCHAR
STARTCHAR 011D
ENCODING 285
SWIDTH 600 0
DWIDTH 18 0
BBX 14 31 2 -7
BITMAP
0780
0780
0DC0
18E0
3030
0000
0000
0F9C
3FDC
7CFC
703C
E03C
E01C
E01C
C01C
C01C
C01C
E01C
E01C
E01C
703C
7CFC
3FDC
0F9C
001C
0018
0018
8038
F0F0
FFF0
3FC0
ENDCHAR
STARTCHAR 011E
ENCODING 286
SWIDTH 600 0
DWIDTH 18 0
BBX 15 28 1 0
BITMAP
0C18
0E38
07F0
03E0
0000
0000
03F8
0FFE
1F1C
3C00
3800
7000
7000
6000
6000
E000
E0FE
E0FE
E00E
E00E
600E
700E
700E
780E
3C0E
1F1E
0FFE
03F8
ENDCHAR
STARTCHAR 011F
ENCODING 287
SWIDTH 600 0
DWIDTH 18 0
BBX 14 30 2 -7
BITMAP
3030
18E0
1FE0
0F80
0000
0000
0F9C
3FDC
7CFC
703C
E03C
E01C
E01C
C01C
C01C
C01C
E01C
E01C
E01C
703C
7CFC
3FDC
0F9C
001C
0018
0018
8038
F0F0
FFF0
3FC0
ENDCHAR
STARTCHAR 0120
ENCODING 288
SWIDTH 600 0
DWIDTH 18 0
BBX 15 29 1 0
BITMAP
01C0
01C0
01E0
01C0
0000
0000
0000
03F8
0FFE
1F1C
3C00
3800
7000
7000
6000
6000
E000
E0FE
E0FE
E00E
E00E
600E
700E
700E
780E
3C0E
1F1E
0FFE
03F8
ENDCHAR
STARTCHAR 0121
ENCODING 289
SWIDTH 600 0
DWIDTH 18 0
BBX 14 31 2 -7
BITMAP
0300
0780
0780
0300
0000
0000
0000
0F9C
3FDC
7CFC
703C
E03C
E01C
E01C
C01C
C01C
C01C
E01C
E01C
E01C
703C
7CFC
3FDC
0F9C
001C
0018
0018
8038
F0F0
FFF0
3FC0
ENDCHAR
STARTCHAR 0122
ENCODING 290
SWIDTH 600 0
DWIDTH 18 0
BBX 15 29 1 -7
BITMAP
03F8
0FFE
1F1C
3C00
3800
7000
7000
6000
6000
E000
E0FE
E0FE
E00E
E00E
600E
700E
700E
780E
3C0E
1F1E
0FFE
03F8
0000
0000
00C0
00C0
01C0
0180
0100
ENDCHAR
STARTCHAR 0123
ENCODING 291
SWIDTH 600 0
DWIDTH 18 0
BBX 14 31 2 -7
BITMAP
0180
0380
0300
0700
0700
0000
0000
0F9C
3FDC
7CFC
703C
E03C
E01C
E01C
C01C
C01C
C01C
E01C
E01C
E01C
703C
7CFC
3FDC
0F9C
001C
0018
0018
8038
F0F0
FFF0
3FC0
ENDCHAR
STARTCHAR 0124
ENCODING 292
SWIDTH 600 0
DWIDTH 18 0
BBX 14 29 2 0
BITMAP
0780
0780
0DC0
18E0
3030
0000
0000
E01C
E01C
E01C
E01C
E01C
E01C
E01C
E01C
E01C
FFFC
FFFC
E01C
E01C
E01C
E01C
E01C
E01C
E01C
E01C
E01C
E01C
E01C
ENDCHAR
STARTCHAR 0125
ENCODING 293
SWIDTH 600 0
DWIDTH 18 0
BBX 17 31 -1 0
BITMAP
1C0000
3E0000
370000
638000
C1C000
000000
000000
1C0000
1C0000
1C0000
1C0000
1C0000
1C0000
1C0000
1C7C00
1DFE00
1F8F00
1F0700
1E0380
1C0380
1C0380
1C0380
1C0380
1C0380
1C0380
1C0380
1C0380
1C0380
1C0380
1C0380
1C0380
ENDCHAR
STARTCHAR 0126
ENCODING 294
SWIDTH 600 0
DWIDTH 18 0
BBX 18 22 0 0
BITMAP
380700
380700
380700
380700
FFFFC0
FFFFC0
380700
380700
380700
3FFF00
3FFF00
380700
380700
380700
380700
380700
380700
380700
380700
380700
380700
380700
ENDCHAR
STARTCHAR 0127
ENCODING 295
SWIDTH 600 0
DWIDTH 18 0
BBX 16 24 0 0
BITMAP
3800
3800
3800
FFC0
FFC0
3800
3800
38F8
3BFC
3F1E
3E0E
3C07
3807
3807
3807
3807
3807
3807
3807
3807
3807
3807
3807
3807
ENDCHAR
STARTCHAR 0128
ENCODING 296
SWIDTH 600 0
DWIDTH 18 0
BBX 12 28 3 0
BITMAP
3C20
7F60
67E0
43C0
0000
0000
FFF0
FFF0
0600
0600
0600
0600
0600
0600
0600
0600
0600
0600
0600
0600
0600
0600
0600
0600
0600
0600
FFF0
FFF0
ENDCHAR
STARTCHAR 0129
ENCODING 297
SWIDTH 600 0
DWIDTH 18 0
BBX 14 23 2 0
BITMAP
1E10
3FB0
33F0
21E0
0000
0000
7F80
7F80
0380
0380
0380
0380
0380
0380
0380
0380
0380
0380
0380
0380
0380
FFFC
FFFC
ENDCHAR
STARTCHAR 012A
ENCODING 298
SWIDTH 600 0
DWIDTH 18 0
BBX 12 26 3 0
BITMAP
3FC0
3FC0
0000
0000
FFF0
FFF0
0600
0600
0600
0600
0600
0600
0600
0600
0600
0600
0600
0600
0600
0600
0600
0600
0600
0600
FFF0
FFF0
ENDCHAR
STARTCHAR 012B
ENCODING 299
SWIDTH 600 0
DWIDTH 18 0
BBX 14 21 2 0
BITMAP
1FE0
1FE0
0000
0000
7F80
7F80
0380
0380
0380
0380
0380
0380
0380
0380
0380
0380
0380
0380
0380
FFFC
FFFC
ENDCHAR
STARTCHAR 012C
ENCODING 300
SWIDTH 600 0
DWIDTH 18 0
BBX 12 28 3 0
BITMAP
6060
31C0
3FC0
1F00
0000
0000
FFF0
FFF0
0600
0600
0600
0600
0600
0600
0600
0600
0600
0600
0600
0600
0600
0600
0600
0600
0600
0600
FFF0
FFF0
ENDCHAR
STARTCHAR 012D
ENCODING 301
SWIDTH 600 0
DWIDTH 18 0
BBX 14 23 2 0
BITMAP
3030
18E0
1FE0
0F80
0000
0000
7F80
7F80
0380
0380
0380
0380
0380
0380
0380
0380
0380
0380
0380
0380
0380
FFFC
FFFC
ENDCHAR
STARTCHAR 012E
ENCODING 302
SWIDTH 600 0
DWIDTH 18 0
BBX 12 29 3 -7
BITMAP
FFF0
FFF0
0600
0600
0600
0600
0600
0600
0600
0600
0600
0600
0600
0600
0600
0600
0600
0600
0600
0600
FFF0
FFF0
00C0
0180
0300
0300
0380
03E0
01E0
ENDCHAR
STARTCHAR 012F
ENCODING 303
SWIDTH 600 0
DWIDTH 18 0
BBX 14 31 2 -7
BITMAP
0380
0780
0780
0380
0000
0000
0000
7F80
7F80
0380
0380
0380
0380
0380
0380
0380
0380
0380
0380
0380
0380
0380
FFFC
FFFC
0060
00C0
00C0
00C0
00C0
00F8
0078
ENDCHAR
STARTCHAR 0130
ENCODING 304
SWIDTH 600 0
DWIDTH 18 0
BBX 12 29 3 0
BITMAP
0600
0F00
0F00
0600
0000
0000
0000
FFF0
FFF0
0600
0600
0600
0600
0600
0600
0600
0600
0600
0600
0600
0600
0600
0600
0600
0600
0600
0600
FFF0
FFF0
ENDCHAR
STARTCHAR 0131
ENCODING 305
SWIDTH 600 0
DWIDTH 18 0
BBX 14 17 2 0
BITMAP
7F80
7F80
0380
0380
0380
0380
0380
0380
0380
0380
0380
0380
0380
0380
0380
FFFC
FFFC
ENDCHAR
STARTCHAR 0132
ENCODING 306
SWIDTH 600 0
DWIDTH 18 0
BBX 12 22 3 0
BITMAP
E070
E070
E070
E070
E070
E070
E070
E070
E070
E070
E070
E070
E070
E070
E070
E070
0070
0070
00E0
E3E0
FFC0
7F00
ENDCHAR
STARTCHAR 0133
ENCODING 307
SWIDTH 600 0
DWIDTH 18 0
BBX 12 31 3 -7
BITMAP
6060
F0F0
F0F0
6060
0000
0000
0000
6070
6070
6070
6070
6070
6070
6070
6070
6070
6070
6070
6070
6070
6070
6070
6070
6070
0070
0070
0060
00E0
41E0
7FC0
7F00
ENDCHAR
STARTCHAR 0134
ENCODING 308
SWIDTH 600 0
DWIDTH 18 0
BBX 15 29 3 0
BITMAP
00E0
01F0
03B8
031C
060E
0000
0000
00E0
00E0
00E0
00E0
00E0
00E0
00E0
00E0
00E0
00E0
00E0
00E0
00E0
00E0
00E0
00E0
00E0
00E0
01C0
E3C0
FF80
7E00
ENDCHAR
STARTCHAR 0135
ENCODING 309
SWIDTH 600 0
DWIDTH 18 0
BBX 13 31 2 -7
BITMAP
01C0
03E0
0760
0E30
1C18
0000
0000
3FC0
3FC0
01C0
01C0
01C0
01C0
01C0
01C0
01C0
01C0
01C0
01C0
01C0
01C0
01C0
01C0
01C0
01C0
01C0
01C0
03C0
8780
FF00
FE00
ENDCHAR
STARTCHAR 0136
ENCODING 310
SWIDTH 600 0
DWIDTH 18 0
BBX 15 29 2 -7
BITMAP
E01C
E038
E070
E070
E0E0
E1C0
E3C0
E380
E700
EE00
EE00
FF00
FB80
F380
E1C0
E1C0
E0E0
E070
E070
E038
E03C
E01E
0000
0000
0380
0300
0300
0600
0600
ENDCHAR
STARTCHAR 0137
ENCODING 311
SWIDTH 600 0
DWIDTH 18 0
BBX 14 31 3 -7
BITMAP
E000
E000
E000
E000
E000
E000
E000
E03C
E070
E0F0
E1E0
E1C0
E380
E700
EE00
FF00
FB80
F3C0
E1C0
E0E0
E070
E070
E038
E01C
0000
0000
0380
0300
0700
0600
0400
ENDCHAR
STARTCHAR 0138
ENCODING 312
SWIDTH 600 0
DWIDTH 18 0
BBX 14 17 3 0
BITMAP
E03C
E070
E0F0
E1E0
E1C0
E380
E700
EE00
FF00
FB80
F3C0
E1C0
E0E0
E070
E070
E038
E01C
ENDCHAR
STARTCHAR 0139
ENCODING 313
SWIDTH 600 0
DWIDTH 18 0
BBX 12 29 3 0
BITMAP
1E00
1C00
3800
7000
6000
0000
0000
E000
E000
E000
E000
E000
E000
E000
E000
E000
E000
E000
E000
E000
E000
E000
E000
E000
E000
E000
FFF0
FFF0
FFF0
ENDCHAR
STARTCHAR 013A
ENCODING 314
SWIDTH 600 0
DWIDTH 18 0
BBX 14 31 2 0
BITMAP
00F0
00E0
01C0
0180
0300
0000
0000
7F80
7F80
0380
0380
0380
0380
0380
0380
0380
0380
0380
0380
0380
0380
0380
0380
0380
0380
0380
0380
0380
0380
FFFC
FFFC
ENDCHAR
STARTCHAR 013B
ENCODING 315
SWIDTH 600 0
DWIDTH 18 0
BBX 12 29 3 -7
BITMAP
E000
E000
E000
E000
E000
E000
E000
E000
E000
E000
E000
E000
E000
E000
E000
E000
E000
E000
E000
FFF0
FFF0
FFF0
0000
0000
0300
0700
0600
0600
0C00
ENDCHAR
STARTCHAR 013C
ENCODING 316
SWIDTH 600 0
DWIDTH 18 0
BBX 14 31 2 -7
BITMAP
7F80
7F80
0380
0380
0380
0380
0380
0380
0380
0380
0380
0380
0380
0380
0380
0380
0380
0380
0380
0380
0380
0380
FFFC
FFFC
0000
0000
0380
0380
0300
0300
0600
ENDCHAR
STARTCHAR 013D
ENCODING 317
SWIDTH 600 0
DWIDTH 18 0
BBX 12 22 3 0
BITMAP
E070
E070
E060
E060
E040
E000
E000
E000
E000
E000
E000
E000
E000
E000
E000
E000
E000
E000
E000
FFF0
FFF0
FFF0
ENDCHAR
STARTCHAR 013E
ENCODING 318
SWIDTH 600 0
DWIDTH 18 0
BBX 15 24 2 0
BITMAP
7F8E
7F8E
038C
038C
0398
0380
0380
0380
0380
0380
0380
0380
0380
0380
0380
0380
0380
0380
0380
0380
0380
0380
FFFC
FFFC
ENDCHAR
STARTCHAR 013F
ENCODING 319
SWIDTH 600 0
DWIDTH 18 0
BBX 12 22 3 0
BITMAP
E000
E000
E000
E000
E000
E000
E000
E000
E000
E070
E070
E070
E070
E000
E000
E000
E000
E000
E000
FFF0
FFF0
FFF0
ENDCHAR
STARTCHAR 0140
ENCODING 320
SWIDTH 600 0
DWIDTH 18 0
BBX 18 24 2 0
BITMAP
7F8000
7F8000
038000
038000
038000
038000
038000
038000
038000
038000
038180
0383C0
0383C0
038180
038000
038000
038000
038000
038000
038000
038000
038000
FFFC00
FFFC00
ENDCHAR
STARTCHAR 0141
ENCODING 321
SWIDTH 600 0
DWIDTH 18 0
BBX 15 22 2 0
BITMAP
1800
1800
1800
1800
1800
1800
1800
1800
1880
1BC0
1F80
1E00
7C00
F800
D800
1800
1800
1800
1800
1FFE
1FFE
1FFE
ENDCHAR
STARTCHAR 0142
ENCODING 322
SWIDTH 600 0
DWIDTH 18 0
BBX 14 24 2 0
BITMAP
7F80
7F80
0380
0380
0380
0380
0380
0380
0380
0390
03F8
03E0
03C0
0F80
3F80
1B80
1380
0380
0380
0380
0380
0380
FFFC
FFFC
ENDCHAR
STARTCHAR 0143
ENCODING 323
SWIDTH 600 0
DWIDTH 18 0
BBX 14 29 2 0
BITMAP
0070
00E0
01C0
0180
0300
0000
0000
F01C
F01C
F81C
D81C
DC1C
EC1C
EC1C
EE1C
E61C
E71C
E31C
E39C
E19C
E19C
E1DC
E0DC
E0FC
E07C
E07C
E03C
E03C
E03C
ENDCHAR
STARTCHAR 0144
ENCODING 324
SWIDTH 600 0
DWIDTH 18 0
BBX 14 24 2 0
BITMAP
0070
00E0
00C0
01C0
0300
0000
0000
E3E0
EFF0
FC78
F038
F01C
E01C
E01C
E01C
E01C
E01C
E01C
E01C
E01C
E01C
E01C
E01C
E01C
ENDCHAR
STARTCHAR 0145
ENCODING 325
SWIDTH 600 0
DWIDTH 18 0
BBX 14 29 2 -7
BITMAP
F01C
F01C
F81C
D81C
DC1C
EC1C
EC1C
EE1C
E61C
E71C
E31C
E39C
E19C
E19C
E1DC
E0DC
E0FC
E07C
E07C
E03C
E03C
E03C
0000
0000
0300
0700
0600
0600
0400
ENDCHAR
STARTCHAR 0146
ENCODING 326
SWIDTH 600 0
DWIDTH 18 0
BBX 14 24 2 -7
BITMAP
E3E0
EFF0
FC78
F038
F01C
E01C
E01C
E01C
E01C
E01C
E01C
E01C
E01C
E01C
E01C
E01C
E01C
0000
0000
0380
0300
0700
0600
0600
ENDCHAR
STARTCHAR 0147
ENCODING 327
SWIDTH 600 0
DWIDTH 18 0
BBX 14 29 2 0
BITMAP
3830
1C60
0FC0
07C0
0780
0000
0000
F01C
F01C
F81C
D81C
DC1C
EC1C
EC1C
EE1C
E61C
E71C
E31C
E39C
E19C
E19C
E1DC
E0DC
E0FC
E07C
E07C
E03C
E03C
E03C
ENDCHAR
STARTCHAR 0148
ENCODING 328
SWIDTH 600 0
DWIDTH 18 0
BBX 14 24 2 0
BITMAP
3830
1C60
0EE0
07C0
0380
0000
0000
E3E0
EFF0
FC78
F038
F01C
E01C
E01C
E01C
E01C
E01C
E01C
E01C
E01C
E01C
E01C
E01C
E01C
ENDCHAR
STARTCHAR 0149
ENCODING 329
SWIDTH 600 0
DWIDTH 18 0
BBX 18 22 -2 0
BITMAP
380000
380000
380000
700000
700000
763E00
667F00
66FF80
87C380
0781C0
0701C0
0701C0
0701C0
0701C0
0701C0
0701C0
0701C0
0701C0
0701C0
0701C0
0701C0
0701C0
ENDCHAR
STARTCHAR 014A
ENCODING 330
SWIDTH 600 0
DWIDTH 18 0
BBX 14 28 2 -6
BITMAP
F01C
F01C
F81C
D81C
DC1C
EC1C
EC1C
EE1C
E61C
E71C
E31C
E39C
E19C
E19C
E1DC
E0DC
E0FC
E07C
E07C
E03C
E03C
E03C
001C
001C
001C
0278
03F0
03E0
ENDCHAR
STARTCHAR 014B
ENCODING 331
SWIDTH 600 0
DWIDTH 18 0
BBX 14 24 2 -7
BITMAP
E3E0
EFF0
FC78
F038
F01C
E01C
E01C
E01C
E01C
E01C
E01C
E01C
E01C
E01C
E01C
E01C
E01C
001C
001C
001C
001C
0138
01F8
01F0
ENDCHAR
STARTCHAR 014C
ENCODING 332
SWIDTH 600 0
DWIDTH 18 0
BBX 16 26 1 0
BITMAP
0FF0
0FF0
0000
0000
07E0
1FF8
1E78
381C
700E
700E
700E
6006
E007
E007
E007
E007
E007
E007
6006
700E
700E
700E
381C
1E78
1FF0
07E0
ENDCHAR
STARTCHAR 014D
ENCODING 333
SWIDTH 600 0
DWIDTH 18 0
BBX 14 21 2 0
BITMAP
1FE0
1FE0
0000
0000
0FC0
3FF0
7CF8
7038
E01C
E01C
C01C
C00C
C00C
C00C
C01C
E01C
E01C
7038
7CF8
3FF0
0FC0
ENDCHAR
STARTCHAR 014E
ENCODING 334
SWIDTH 600 0
DWIDTH 18 0
BBX 16 28 1 0
BITMAP
1818
0C70
0FF0
07C0
0000
0000
07E0
1FF8
1E78
381C
700E
700E
700E
6006
E007
E007
E007
E007
E007
E007
6006
700E
700E
700E
381C
1E78
1FF0
07E0
ENDCHAR
STARTCHAR 014F
ENCODING 335
SWIDTH 600 0
DWIDTH 18 0
BBX 14 23 2 0
BITMAP
3030
18E0
1FE0
0F80
0000
0000
0FC0
3FF0
7CF8
7038
E01C
E01C
C01C
C00C
C00C
C00C
C01C
E01C
E01C
7038
7CF8
3FF0
0FC0
ENDCHAR
STARTCHAR 0150
ENCODING 336
SWIDTH 600 0
DWIDTH 18 0
BBX 16 29 1 0
BITMAP
039C
0738
0630
0C70
18E0
0000
0000
07E0
1FF8
1E78
381C
700E
700E
700E
6006
E007
E007
E007
E007
E007
E007
6006
700E
700E
700E
381C
1E78
1FF0
07E0
ENDCHAR
STARTCHAR 0151
ENCODING 337
SWIDTH 600 0
DWIDTH 18 0
BBX 14 24 2 0
BITMAP
0738
0E70
0C60
18E0
31C0
0000
0000
0FC0
3FF0
7CF8
7038
E01C
E01C
C01C
C00C
C00C
C00C
C01C
E01C
E01C
7038
7CF8
3FF0
0FC0
ENDCHAR
STARTCHAR 0152
ENCODING 338
SWIDTH 600 0
DWIDTH 18 0
BBX 16 22 1 0
BITMAP
0FFF
1FFF
38E0
70E0
70E0
60E0
60E0
E0E0
E0E0
E0FF
E0FF
E0E0
E0E0
E0E0
E0E0
60E0
60E0
70E0
70E0
38E0
1FFF
0FFF
ENDCHAR
STARTCHAR 0153
ENCODING 339
SWIDTH 600 0
DWIDTH 18 0
BBX 16 17 1 0
BITMAP
1E3C
7F7E
7767
E1C3
C1C3
C1C3
C1C3
C1FF
C1FF
C1C0
C1C0
C1C0
E1C0
E1E0
7373
7F7F
1E3E
ENDCHAR
STARTCHAR 0154
ENCODING 340
SWIDTH 600 0
DWIDTH 18 0
BBX 14 29 3 0
BITMAP
01E0
01C0
0380
0300
0600
0000
0000
FF00
FFC0
E1E0
E070
E070
E030
E030
E070
E070
E070
E1E0
FFC0
FF00
E380
E1C0
E1C0
E0E0
E0E0
E070
E038
E038
E01C
ENDCHAR
STARTCHAR 0155
ENCODING 341
SWIDTH 600 0
DWIDTH 18 0
BBX 15 24 2 0
BITMAP
0038
0070
00E0
00C0
0180
0000
0000
FE3E
FE7E
1EE6
0780
0700
0700
0700
0700
0600
0600
0600
0600
0600
0600
0600
FFF0
FFF0
ENDCHAR
STARTCHAR 0156
ENCODING 342
SWIDTH 600 0
DWIDTH 18 0
BBX 14 29 3 -7
BITMAP
FF00
FFC0
E1E0
E070
E070
E030
E030
E070
E070
E070
E1E0
FFC0
FF00
E380
E1C0
E1C0
E0E0
E0E0
E070
E038
E038
E01C
0000
0000
0300
0700
0600
0600
0C00
ENDCHAR
STARTCHAR 0157
ENCODING 343
SWIDTH 600 0
DWIDTH 18 0
BBX 15 24 2 -7
BITMAP
FE3E
FE7E
1EE6
0780
0700
0700
0700
0700
0600
0600
0600
0600
0600
0600
0600
FFF0
FFF0
0000
0000
0600
0600
0E00
0C00
0800
ENDCHAR
STARTCHAR 0158
ENCODING 344
SWIDTH 600 0
DWIDTH 18 0
BBX 14 29 3 0
BITMAP
6060
39C0
1F80
0F00
0F00
0000
0000
FF00
FFC0
E1E0
E070
E070
E030
E030
E070
E070
E070
E1E0
FFC0
FF00
E380
E1C0
E1C0
E0E0
E0E0
E070
E038
E038
E01C
ENDCHAR
STARTCHAR 0159
ENCODING 345
SWIDTH 600 0
DWIDTH 18 0
BBX 15 24 2 0
BITMAP
1C18
0E30
0760
03E0
01C0
0000
0000
FE3E
FE7E
1EE6
0780
0700
0700
0700
0700
0600
0600
0600
0600
0600
0600
0600
FFF0
FFF0
ENDCHAR
STARTCHAR 015A
ENCODING 346
SWIDTH 600 0
DWIDTH 18 0
BBX 13 29 3 0
BITMAP
00E0
01C0
01C0
0380
0700
0000
0000
0FE0
3FF0
7870
E000
E000
E000
E000
E000
7800
7E00
1F80
07E0
01F0
0070
0038
0038
0038
0038
8070
F1F0
FFE0
7F80
ENDCHAR
STARTCHAR 015B
ENCODING 347
SWIDTH 600 0
DWIDTH 18 0
BBX 12 24 3 0
BITMAP
00E0
01C0
0380
0300
0600
0000
0000
1FC0
3FF0
7860
E000
E000
7000
7800
3E00
0F80
03E0
00F0
0070
0070
8070
F1E0
FFE0
3F80
ENDCHAR
STARTCHAR 015C
ENCODING 348
SWIDTH 600 0
DWIDTH 18 0
BBX 13 29 3 0
BITMAP
0700
0F80
1DC0
18E0
7070
0000
0000
0FE0
3FF0
7870
E000
E000
E000
E000
E000
7800
7E00
1F80
07E0
01F0
0070
0038
0038
0038
0038
8070
F1F0
FFE0
7F80
ENDCHAR
STARTCHAR 015D
ENCODING 349
SWIDTH 600 0
DWIDTH 18 0
BBX 12 24 3 0
BITMAP
0F00
0F00
1D80
38C0
7060
0000
0000
1FC0
3FF0
7860
E000
E000
7000
7800
3E00
0F80
03E0
00F0
0070
0070
8070
F1E0
FFE0
3F80
ENDCHAR
STARTCHAR 015E
ENCODING 350
SWIDTH 600 0
DWIDTH 18 0
BBX 13 29 3 -7
BITMAP
0FE0
3FF0
7870
E000
E000
E000
E000
E000
7800
7E00
1F80
07E0
01F0
0070
0038
0038
0038
0038
8070
F1F0
FFE0
7F80
0600
0E00
0700
0180
0180
1F00
1E00
ENDCHAR
STARTCHAR 015F
ENCODING 351
SWIDTH 600 0
DWIDTH 18 0
BBX 12 24 3 -7
BITMAP
1FC0
3FF0
7860
E000
E000
7000
7800
3E00
0F80
03E0
00F0
0070
0070
8070
F1E0
FFE0
3F80
0600
0E00
0780
0180
0180
1F80
1E00
ENDCHAR
STARTCHAR 0160
ENCODING 352
SWIDTH 600 0
DWIDTH 18 0
BBX 13 29 3 0
BITMAP
7070
38E0
1DC0
0F80
0700
0000
0000
0FE0
3FF0
7870
E000
E000
E000
E000
E000
7800
7E00
1F80
07E0
01F0
0070
0038
0038
0038
0038
8070
F1F0
FFE0
7F80
ENDCHAR
STARTCHAR 0161
ENCODING 353
SWIDTH 600 0
DWIDTH 18 0
BBX 12 24 3 0
BITMAP
7060
38C0
1F80
0F80
0F00
0000
0000
1FC0
3FF0
7860
E000
E000
7000
7800
3E00
0F80
03E0
00F0
0070
0070
8070
F1E0
FFE0
3F80
ENDCHAR
STARTCHAR 0162
ENCODING 354
SWIDTH 600 0
DWIDTH 18 0
BBX 16 29 1 -7
BITMAP
FFFF
FFFF
0180
0180
0180
0180
0180
0180
0180
0180
0180
0180
0180
0180
0180
0180
0180
0180
0180
0180
0180
0180
0180
0380
01C0
0060
0060
07C0
0780
ENDCHAR
STARTCHAR 0163
ENCODING 355
SWIDTH 600 0
DWIDTH 18 0
BBX 13 29 2 -7
BITMAP
0600
0E00
0E00
0E00
0E00
FFF8
FFF8
0E00
0E00
0E00
0E00
0E00
0E00
0E00
0E00
0E00
0E00
0E00
0E00
0788
07F8
01F8
00C0
01C0
00F0
0030
0030
03F0
03C0
ENDCHAR
STARTCHAR 0164
ENCODING 356
SWIDTH 600 0
DWIDTH 18 0
BBX 16 29 1 0
BITMAP
1818
0E70
07E0
03C0
03C0
0000
0000
FFFF
FFFF
0180
0180
0180
0180
0180
0180
0180
0180
0180
0180
0180
0180
0180
0180
0180
0180
0180
0180
0180
0180
ENDCHAR
STARTCHAR 0165
ENCODING 357
SWIDTH 600 0
DWIDTH 18 0
BBX 13 24 2 0
BITMAP
0018
0018
0038
0630
0E30
0E00
0E00
FFF8
FFF8
0E00
0E00
0E00
0E00
0E00
0E00
0E00
0E00
0E00
0E00
0E00
0E00
0788
07F8
01F8
ENDCHAR
STARTCHAR 0166
ENCODING 358
SWIDTH 600 0
DWIDTH 18 0
BBX 16 22 1 0
BITMAP
FFFF
FFFF
0180
0180
0180
0180
0180
0180
0180
0180
3FFC
3FFC
0180
0180
0180
0180
0180
0180
0180
0180
0180
0180
ENDCHAR
STARTCHAR 0167
ENCODING 359
SWIDTH 600 0
DWIDTH 18 0
BBX 13 22 2 0
BITMAP
0600
0E00
0E00
0E00
0E00
FFF8
FFF8
0E00
0E00
0E00
0E00
FFF8
FFF8
0E00
0E00
0E00
0E00
0E00
0E00
0788
07F8
01F8
ENDCHAR
STARTCHAR 0168
ENCODING 360
SWIDTH 600 0
DWIDTH 18 0
BBX 14 28 2 0
BITMAP
1E10
3FB0
33F0
21E0
0000
0000
E01C
E01C
E01C
E01C
E01C
E01C
E01C
E01C
E01C
E01C
E01C
E01C
E01C
E01C
E01C
E01C
E01C
6018
7038
7878
3FF0
0FC0
ENDCHAR
STARTCHAR 0169
ENCODING 361
SWIDTH 600 0
DWIDTH 18 0
BBX 14 23 2 0
BITMAP
1E10
3FB0
33F0
21E0
0000
0000
E01C
E01C
E01C
E01C
E01C
E01C
E01C
E01C
E01C
E01C
E01C
E01C
E03C
703C
78FC
3FDC
1F9C
ENDCHAR
STARTCHAR 016A
ENCODING 362
SWIDTH 600 0
DWIDTH 18 0
BBX 14 26 2 0
BITMAP
1FE0
1FE0
0000
0000
E01C
E01C
E01C
E01C
E01C
E01C
E01C
E01C
E01C
E01C
E01C
E01C
E01C
E01C
E01C
E01C
E01C
6018
7038
7878
3FF0
0FC0
ENDCHAR
STARTCHAR 016B
ENCODING 363
SWIDTH 600 0
DWIDTH 18 0
BBX 14 21 2 0
BITMAP
1FE0
1FE0
0000
0000
E01C
E01C
E01C
E01C
E01C
E01C
E01C
E01C
E01C
E01C
E01C
E01C
E03C
703C
78FC
3FDC
1F9C
ENDCHAR
STARTCHAR 016C
ENCODING 364
SWIDTH 600 0
DWIDTH 18 0
BBX 14 28 2 0
BITMAP
3030
18E0
1FE0
0F80
0000
0000
E01C
E01C
E01C
E01C
E01C
E01C
E01C
E01C
E01C
E01C
E01C
E01C
E01C
E01C
E01C
E01C
E01C
6018
7038
7878
3FF0
0FC0
ENDCHAR
STARTCHAR 016D
ENCODING 365
SWIDTH 600 0
DWIDTH 18 0
BBX 14 23 2 0
BITMAP
3030
18E0
1FE0
0F80
0000
0000
E01C
E01C
E01C
E01C
E01C
E01C
E01C
E01C
E01C
E01C
E01C
E01C
E03C
703C
78FC
3FDC
1F9C
ENDCHAR
STARTCHAR 016E
ENCODING 366
SWIDTH 600 0
DWIDTH 18 0
BBX 14 31 2 0
BITMAP
0780
0FC0
0CC0
0840
0CC0
0FC0
0780
0000
0000
E01C
E01C
E01C
E01C
E01C
E01C
E01C
E01C
E01C
E01C
E01C
E01C
E01C
E01C
E01C
E01C
E01C
6018
7038
7878
3FF0
0FC0
ENDCHAR
STARTCHAR 016F
ENCODING 367
SWIDTH 600 0
DWIDTH 18 0
BBX 14 26 2 0
BITMAP
0780
0FC0
0CC0
0840
0CC0
0FC0
0780
0000
0000
E01C
E01C
E01C
E01C
E01C
E01C
E01C
E01C
E01C
E01C
E01C
E01C
E03C
703C
78FC
3FDC
1F9C
ENDCHAR
STARTCHAR 0170
ENCODING 368
SWIDTH 600 0
DWIDTH 18 0
BBX 14 29 2 0
BITMAP
0738
0E70
0C60
18E0
31C0
0000
0000
E01C
E01C
E01C
E01C
E01C
E01C
E01C
E01C
E01C
E01C
E01C
E01C
E01C
E01C
E01C
E01C
E01C
6018
7038
7878
3FF0
0FC0
ENDCHAR
STARTCHAR 0171
ENCODING 369
SWIDTH 600 0
DWIDTH 18 0
BBX 14 24 2 0
BITMAP
0738
0E70
0C60
18E0
31C0
0000
0000
E01C
E01C
E01C
E01C
E01C
E01C
E01C
E01C
E01C
E01C
E01C
E01C
E03C
703C
78FC
3FDC
1F9C
ENDCHAR
STARTCHAR 0172
ENCODING 370
SWIDTH 600 0
DWIDTH 18 0
BBX 14 29 2 -7
BITMAP
E01C
E01C
E01C
E01C
E01C
E01C
E01C
E01C
E01C
E01C
E01C
E01C
E01C
E01C
E01C
E01C
E01C
6018
7038
7878
3FF0
0FC0
0380
0300
0600
0600
0700
07C0
03C0
ENDCHAR
STARTCHAR 0173
ENCODING 371
SWIDTH 600 0
DWIDTH 18 0
BBX 14 24 2 -7
BITMAP
E01C
E01C
E01C
E01C
E01C
E01C
E01C
E01C
E01C
E01C
E01C
E01C
E03C
703C
78FC
3FDC
1F9C
0018
0030
0070
0060
0070
003C
003C
ENDCHAR
STARTCHAR 0174
ENCODING 372
SWIDTH 600 0
DWIDTH 18 0
BBX 16 29 1 0
BITMAP
03C0
03C0
06E0
0C70
1818
0000
0000
C003
C003
C003
E007
E007
E187
E3C7
63C7
63C6
63C6
6366
6666
6666
6666
7666
7C36
3C3E
3C3E
3C3C
3C1C
381C
381C
ENDCHAR
STARTCHAR 0175
ENCODING 373
SWIDTH 600 0
DWIDTH 18 0
BBX 18 24 0 0
BITMAP
01E000
01E000
037000
073800
0C0C00
000000
000000
E001C0
600180
600180
61E180
71E380
71E380
71E380
33F300
333300
333300
333300
3F3F00
3E1F00
1E1E00
1E1E00
1E1E00
1C0E00
ENDCHAR
STARTCHAR 0176
ENCODING 374
SWIDTH 600 0
DWIDTH 18 0
BBX 16 29 1 0
BITMAP
03C0
03C0
06E0
0C70
1818
0000
0000
E007
700E
700E
381C
381C
1818
1C38
0C30
0E70
0660
07E0
03C0
03C0
0180
0180
0180
0180
0180
0180
0180
0180
0180
ENDCHAR
STARTCHAR 0177
ENCODING 375
SWIDTH 600 0
DWIDTH 18 0
BBX 16 31 1 -7
BITMAP
03C0
03C0
06E0
0C70
1818
0000
0000
E007
700E
700E
300C
381C
181C
1C18
1C38
0C38
0E30
0670
0760
0760
03E0
03C0
01C0
01C0
0180
0380
0380
0700
0F00
7E00
7C00
ENDCHAR
STARTCHAR 0178
ENCODING 376
SWIDTH 600 0
DWIDTH 18 0
BBX 16 28 1 0
BITMAP
1C38
1C38
1C38
1C38
0000
0000
E007
700E
700E
381C
381C
1818
1C38
0C30
0E70
0660
07E0
03C0
03C0
0180
0180
0180
0180
0180
0180
0180
0180
0180
ENDCHAR
STARTCHAR 0179
ENCODING 377
SWIDTH 600 0
DWIDTH 18 0
BBX 12 29 3 0
BITMAP
00E0
01C0
0180
0380
0600
0000
0000
FFF0
FFF0
0070
0060
00E0
00C0
01C0
0180
0380
0700
0700
0E00
0E00
1C00
1C00
3800
3800
7000
6000
E000
FFF0
FFF0
ENDCHAR
STARTCHAR 017A
ENCODING 378
SWIDTH 600 0
DWIDTH 18 0
BBX 12 24 3 0
BITMAP
00E0
01C0
0380
0300
0600
0000
0000
FFF0
FFF0
0070
00E0
00E0
01C0
0380
0700
0700
0E00
1C00
3800
3800
7000
E000
FFF0
FFF0
ENDCHAR
STARTCHAR 017B
ENCODING 379
SWIDTH 600 0
DWIDTH 18 0
BBX 12 29 3 0
BITMAP
0700
0F00
0F00
0700
0000
0000
0000
FFF0
FFF0
0070
0060
00E0
00C0
01C0
0180
0380
0700
0700
0E00
0E00
1C00
1C00
3800
3800
7000
6000
E000
FFF0
FFF0
ENDCHAR
STARTCHAR 017C
ENCODING 380
SWIDTH 600 0
DWIDTH 18 0
BBX 12 24 3 0
BITMAP
0700
0F00
0F00
0700
0000
0000
0000
FFF0
FFF0
0070
00E0
00E0
01C0
0380
0700
0700
0E00
1C00
3800
3800
7000
E000
FFF0
FFF0
ENDCHAR
STARTCHAR 017D
ENCODING 381
SWIDTH 600 0
DWIDTH 18 0
BBX 12 29 3 0
BITMAP
7060
38C0
1DC0
0F80
0700
0000
0000
FFF0
FFF0
0070
0060
00E0
00C0
01C0
0180
0380
0700
0700
0E00
0E00
1C00
1C00
3800
3800
7000
6000
E000
FFF0
FFF0
ENDCHAR
STARTCHAR 017E
ENCODING 382
SWIDTH 600 0
DWIDTH 18 0
BBX 12 24 3 0
BITMAP
7060
38C0
1D80
0F80
0700
0000
0000
FFF0
FFF0
0070
00E0
00E0
01C0
0380
0700
0700
0E00
1C00
3800
3800
7000
E000
FFF0
FFF0
ENDCHAR
STARTCHAR 017F
ENCODING 383
SWIDTH 600 0
DWIDTH 18 0
BBX 9 24 7 0
BITMAP
1F80
7F80
F180
E000
C000
C000
C000
C000
C000
C000
C000
C000
C000
C000
C000
C000
C000
C000
C000
C000
C000
C000
C000
C000
ENDCHAR
STARTCHAR 0180
ENCODING 384
SWIDTH 600 0
DWIDTH 18 0
BBX 16 24 0 0
BITMAP
3800
3800
3800
FFE0
FFE0
3800
3800
39F0
3BFC
3F3E
3C0E
3C07
3807
3807
3803
3803
3803
3807
3807
3C07
3C0E
3F3E
3BFC
39F0
ENDCHAR
STARTCHAR 0181
ENCODING 385
SWIDTH 600 0
DWIDTH 18 0
BBX 17 22 0 0
BITMAP
3FF800
7FFE00
F61F00
E60700
E60300
060300
060300
060700
060E00
07FC00
07FC00
061F00
060700
060380
060380
060380
060380
060380
060700
061F00
07FE00
07F800
ENDCHAR
STARTCHAR 0182
ENCODING 386
SWIDTH 600 0
DWIDTH 18 0
BBX 13 22 3 0
BITMAP
FFF0
FFF0
C000
C000
C000
C000
C000
C000
C000
FFC0
FFF0
C0F0
C038
C038
C018
C018
C018
C038
C038
C0F0
FFE0
FFC0
ENDCHAR
STARTCHAR 0183
ENCODING 387
SWIDTH 600 0
DWIDTH 18 0
BBX 14 24 2 0
BITMAP
FFF8
FFF8
E000
E000
E000
E000
E000
E7C0
EFF0
FCF8
F038
F01C
E01C
E01C
E00C
E00C
E00C
E01C
E01C
F01C
F038
FCF8
EFF0
E7C0
ENDCHAR
STARTCHAR 0184
ENCODING 388
SWIDTH 600 0
DWIDTH 18 0
BBX 13 22 3 0
BITMAP
C000
C000
C000
C000
C000
C000
C000
C000
C000
FFC0
FFF0
C070
C038
C038
C018
C018
E018
E038
F038
78F0
3FE0
1F80
ENDCHAR
STARTCHAR 0185
ENCODING 389
SWIDTH 600 0
DWIDTH 18 0
BBX 14 24 2 0
BITMAP
E000
E000
E000
E000
E000
E000
E000
E7C0
EFF0
FCF8
F038
F01C
E01C
E01C
E00C
E00C
E00C
601C
601C
701C
7038
3CF8
1FF0
0FC0
ENDCHAR
STARTCHAR 0186
ENCODING 390
SWIDTH 600 0
DWIDTH 18 0
BBX 15 22 1 0
BITMAP
3F80
FFE0
70F0
4038
001C
001C
000C
000E
000E
000E
000E
000E
000E
000E
000E
000C
001C
001C
0038
70F0
7FE0
3F80
ENDCHAR
STARTCHAR 0187
ENCODING 391
SWIDTH 600 0
DWIDTH 18 0
BBX 17 27 2 0
BITMAP
000380
000780
000E80
000E00
000E00
03FE00
0FFC00
1E1C00
380400
700000
700000
600000
E00000
E00000
E00000
E00000
E00000
E00000
E00000
E00000
600000
700000
700000
380000
1E1C00
0FFC00
03F800
ENDCHAR
STARTCHAR 0188
ENCODING 392
SWIDTH 600 0
DWIDTH 18 0
BBX 15 24 3 0
BITMAP
001E
003E
003A
0030
0030
0030
0030
0FF0
3FF0
7C70
7000
E000
E000
C000
C000
C000
C000
C000
E000
E000
F000
7C70
3FF0
0FE0
ENDCHAR
STARTCHAR 0189
ENCODING 393
SWIDTH 600 0
DWIDTH 18 0
BBX 17 22 0 0
BITMAP
3FE000
3FF800
387C00
381E00
380F00
380700
380300
380380
380380
380380
FF8380
FF8380
380380
380380
380380
380700
380700
380F00
381E00
387C00
3FF800
3FE000
ENDCHAR
STARTCHAR 018A
ENCODING 394
SWIDTH 600 0
DWIDTH 18 0
BBX 17 22 0 0
BITMAP
3FF000
7FFC00
FE3E00
EE0E00
EE0700
6E0700
0E0300
0E0380
0E0380
0E0380
0E0380
0E0380
0E0380
0E0380
0E0380
0E0300
0E0700
0E0700
0E0E00
0E3C00
0FF800
0FE000
ENDCHAR
STARTCHAR 018B
ENCODING 395
SWIDTH 600 0
DWIDTH 18 0
BBX 13 22 2 0
BITMAP
7FF8
7FF8
0038
0038
0038
0038
0038
0038
0038
1FF8
3FF8
7838
E038
E038
C038
C038
C038
E038
E038
7838
3FF8
1FF8
ENDCHAR
STARTCHAR 018C
ENCODING 396
SWIDTH 600 0
DWIDTH 18 0
BBX 14 24 2 0
BITMAP
7FFC
7FFC
001C
001C
001C
001C
001C
0F9C
3FDC
7CFC
703C
E03C
E01C
E01C
C01C
C01C
C01C
E01C
E01C
E03C
703C
7CFC
3FDC
0F9C
ENDCHAR
STARTCHAR 018D
ENCODING 397
SWIDTH 600 0
DWIDTH 18 0
BBX 14 24 2 -8
BITMAP
0FC0
3FF0
7CF8
703C
E01C
E01C
C00C
C00C
C01C
E01C
E01C
7038
78F0
3FE0
0F00
07C0
01E0
00E0
0070
0070
4070
78F0
FFE0
1F80
ENDCHAR
STARTCHAR 018E
ENCODING 398
SWIDTH 600 0
DWIDTH 18 0
BBX 12 22 3 0
BITMAP
FFF0
FFF0
0070
0070
0070
0070
0070
0070
0070
FFF0
FFF0
0070
0070
0070
0070
0070
0070
0070
0070
0070
FFF0
FFF0
ENDCHAR
STARTCHAR 018F
ENCODING 399
SWIDTH 600 0
DWIDTH 18 0
BBX 16 22 1 0
BITMAP
0FC0
7FF0
7878
401C
000E
000E
0006
0006
0007
0007
FFFF
FFFF
E007
E007
E006
E00E
600E
700E
701C
3E78
1FF0
07C0
ENDCHAR
STARTCHAR 0190
ENCODING 400
SWIDTH 600 0
DWIDTH 18 0
BBX 14 22 2 0
BITMAP
0FE0
3FFC
787C
7008
E000
E000
E000
7000
3C00
1FF0
1FF0
7E00
7000
E000
E000
C000
C000
E000
F004
7C3C
3FFC
0FF0
ENDCHAR
STARTCHAR 0191
ENCODING 401
SWIDTH 600 0
DWIDTH 18 0
BBX 16 29 1 -7
BITMAP
03FF
03FF
0300
0300
0300
0300
0300
0300
0300
03FE
03FE
0300
0300
0300
0300
0300
0300
0300
0300
0300
0300
0300
0300
8300
E300
C700
E700
FE00
3C00
ENDCHAR
STARTCHAR 0192
ENCODING 402
SWIDTH 600 0
DWIDTH 18 0
BBX 15 31 2 -7
BITMAP
00FE
01FE
03C6
0380
0380
0380
0380
7FFC
7FFC
0380
0380
0380
0380
0380
0380
0380
0380
0380
0380
0380
0380
0380
0380
0380
0380
8380
E380
C700
E700
7F00
3C00
ENDCHAR
STARTCHAR 0193
ENCODING 403
SWIDTH 600 0
DWIDTH 18 0
BBX 18 27 1 0
BITMAP
0003C0
0007C0
000740
000E00
000E00
03FE00
0FFE00
1F1C00
3C0000
380000
700000
700000
600000
600000
E00000
E0FE00
E0FE00
E00E00
E00E00
600E00
700E00
700E00
780E00
3C0E00
1F1E00
0FFE00
03F800
ENDCHAR
STARTCHAR 0194
ENCODING 404
SWIDTH 600 0
DWIDTH 18 0
BBX 16 29 1 -7
BITMAP
E007
6006
700E
700E
300C
381C
381C
1818
1C38
0C30
0E30
0E70
0660
0760
07E0
03C0
03C0
0380
0180
03C0
03C0
07E0
0660
0660
0E70
0E70
0760
07E0
03C0
ENDCHAR
STARTCHAR 0195
ENCODING 405
SWIDTH 600 0
DWIDTH 18 0
BBX 15 24 2 0
BITMAP
C000
C000
C000
C000
C000
C000
C000
DE0E
FF0E
E70E
C30E
C30E
C30E
C30E
C30E
C30E
C30E
C30E
C30E
C30E
C38C
C39C
C1FC
C0F0
ENDCHAR
STARTCHAR 0196
ENCODING 406
SWIDTH 600 0
DWIDTH 18 0
BBX 8 22 6 0
BITMAP
C0
C0
C0
C0
C0
C0
C0
C0
C0
C0
C0
C0
C0
C0
C0
C0
C0
C0
E0
F1
7F
3F
ENDCHAR
STARTCHAR 0197
ENCODING 407
SWIDTH 600 0
DWIDTH 18 0
BBX 12 22 3 0
BITMAP
FFF0
FFF0
0600
0600
0600
0600
0600
0600
0600
7FE0
7FE0
0600
0600
0600
0600
0600
0600
0600
0600
0600
FFF0
FFF0
ENDCHAR
STARTCHAR 0198
ENCODING 408
SWIDTH 600 0
DWIDTH 18 0
BBX 15 22 2 0
BITMAP
E01E
E03E
E07A
E070
E0E0
E1C0
E1C0
E380
E700
EF00
EE00
FF00
FB80
F380
E1C0
E1C0
E0E0
E070
E070
E038
E03C
E01E
ENDCHAR
STARTCHAR 0199
ENCODING 409
SWIDTH 600 0
DWIDTH 18 0
BBX 14 24 3 0
BITMAP
3C00
7C00
F400
E000
E000
E000
E000
E03C
E070
E0F0
E1E0
E1C0
E380
E700
EE00
FF00
FB80
F3C0
E1C0
E0E0
E070
E070
E038
E01C
ENDCHAR
STARTCHAR 019A
ENCODING 410
SWIDTH 600 0
DWIDTH 18 0
BBX 14 24 2 0
BITMAP
7F80
7F80
0380
0380
0380
0380
0380
0380
0380
0380
0380
3FF8
3FF8
0380
0380
0380
0380
0380
0380
0380
0380
0380
FFFC
FFFC
ENDCHAR
STARTCHAR 019B
ENCODING 411
SWIDTH 600 0
DWIDTH 18 0
BBX 16 24 1 0
BITMAP
3C00
3E00
4F00
0770
07F0
1F80
1D80
01C0
01C0
03C0
03E0
07E0
0660
0E70
0E70
0C30
1C38
1838
381C
381C
700C
700E
600F
E007
ENDCHAR
STARTCHAR 019C
ENCODING 412
SWIDTH 600 0
DWIDTH 18 0
BBX 16 22 1 0
BITMAP
E187
E187
E187
E187
E187
E187
E187
E187
E187
E187
E187
E187
E187
E187
E187
E187
E187
6387
638F
77FF
7EFF
3CF3
ENDCHAR
STARTCHAR 019D
ENCODING 413
SWIDTH 600 0
DWIDTH 18 0
BBX 17 28 -1 -6
BITMAP
1E0380
1E0380
1F0380
1B0380
1B8380
1D8380
1D8380
1DC380
1CC380
1CE380
1C6380
1C7380
1C3380
1C3380
1C3B80
1C1B80
1C1F80
1C0F80
1C0F80
1C0780
1C0780
1C0780
1C0000
1C0000
1C0000
B80000
F80000
F00000
ENDCHAR
STARTCHAR 019E
ENCODING 414
SWIDTH 600 0
DWIDTH 18 0
BBX 14 24 2 -7
BITMAP
E3E0
EFF0
FC78
F038
F01C
E01C
E01C
E01C
E01C
E01C
E01C
E01C
E01C
E01C
E01C
E01C
E01C
001C
001C
001C
001C
001C
001C
001C
ENDCHAR
STARTCHAR 019F
ENCODING 415
SWIDTH 600 0
DWIDTH 18 0
BBX 16 22 1 0
BITMAP
07E0
1FF8
1E78
381C
700E
700E
700E
6006
E007
E007
FFFF
FFFF
E007
E007
6006
700E
700E
700E
381C
1E78
1FF0
07E0
ENDCHAR
STARTCHAR 01A0
ENCODING 416
SWIDTH 600 0
DWIDTH 18 0
BBX 17 25 1 0
BITMAP
000180
000180
000180
07E180
1FF980
1E7B80
381F00
700E00
700E00
700E00
600600
E00700
E00700
E00700
E00700
E00700
E00700
600600
700E00
700E00
700E00
381C00
1E7800
1FF000
07E000
ENDCHAR
STARTCHAR 01A1
ENCODING 417
SWIDTH 600 0
DWIDTH 18 0
BBX 16 21 2 0
BITMAP
0002
0007
0007
0007
0FC6
3FF6
7CFC
7038
E01C
E01C
C01C
C00C
C00C
C00C
C01C
E01C
E01C
7038
7CF8
3FF0
0FC0
ENDCHAR
STARTCHAR 01A2
ENCODING 418
SWIDTH 1200 0
DWIDTH 36 0
BBX 29 22 3 0
BITMAP
03F81FC0
0FFE7FE0
3E1FF1F0
3807C070
70038038
7001C038
E001C038
E001C038
E001C038
E000C038
C000C038
C000C038
E001C038
E001C038
E001C038
E001C038
70018038
70038038
38070038
3E1F0038
0FFC0038
03F00038
ENDCHAR
STARTCHAR 01A3
ENCODING 419
SWIDTH 600 0
DWIDTH 18 0
BBX 15 24 1 -7
BITMAP
1E3C
3F7E
73EE
61C6
E1C6
E1C6
E1C6
E1C6
E1C6
E1C6
E1C6
E1C6
E1C6
6186
7386
3F06
1E06
0006
0006
0006
0006
0006
0006
0006
ENDCHAR
STARTCHAR 01A4
ENCODING 420
SWIDTH 600 0
DWIDTH 18 0
BBX 16 22 0 0
BITMAP
3FF8
7FFE
EE1E
EE07
EE07
EE03
0E03
0E03
0E07
0E07
0E0E
0FFE
0FF8
0E00
0E00
0E00
0E00
0E00
0E00
0E00
0E00
0E00
ENDCHAR
STARTCHAR 01A5
ENCODING 421
SWIDTH 600 0
DWIDTH 18 0
BBX 14 31 2 -7
BITMAP
3C00
7C00
7400
E000
E000
E000
E000
E7C0
EFF0
FCF8
F038
F01C
E01C
E01C
E00C
E00C
E00C
E01C
E01C
F01C
F038
FCF8
EFF0
E7C0
E000
E000
E000
E000
E000
E000
E000
ENDCHAR
STARTCHAR 01A6
ENCODING 422
SWIDTH 600 0
DWIDTH 18 0
BBX 14 25 3 -3
BITMAP
E000
E000
E000
FF00
FFC0
E1E0
E070
E070
E030
E030
E070
E070
E070
E1E0
FFC0
FF00
E380
E380
E1C0
E0E0
E0E0
E070
0070
0038
001C
ENDCHAR
STARTCHAR 01A7
ENCODING 423
SWIDTH 600 0
DWIDTH 18 0
BBX 13 22 2 0
BITMAP
3F80
7FE0
70F0
0038
0038
0038
0038
0038
00F0
03F0
0FC0
3F00
7C00
7000
E000
E000
E000
E000
7008
7C78
3FF8
0FF0
ENDCHAR
STARTCHAR 01A8
ENCODING 424
SWIDTH 600 0
DWIDTH 18 0
BBX 12 17 3 0
BITMAP
3F80
FFC0
61E0
0070
0070
00E0
01E0
07C0
1F00
7C00
F000
E000
E000
E010
78F0
7FF0
1FE0
ENDCHAR
STARTCHAR 01A9
ENCODING 425
SWIDTH 600 0
DWIDTH 18 0
BBX 12 22 3 0
BITMAP
FFE0
FFE0
E000
7000
3800
3800
1C00
0E00
0700
0700
0380
0700
0700
0E00
1C00
1C00
3800
7000
7000
E000
FFF0
FFF0
ENDCHAR
STARTCHAR 01AA
ENCODING 426
SWIDTH 600 0
DWIDTH 18 0
BBX 14 31 2 -7
BITMAP
3C00
FF00
E700
C300
E300
FF00
7F00
0300
0300
0300
0300
0300
0300
0300
0300
0300
0300
0300
0300
0300
0300
0300
0300
0300
0300
0300
0300
0380
03C4
01FC
00FC
ENDCHAR
STARTCHAR 01AB
ENCODING 427
SWIDTH 600 0
DWIDTH 18 0
BBX 13 29 2 -7
BITMAP
0600
0E00
0E00
0E00
0E00
FFF8
FFF8
0E00
0E00
0E00
0E00
0E00
0E00
0E00
0E00
0E00
0E00
0E00
0E00
0788
07F8
01F8
0018
0018
0018
0018
00B8
00F8
00F0
ENDCHAR
STARTCHAR 01AC
ENCODING 428
SWIDTH 600 0
DWIDTH 18 0
BBX 17 22 0 0
BITMAP
3FFF80
7FFF80
F0C000
E0C000
E0C000
00C000
00C000
00C000
00C000
00C000
00C000
00C000
00C000
00C000
00C000
00C000
00C000
00C000
00C000
00C000
00C000
00C000
ENDCHAR
STARTCHAR 01AD
ENCODING 429
SWIDTH 600 0
DWIDTH 18 0
BBX 13 24 2 0
BITMAP
03E0
07E0
0F20
0E00
0E00
0E00
0E00
FFF8
FFF8
0E00
0E00
0E00
0E00
0E00
0E00
0E00
0E00
0E00
0E00
0E00
0E00
0788
07F8
01F8
ENDCHAR
STARTCHAR 01AE
ENCODING 430
SWIDTH 600 0
DWIDTH 18 0
BBX 16 27 1 -5
BITMAP
FFFF
FFFF
0180
0180
0180
0180
0180
0180
0180
0180
0180
0180
0180
0180
0180
0180
0180
0180
0180
0180
0180
0180
0180
0180
01C0
01F8
00F8
ENDCHAR
STARTCHAR 01AF
ENCODING 431
SWIDTH 600 0
DWIDTH 18 0
BBX 17 25 2 0
BITMAP
000100
000380
000380
E01F80
E01F80
E01F00
E01E00
E01C00
E01C00
E01C00
E01C00
E01C00
E01C00
E01C00
E01C00
E01C00
E01C00
E01C00
E01C00
E01C00
601800
703800
787800
3FF000
0FC000
ENDCHAR
STARTCHAR 01B0
ENCODING 432
SWIDTH 600 0
DWIDTH 18 0
BBX 17 22 2 0
BITMAP
000300
000300
000380
000300
000300
E01F00
E01E00
E01C00
E01C00
E01C00
E01C00
E01C00
E01C00
E01C00
E01C00
E01C00
E01C00
E03C00
703C00
78FC00
3FDC00
1F9C00
ENDCHAR
STARTCHAR 01B1
ENCODING 433
SWIDTH 600 0
DWIDTH 18 0
BBX 16 22 1 -1
BITMAP
FC3F
FC3F
1C38
1818
381C
300C
700E
700E
6006
6006
6006
E007
E007
6007
6006
700E
700E
700E
381C
3E7C
1FF8
07E0
ENDCHAR
STARTCHAR 01B2
ENCODING 434
SWIDTH 600 0
DWIDTH 18 0
BBX 14 22 2 0
BITMAP
E1F0
E1F8
E13C
E01C
E01C
E01C
E01C
E01C
E01C
E01C
E01C
E01C
E01C
E01C
E01C
E01C
E01C
6018
7038
7878
3FF0
0FC0
ENDCHAR
STARTCHAR 01B3
ENCODING 435
SWIDTH 600 0
DWIDTH 18 0
BBX 17 22 1 0
BITMAP
E00780
700F80
700E80
381C00
381C00
183800
1C3800
0C3000
0E7000
066000
07E000
03C000
03C000
018000
018000
018000
018000
018000
018000
018000
018000
018000
ENDCHAR
STARTCHAR 01B4
ENCODING 436
SWIDTH 600 0
DWIDTH 18 0
BBX 16 24 1 -7
BITMAP
E007
600F
700F
300C
381C
381C
1818
1C38
0C30
0C30
0E70
0660
0760
03E0
03C0
03C0
0180
0180
0380
0300
0700
0E00
7E00
7800
ENDCHAR
STARTCHAR 01B5
ENCODING 437
SWIDTH 600 0
DWIDTH 18 0
BBX 12 22 3 0
BITMAP
FFF0
FFF0
0070
0060
00E0
00C0
01C0
0180
0380
0300
FFF0
FFF0
0E00
1C00
1C00
3800
3800
7000
6000
E000
FFF0
FFF0
ENDCHAR
STARTCHAR 01B6
ENCODING 438
SWIDTH 600 0
DWIDTH 18 0
BBX 12 17 3 0
BITMAP
FFF0
FFF0
0070
00E0
01C0
01C0
0380
7FF0
7FF0
0E00
1C00
3800
3800
7000
E000
FFF0
FFF0
ENDCHAR
STARTCHAR 01B7
ENCODING 439
SWIDTH 600 0
DWIDTH 18 0
BBX 15 22 1 0
BITMAP
7FFC
7FFC
001C
0078
00F0
01E0
0380
0700
0E00
0FE0
0FF8
00FC
001E
000E
000E
000E
000E
000E
801C
F87C
FFF0
3FC0
ENDCHAR
STARTCHAR 01B8
ENCODING 440
SWIDTH 600 0
DWIDTH 18 0
BBX 15 22 2 0
BITMAP
7FFC
7FFC
7000
3C00
1E00
0F00
0380
01C0
00E0
0FE0
3FE0
7E00
F000
E000
E000
E000
E000
E000
7002
7C3E
1FFE
07F8
ENDCHAR
STARTCHAR 01B9
ENCODING 441
SWIDTH 600 0
DWIDTH 18 0
BBX 14 24 2 -7
BITMAP
7FFC
7FFC
3000
3800
1C00
0E00
0700
0380
01C0
00E0
0FE0
3FE0
7800
7000
E000
E000
E000
E000
E000
7000
7004
3E3C
1FFC
07F0
ENDCHAR
STARTCHAR 01BA
ENCODING 442
SWIDTH 600 0
DWIDTH 18 0
BBX 14 24 2 -7
BITMAP
FFF8
FFF8
0070
00E0
01C0
0780
0E00
1FC0
1FF0
00F8
0038
001C
001C
001C
001C
0038
3FF0
7FE0
F000
E000
E000
F860
7FE0
1FC0
ENDCHAR
STARTCHAR 01BB
ENCODING 443
SWIDTH 600 0
DWIDTH 18 0
BBX 14 22 2 0
BITMAP
0FC0
3FE0
F8F0
6038
0038
0038
0038
0038
0038
0070
7FFC
7FFC
01C0
03C0
0780
0F00
1E00
3C00
7800
F000
FFFC
FFFC
ENDCHAR
STARTCHAR 01BC
ENCODING 444
SWIDTH 600 0
DWIDTH 18 0
BBX 14 22 2 0
BITMAP
FFF8
FFF8
3800
3800
3800
3800
3800
3800
3F80
3FE0
00F0
0038
0038
001C
001C
001C
001C
0038
8038
F1F0
FFE0
3F80
ENDCHAR
STARTCHAR 01BD
ENCODING 445
SWIDTH 600 0
DWIDTH 18 0
BBX 14 17 2 0
BITMAP
FFF8
FFF8
1C00
1C00
1C00
1C00
1FE0
1FF0
0078
001C
001C
001C
001C
8038
F0F8
FFF0
3FC0
ENDCHAR
STARTCHAR 01BE
ENCODING 446
SWIDTH 600 0
DWIDTH 18 0
BBX 13 22 2 0
BITMAP
0600
0E00
0E00
0E00
0E00
FFF8
FFF8
0E00
0E00
0E00
0E00
0E00
0F80
07E0
01F0
0078
0038
0018
8038
F078
FFF0
3FC0
ENDCHAR
STARTCHAR 01BF
ENCODING 447
SWIDTH 600 0
DWIDTH 18 0
BBX 13 24 3 -7
BITMAP
C7C0
DFE0
F8F0
E078
E038
E038
C018
C018
C038
C038
C038
C070
C0F0
C1E0
CFC0
FF00
FC00
C000
C000
C000
C000
C000
C000
C000
ENDCHAR
STARTCHAR 01C0
ENCODING 448
SWIDTH 600 0
DWIDTH 18 0
BBX 2 24 8 0
BITMAP
C0
C0
C0
C0
C0
C0
C0
C0
C0
C0
C0
C0
C0
C0
C0
C0
C0
C0
C0
C0
C0
C0
C0
C0
ENDCHAR
STARTCHAR 01C1
ENCODING 449
SWIDTH 600 0
DWIDTH 18 0
BBX 10 24 4 0
BITMAP
C0C0
C0C0
C0C0
C0C0
C0C0
C0C0
C0C0
C0C0
C0C0
C0C0
C0C0
C0C0
C0C0
C0C0
C0C0
C0C0
C0C0
C0C0
C0C0
C0C0
C0C0
C0C0
C0C0
C0C0
ENDCHAR
STARTCHAR 01C2
ENCODING 450
SWIDTH 600 0
DWIDTH 18 0
BBX 12 24 3 0
BITMAP
0600
0600
0600
0600
0600
0600
0600
FFF0
FFF0
0600
0600
0600
0600
0600
FFF0
FFF0
0600
0600
0600
0600
0600
0600
0600
0600
ENDCHAR
STARTCHAR 01C3
ENCODING 451
SWIDTH 600 0
DWIDTH 18 0
BBX 4 22 7 0
BITMAP
F0
F0
F0
F0
70
70
60
60
60
60
60
60
60
60
60
60
00
00
60
F0
F0
60
ENDCHAR
STARTCHAR 01C4
ENCODING 452
SWIDTH 1200 0
DWIDTH 36 0
BBX 29 29 3 0
BITMAP
00003838
00001C60
00000EE0
000007C0
00000380
00000000
00000000
FF803FF8
FFE03FF8
E1F00038
E0780038
E03C0070
E01C0070
E00C00E0
E00E00E0
E00E01C0
E00E01C0
E00E0380
E00E0300
E00E0700
E00E0600
E00E0E00
E01C0C00
E01C1C00
E03C3800
E0783800
E1F07000
FFE07FF8
FF807FF8
ENDCHAR
STARTCHAR 01C5
ENCODING 453
SWIDTH 1200 0
DWIDTH 36 0
BBX 31 24 2 0
BITMAP
00000E0C
00000718
FF8003B0
FFE001F0
E1F001E0
E0780000
E0380000
E01C1FFE
E01C1FFE
E00C000E
E00E001C
E00E001C
E00E0038
E00E0070
E00E00E0
E00C00E0
E01C01C0
E01C0380
E01C0700
E0380700
E0780E00
E1F01C00
FFC01FFE
FF001FFE
ENDCHAR
STARTCHAR 01C6
ENCODING 454
SWIDTH 1200 0
DWIDTH 36 0
BBX 31 24 2 0
BITMAP
001C0E0C
001C0718
001C03F0
001C01F0
001C01E0
001C0000
001C0000
0F9C1FFE
3FDC1FFE
7CFC000E
703C001C
E03C001C
E01C0038
E01C0070
C01C00E0
C01C00E0
C01C01C0
E01C0380
E01C0700
E03C0700
703C0E00
7CFC1C00
3FDC1FFE
0F9C1FFE
ENDCHAR
STARTCHAR 01C7
ENCODING 455
SWIDTH 1200 0
DWIDTH 36 0
BBX 29 22 3 0
BITMAP
E0000038
E0000038
E0000038
E0000038
E0000038
E0000038
E0000038
E0000038
E0000038
E0000038
E0000038
E0000038
E0000038
E0000038
E0000038
E0000038
E0000038
E0000038
E0000070
FFF038F0
FFF03FE0
FFF01F80
ENDCHAR
STARTCHAR 01C8
ENCODING 456
SWIDTH 1200 0
DWIDTH 36 0
BBX 27 31 3 -7
BITMAP
000000E0
000001E0
E00001E0
E00000E0
E0000000
E0000000
E0000000
E0001FE0
E0001FE0
E00000E0
E00000E0
E00000E0
E00000E0
E00000E0
E00000E0
E00000E0
E00000E0
E00000E0
E00000E0
E00000E0
E00000E0
FFF000E0
FFF000E0
FFF000E0
000000E0
000000E0
000000E0
000001E0
000043C0
00007F80
00007F00
ENDCHAR
STARTCHAR 01C9
ENCODING 457
SWIDTH 1200 0
DWIDTH 36 0
BBX 28 31 2 -7
BITMAP
7F800070
7F8000F0
038000F0
03800070
03800000
03800000
03800000
03800FF0
03800FF0
03800070
03800070
03800070
03800070
03800070
03800070
03800070
03800070
03800070
03800070
03800070
03800070
03800070
FFFC0070
FFFC0070
00000070
00000070
00000070
000000F0
000021E0
00003FC0
00003F80
ENDCHAR
STARTCHAR 01CA
ENCODING 458
SWIDTH 1200 0
DWIDTH 36 0
BBX 30 22 2 0
BITMAP
F01C001C
F01C001C
F81C001C
D81C001C
DC1C001C
EC1C001C
EC1C001C
EE1C001C
E61C001C
E71C001C
E31C001C
E39C001C
E19C001C
E19C001C
E1DC001C
E0DC001C
E0FC001C
E07C001C
E07C0038
E03C1C78
E03C1FF0
E03C0FC0
ENDCHAR
STARTCHAR 01CB
ENCODING 459
SWIDTH 1200 0
DWIDTH 36 0
BBX 28 31 2 -7
BITMAP
00000070
000000F0
F01C00F0
F01C0070
F81C0000
D81C0000
DC1C0000
EC1C0FF0
EC1C0FF0
EE1C0070
E61C0070
E71C0070
E31C0070
E39C0070
E19C0070
E19C0070
E1DC0070
E0DC0070
E0FC0070
E07C0070
E07C0070
E03C0070
E03C0070
E03C0070
00000070
00000070
00000070
000000F0
000021E0
00003FC0
00003F80
ENDCHAR
STARTCHAR 01CC
ENCODING 460
SWIDTH 1200 0
DWIDTH 36 0
BBX 28 31 2 -7
BITMAP
00000070
000000F0
000000F0
00000070
00000000
00000000
00000000
E3E00FF0
EFF00FF0
FC780070
F0380070
F01C0070
E01C0070
E01C0070
E01C0070
E01C0070
E01C0070
E01C0070
E01C0070
E01C0070
E01C0070
E01C0070
E01C0070
E01C0070
00000070
00000070
00000070
000000F0
000021E0
00003FC0
00003F80
ENDCHAR
STARTCHAR 01CD
ENCODING 461
SWIDTH 600 0
DWIDTH 18 0
BBX 16 29 1 0
BITMAP
1818
0E70
07E0
03C0
03C0
0000
0000
03C0
03C0
03C0
07E0
07E0
0660
0E60
0E70
0C30
0C30
1C38
1818
1818
3FFC
3FFC
300C
700E
700E
6006
E007
E007
C007
ENDCHAR
STARTCHAR 01CE
ENCODING 462
SWIDTH 600 0
DWIDTH 18 0
BBX 13 24 2 0
BITMAP
3830
1C60
0FC0
07C0
0780
0000
0000
0FC0
7FF0
3878
2038
0018
0018
0018
1FF8
7FF8
7018
E018
E018
E038
E038
71F8
7FD8
1F18
ENDCHAR
STARTCHAR 01CF
ENCODING 463
SWIDTH 600 0
DWIDTH 18 0
BBX 12 29 3 0
BITMAP
6060
39C0
1F80
0F00
0F00
0000
0000
FFF0
FFF0
0600
0600
0600
0600
0600
0600
0600
0600
0600
0600
0600
0600
0600
0600
0600
0600
0600
0600
FFF0
FFF0
ENDCHAR
STARTCHAR 01D0
ENCODING 464
SWIDTH 600 0
DWIDTH 18 0
BBX 14 24 2 0
BITMAP
3030
1CE0
0FC0
0780
0780
0000
0000
7F80
7F80
0380
0380
0380
0380
0380
0380
0380
0380
0380
0380
0380
0380
0380
FFFC
FFFC
ENDCHAR
STARTCHAR 01D1
ENCODING 465
SWIDTH 600 0
DWIDTH 18 0
BBX 16 29 1 0
BITMAP
1818
0E70
07E0
03C0
03C0
0000
0000
07E0
1FF8
1E78
381C
700E
700E
700E
6006
E007
E007
E007
E007
E007
E007
6006
700E
700E
700E
381C
1E78
1FF0
07E0
ENDCHAR
STARTCHAR 01D2
ENCODING 466
SWIDTH 600 0
DWIDTH 18 0
BBX 14 24 2 0
BITMAP
3030
1CE0
0FC0
0780
0780
0000
0000
0FC0
3FF0
7CF8
7038
E01C
E01C
C01C
C00C
C00C
C00C
C01C
E01C
E01C
7038
7CF8
3FF0
0FC0
ENDCHAR
STARTCHAR 01D3
ENCODING 467
SWIDTH 600 0
DWIDTH 18 0
BBX 14 29 2 0
BITMAP
3030
1CE0
0FC0
0780
0780
0000
0000
E01C
E01C
E01C
E01C
E01C
E01C
E01C
E01C
E01C
E01C
E01C
E01C
E01C
E01C
E01C
E01C
E01C
6018
7038
7878
3FF0
0FC0
ENDCHAR
STARTCHAR 01D4
ENCODING 468
SWIDTH 600 0
DWIDTH 18 0
BBX 14 24 2 0
BITMAP
3030
1CE0
0FC0
0780
0780
0000
0000
E01C
E01C
E01C
E01C
E01C
E01C
E01C
E01C
E01C
E01C
E01C
E01C
E03C
703C
78FC
3FDC
1F9C
ENDCHAR
STARTCHAR 01D5
ENCODING 469
SWIDTH 600 0
DWIDTH 18 0
BBX 14 32 2 0
BITMAP
1FE0
1FE0
0000
0000
3870
3870
3870
3870
0000
0000
E01C
E01C
E01C
E01C
E01C
E01C
E01C
E01C
E01C
E01C
E01C
E01C
E01C
E01C
E01C
E01C
E01C
6018
7038
7878
3FF0
0FC0
ENDCHAR
STARTCHAR 01D6
ENCODING 470
SWIDTH 600 0
DWIDTH 18 0
BBX 14 27 2 0
BITMAP
1FE0
1FE0
0000
0000
3870
3870
3870
3870
0000
0000
E01C
E01C
E01C
E01C
E01C
E01C
E01C
E01C
E01C
E01C
E01C
E01C
E03C
703C
78FC
3FDC
1F9C
ENDCHAR
STARTCHAR 01D7
ENCODING 471
SWIDTH 600 0
DWIDTH 18 0
BBX 14 35 2 0
BITMAP
00F0
00E0
01C0
0180
0300
0000
0000
3870
3870
3870
3870
0000
0000
E01C
E01C
E01C
E01C
E01C
E01C
E01C
E01C
E01C
E01C
E01C
E01C
E01C
E01C
E01C
E01C
E01C
6018
7038
7878
3FF0
0FC0
ENDCHAR
STARTCHAR 01D8
ENCODING 472
SWIDTH 600 0
DWIDTH 18 0
BBX 14 30 2 0
BITMAP
00F0
00E0
01C0
0180
0300
0000
0000
3870
3870
3870
3870
0000
0000
E01C
E01C
E01C
E01C
E01C
E01C
E01C
E01C
E01C
E01C
E01C
E01C
E03C
703C
78FC
3FDC
1F9C
ENDCHAR
STARTCHAR 01D9
ENCODING 473
SWIDTH 600 0
DWIDTH 18 0
BBX 14 35 2 0
BITMAP
3030
1CE0
0FC0
0780
0780
0000
0000
3870
3870
3870
3870
0000
0000
E01C
E01C
E01C
E01C
E01C
E01C
E01C
E01C
E01C
E01C
E01C
E01C
E01C
E01C
E01C
E01C
E01C
6018
7038
7878
3FF0
0FC0
ENDCHAR
STARTCHAR 01DA
ENCODING 474
SWIDTH 600 0
DWIDTH 18 0
BBX 14 30 2 0
BITMAP
3030
1CE0
0FC0
0780
0780
0000
0000
3870
3870
3870
3870
0000
0000
E01C
E01C
E01C
E01C
E01C
E01C
E01C
E01C
E01C
E01C
E01C
E01C
E03C
703C
78FC
3FDC
1F9C
ENDCHAR
STARTCHAR 01DB
ENCODING 475
SWIDTH 600 0
DWIDTH 18 0
BBX 14 35 2 0
BITMAP
1C00
0E00
0700
0300
0180
0000
0000
3870
3870
3870
3870
0000
0000
E01C
E01C
E01C
E01C
E01C
E01C
E01C
E01C
E01C
E01C
E01C
E01C
E01C
E01C
E01C
E01C
E01C
6018
7038
7878
3FF0
0FC0
ENDCHAR
STARTCHAR 01DC
ENCODING 476
SWIDTH 600 0
DWIDTH 18 0
BBX 14 30 2 0
BITMAP
1C00
0E00
0700
0300
0180
0000
0000
3870
3870
3870
3870
0000
0000
E01C
E01C
E01C
E01C
E01C
E01C
E01C
E01C
E01C
E01C
E01C
E01C
E03C
703C
78FC
3FDC
1F9C
ENDCHAR
STARTCHAR 01DD
ENCODING 477
SWIDTH 600 0
DWIDTH 18 0
BBX 14 17 2 -1
BITMAP
3F80
7FE0
70F0
8038
001C
001C
001C
001C
FFFC
FFFC
E01C
E01C
E018
7038
78F0
3FE0
0FC0
ENDCHAR
STARTCHAR 01DE
ENCODING 478
SWIDTH 600 0
DWIDTH 18 0
BBX 16 32 1 0
BITMAP
0FF0
0FF0
0000
0000
1C38
1C38
1C38
1C38
0000
0000
03C0
03C0
03C0
07E0
07E0
0660
0E60
0E70
0C30
0C30
1C38
1818
1818
3FFC
3FFC
300C
700E
700E
6006
E007
E007
C007
ENDCHAR
STARTCHAR 01DF
ENCODING 479
SWIDTH 600 0
DWIDTH 18 0
BBX 13 27 2 0
BITMAP
1FF0
1FF0
0000
0000
1870
3870
3870
1870
0000
0000
0FC0
7FF0
3878
2038
0018
0018
0018
1FF8
7FF8
7018
E018
E018
E038
E038
71F8
7FD8
1F18
ENDCHAR
STARTCHAR 01E0
ENCODING 480
SWIDTH 600 0
DWIDTH 18 0
BBX 16 32 1 0
BITMAP
0FF0
0FF0
0000
0180
03C0
03C0
0180
0000
0000
0000
03C0
03C0
03C0
07E0
07E0
0660
0E60
0E70
0C30
0C30
1C38
1818
1818
3FFC
3FFC
300C
700E
700E
6006
E007
E007
C007
ENDCHAR
STARTCHAR 01E1
ENCODING 481
SWIDTH 600 0
DWIDTH 18 0
BBX 13 26 2 0
BITMAP
1FF0
1FF0
0300
0780
0780
0300
0000
0000
0000
0FC0
7FF0
3878
2038
0018
0018
0018
1FF8
7FF8
7018
E018
E018
E038
E038
71F8
7FD8
1F18
ENDCHAR
STARTCHAR 01E2
ENCODING 482
SWIDTH 600 0
DWIDTH 18 0
BBX 15 26 1 0
BITMAP
0FF8
0FF8
0000
0000
0FFE
0FFE
0DC0
0DC0
1DC0
1DC0
19C0
19C0
19C0
39FE
39FE
31C0
31C0
7FC0
7FC0
71C0
61C0
61C0
E1C0
E1C0
E1FE
C1FE
ENDCHAR
STARTCHAR 01E3
ENCODING 483
SWIDTH 600 0
DWIDTH 18 0
BBX 16 21 1 0
BITMAP
0FF0
0FF0
0000
0000
3E3C
7F7E
67E7
03C7
0183
0183
0183
3FFF
7FFF
E180
C180
C180
C3C0
C3C1
E7F3
FE7F
3C3E
ENDCHAR
STARTCHAR 01E4
ENCODING 484
SWIDTH 600 0
DWIDTH 18 0
BBX 17 22 1 0
BITMAP
03F800
0FFE00
1F1C00
3C0000
380000
700000
700000
600000
600000
E00000
E0FE00
E0FE00
E00E00
E00E00
600E00
70FF80
70FF80
780E00
3C0E00
1F1E00
0FFE00
03F800
ENDCHAR
STARTCHAR 01E5
ENCODING 485
SWIDTH 600 0
DWIDTH 18 0
BBX 15 24 2 -7
BITMAP
1F8C
3FDC
78FC
F03C
E03C
E01C
C01C
C01C
C01C
C01C
E01C
E01C
F03C
78FC
3FDC
1F9C
001C
001C
03FE
03FE
0038
70F8
7FF0
1FC0
ENDCHAR
STARTCHAR 01E6
ENCODING 486
SWIDTH 600 0
DWIDTH 18 0
BBX 15 29 1 0
BITMAP
0C1C
0638
0770
03E0
01C0
0000
0000
03F8
0FFE
1F1C
3C00
3800
7000
7000
6000
6000
E000
E0FE
E0FE
E00E
E00E
600E
700E
700E
780E
3C0E
1F1E
0FFE
03F8
ENDCHAR
STARTCHAR 01E7
ENCODING 487
SWIDTH 600 0
DWIDTH 18 0
BBX 14 31 2 -7
BITMAP
3030
1CE0
0FC0
0780
0780
0000
0000
0F9C
3FDC
7CFC
703C
E03C
E01C
E01C
C01C
C01C
C01C
E01C
E01C
E01C
703C
7CFC
3FDC
0F9C
001C
0018
0018
8038
F0F0
FFF0
3FC0
ENDCHAR
STARTCHAR 01E8
ENCODING 488
SWIDTH 600 0
DWIDTH 18 0
BBX 15 29 2 0
BITMAP
3030
1CE0
0FC0
0780
0780
0000
0000
E01C
E038
E070
E070
E0E0
E1C0
E3C0
E380
E700
EE00
EE00
FF00
FB80
F380
E1C0
E1C0
E0E0
E070
E070
E038
E03C
E01E
ENDCHAR
STARTCHAR 01E9
ENCODING 489
SWIDTH 600 0
DWIDTH 18 0
BBX 14 31 3 0
BITMAP
3830
1C60
0EC0
07C0
0380
0000
0000
E000
E000
E000
E000
E000
E000
E000
E03C
E070
E0F0
E1E0
E1C0
E380
E700
EE00
FF00
FB80
F3C0
E1C0
E0E0
E070
E070
E038
E01C
ENDCHAR
STARTCHAR 01EA
ENCODING 490
SWIDTH 600 0
DWIDTH 18 0
BBX 16 29 1 -7
BITMAP
07E0
1FF8
1E78
381C
700E
700E
700E
6006
E007
E007
E007
E007
E007
E007
6006
700E
700E
700E
381C
1E78
1FF0
07E0
0180
0300
0300
0300
0700
03C0
01C0
ENDCHAR
STARTCHAR 01EB
ENCODING 491
SWIDTH 600 0
DWIDTH 18 0
BBX 14 24 2 -7
BITMAP
0FC0
3FF0
7CF8
7038
E01C
E01C
C01C
C00C
C00C
C00C
C01C
E01C
E01C
7038
7CF8
3FF0
0FC0
0300
0600
0600
0600
0E00
0780
0380
ENDCHAR
STARTCHAR 01EC
ENCODING 492
SWIDTH 600 0
DWIDTH 18 0
BBX 16 33 1 -7
BITMAP
0FF0
0FF0
0000
0000
07E0
1FF8
1E78
381C
700E
700E
700E
6006
E007
E007
E007
E007
E007
E007
6006
700E
700E
700E
381C
1E78
1FF0
07E0
0180
0300
0300
0300
0700
03C0
01C0
ENDCHAR
STARTCHAR 01ED
ENCODING 493
SWIDTH 600 0
DWIDTH 18 0
BBX 14 28 2 -7
BITMAP
1FE0
1FE0
0000
0000
0FC0
3FF0
7CF8
7038
E01C
E01C
C01C
C00C
C00C
C00C
C01C
E01C
E01C
7038
7CF8
3FF0
0FC0
0300
0600
0600
0600
0E00
0780
0380
ENDCHAR
STARTCHAR 01EE
ENCODING 494
SWIDTH 600 0
DWIDTH 18 0
BBX 15 29 1 0
BITMAP
1818
0E70
07E0
03C0
03C0
0000
0000
7FFC
7FFC
001C
0078
00F0
01E0
0380
0700
0E00
0FE0
0FF8
00FC
001E
000E
000E
000E
000E
000E
801C
F87C
FFF0
3FC0
ENDCHAR
STARTCHAR 01EF
ENCODING 495
SWIDTH 600 0
DWIDTH 18 0
BBX 14 31 2 -7
BITMAP
7070
38E0
1DC0
0F80
0700
0000
0000
FFF8
FFF8
0030
0070
00E0
01C0
0380
0700
0E00
1C00
1FC0
1FF0
0078
0038
001C
001C
001C
001C
001C
0038
8038
F1F0
FFE0
3F80
ENDCHAR
STARTCHAR 01F0
ENCODING 496
SWIDTH 600 0
DWIDTH 18 0
BBX 13 31 2 -7
BITMAP
1C18
0E30
0760
03E0
01C0
0000
0000
3FC0
3FC0
01C0
01C0
01C0
01C0
01C0
01C0
01C0
01C0
01C0
01C0
01C0
01C0
01C0
01C0
01C0
01C0
01C0
01C0
03C0
8780
FF00
FE00
ENDCHAR
STARTCHAR 01F1
ENCODING 497
SWIDTH 1200 0
DWIDTH 36 0
BBX 29 22 3 0
BITMAP
FF803FF8
FFE03FF8
E1F00038
E0780038
E03C0070
E01C0070
E00C00E0
E00E00E0
E00E01C0
E00E01C0
E00E0380
E00E0300
E00E0700
E00E0600
E00E0E00
E01C0C00
E01C1C00
E03C3800
E0783800
E1F07000
FFE07FF8
FF807FF8
ENDCHAR
STARTCHAR 01F2
ENCODING 498
SWIDTH 1200 0
DWIDTH 36 0
BBX 31 22 2 0
BITMAP
FF800000
FFE00000
E1F00000
E0780000
E0380000
E01C1FFE
E01C1FFE
E00C000E
E00E001C
E00E001C
E00E0038
E00E0070
E00E00E0
E00C00E0
E01C01C0
E01C0380
E01C0700
E0380700
E0780E00
E1F01C00
FFC01FFE
FF001FFE
ENDCHAR
STARTCHAR 01F3
ENCODING 499
SWIDTH 1200 0
DWIDTH 36 0
BBX 31 24 2 0
BITMAP
001C0000
001C0000
001C0000
001C0000
001C0000
001C0000
001C0000
0F9C1FFE
3FDC1FFE
7CFC000E
703C001C
E03C001C
E01C0038
E01C0070
C01C00E0
C01C00E0
C01C01C0
E01C0380
E01C0700
E03C0700
703C0E00
7CFC1C00
3FDC1FFE
0F9C1FFE
ENDCHAR
STARTCHAR 01F4
ENCODING 500
SWIDTH 600 0
DWIDTH 18 0
BBX 15 29 1 0
BITMAP
0038
0078
0070
00E0
01C0
0000
0000
03F8
0FFE
1F1C
3C00
3800
7000
7000
6000
6000
E000
E0FE
E0FE
E00E
E00E
600E
700E
700E
780E
3C0E
1F1E
0FFE
03F8
ENDCHAR
STARTCHAR 01F5
ENCODING 501
SWIDTH 600 0
DWIDTH 18 0
BBX 14 31 2 -7
BITMAP
00F0
00E0
01C0
0180
0300
0000
0000
0F9C
3FDC
7CFC
703C
E03C
E01C
E01C
C01C
C01C
C01C
E01C
E01C
E01C
703C
7CFC
3FDC
0F9C
001C
0018
0018
8038
F0F0
FFF0
3FC0
ENDCHAR
STARTCHAR 01F6
ENCODING 502
SWIDTH 600 0
DWIDTH 18 0
BBX 14 22 2 0
BITMAP
C300
C300
C300
C300
C300
C30C
C30C
C30C
C30C
FF0C
FF0C
C30C
C30C
C30C
C30C
C30C
C30C
C30C
C30C
C39C
C1F8
C0F0
ENDCHAR
STARTCHAR 01F7
ENCODING 503
SWIDTH 600 0
DWIDTH 18 0
BBX 14 29 3 -7
BITMAP
C7C0
CFF0
DCF8
F038
E01C
E01C
E01C
C01C
C01C
C01C
C018
C038
C038
C070
C070
C0E0
C1C0
C380
CF00
FE00
F800
F000
C000
C000
C000
C000
C000
C000
C000
ENDCHAR
STARTCHAR 01F8
ENCODING 504
SWIDTH 600 0
DWIDTH 18 0
BBX 14 29 2 0
BITMAP
1E00
0E00
0700
0300
0180
0000
0000
F01C
F01C
F81C
D81C
DC1C
EC1C
EC1C
EE1C
E61C
E71C
E31C
E39C
E19C
E19C
E1DC
E0DC
E0FC
E07C
E07C
E03C
E03C
E03C
ENDCHAR
STARTCHAR 01F9
ENCODING 505
SWIDTH 600 0
DWIDTH 18 0
BBX 14 24 2 0
BITMAP
1E00
0E00
0700
0380
0180
0000
0000
E3E0
EFF0
FC78
F038
F01C
E01C
E01C
E01C
E01C
E01C
E01C
E01C
E01C
E01C
E01C
E01C
E01C
ENDCHAR
STARTCHAR 01FA
ENCODING 506
SWIDTH 600 0
DWIDTH 18 0
BBX 16 33 1 0
BITMAP
0078
0070
00E0
00C0
0180
03C0
07E0
0660
0420
0660
07E0
03C0
03C0
03C0
07E0
07E0
0660
0E60
0E70
0C30
0C30
1C38
1818
1818
3FFC
3FFC
300C
700E
700E
6006
E007
E007
C007
ENDCHAR
STARTCHAR 01FB
ENCODING 507
SWIDTH 600 0
DWIDTH 18 0
BBX 13 32 2 0
BITMAP
0070
00E0
01C0
0180
0300
0000
0380
0FC0
0CC0
0C40
0CC0
0FC0
0780
0000
0000
0FC0
7FF0
3878
2038
0018
0018
0018
1FF8
7FF8
7018
E018
E018
E038
E038
71F8
7FD8
1F18
ENDCHAR
STARTCHAR 01FC
ENCODING 508
SWIDTH 600 0
DWIDTH 18 0
BBX 15 29 1 0
BITMAP
003C
0038
0070
00E0
00C0
0000
0000
0FFE
0FFE
0DC0
0DC0
1DC0
1DC0
19C0
19C0
19C0
39FE
39FE
31C0
31C0
7FC0
7FC0
71C0
61C0
61C0
E1C0
E1C0
E1FE
C1FE
ENDCHAR
STARTCHAR 01FD
ENCODING 509
SWIDTH 600 0
DWIDTH 18 0
BBX 16 24 1 0
BITMAP
0078
0070
00E0
00C0
0180
0000
0000
3E3C
7F7E
67E7
03C7
0183
0183
0183
3FFF
7FFF
E180
C180
C180
C3C0
C3C1
E7F3
FE7F
3C3E
ENDCHAR
STARTCHAR 01FE
ENCODING 510
SWIDTH 600 0
DWIDTH 18 0
BBX 16 30 1 -1
BITMAP
0078
0070
00E0
00C0
0180
0000
0004
07E7
0FFE
1E7C
381C
701E
703E
707E
6066
E0E7
E0C7
E1C7
E187
E387
E707
6606
7E0E
7C0E
7C0E
381C
3E78
7FF0
67E0
2000
ENDCHAR
STARTCHAR 01FF
ENCODING 511
SWIDTH 600 0
DWIDTH 18 0
BBX 14 25 2 -1
BITMAP
00F0
00E0
01C0
0180
0300
0000
0008
0FDC
3FF8
7CF8
7078
E07C
E0FC
C1DC
C18C
C30C
C70C
CE1C
EC1C
FC1C
7838
7CF8
7FF0
EFC0
4000
ENDCHAR
STARTCHAR 0200
ENCODING 512
SWIDTH 600 0
DWIDTH 18 0
BBX 16 29 1 0
BITMAP
39C0
18E0
1C60
0C70
0630
0000
0000
03C0
03C0
03C0
07E0
07E0
0660
0E60
0E70
0C30
0C30
1C38
1818
1818
3FFC
3FFC
300C
700E
700E
6006
E007
E007
C007
ENDCHAR
STARTCHAR 0201
ENCODING 513
SWIDTH 600 0
DWIDTH 18 0
BBX 13 24 2 0
BITMAP
7380
39C0
38C0
1C60
0C30
0000
0000
0FC0
7FF0
3878
2038
0018
0018
0018
1FF8
7FF8
7018
E018
E018
E038
E038
71F8
7FD8
1F18
ENDCHAR
STARTCHAR 0202
ENCODING 514
SWIDTH 600 0
DWIDTH 18 0
BBX 16 27 1 0
BITMAP
07C0
0FF0
0E70
1818
0000
03C0
03C0
03C0
07E0
07E0
0660
0E60
0E70
0C30
0C30
1C38
1818
1818
3FFC
3FFC
300C
700E
700E
6006
E007
E007
C007
ENDCHAR
STARTCHAR 0203
ENCODING 515
SWIDTH 600 0
DWIDTH 18 0
BBX 13 22 2 0
BITMAP
07C0
1FE0
1CF0
3030
0000
0FC0
7FF0
3878
2038
0018
0018
0018
1FF8
7FF8
7018
E018
E018
E038
E038
71F8
7FD8
1F18
ENDCHAR
STARTCHAR 0204
ENCODING 516
SWIDTH 600 0
DWIDTH 18 0
BBX 12 29 3 0
BITMAP
E700
7380
7180
38C0
1860
0000
0000
FFF0
FFF0
E000
E000
E000
E000
E000
E000
E000
FFF0
FFF0
E000
E000
E000
E000
E000
E000
E000
E000
E000
FFF0
FFF0
ENDCHAR
STARTCHAR 0205
ENCODING 517
SWIDTH 600 0
DWIDTH 18 0
BBX 14 24 2 0
BITMAP
7380
31C0
38C0
1C60
0C30
0000
0000
07C0
1FF0
3C78
7038
E01C
E01C
E01C
FFFC
FFFC
E000
E000
E000
E000
7004
3C38
1FF8
07F0
ENDCHAR
STARTCHAR 0206
ENCODING 518
SWIDTH 600 0
DWIDTH 18 0
BBX 12 27 3 0
BITMAP
0F80
3FC0
39E0
2060
4000
FFF0
FFF0
E000
E000
E000
E000
E000
E000
E000
FFF0
FFF0
E000
E000
E000
E000
E000
E000
E000
E000
E000
FFF0
FFF0
ENDCHAR
STARTCHAR 0207
ENCODING 519
SWIDTH 600 0
DWIDTH 18 0
BBX 14 22 2 0
BITMAP
0780
1FE0
1CE0
3030
0000
07C0
1FF0
3C78
7038
E01C
E01C
E01C
FFFC
FFFC
E000
E000
E000
E000
7004
3C38
1FF8
07F0
ENDCHAR
STARTCHAR 0208
ENCODING 520
SWIDTH 600 0
DWIDTH 18 0
BBX 12 29 3 0
BITMAP
E700
6380
7180
31C0
18C0
0000
0000
FFF0
FFF0
0600
0600
0600
0600
0600
0600
0600
0600
0600
0600
0600
0600
0600
0600
0600
0600
0600
0600
FFF0
FFF0
ENDCHAR
STARTCHAR 0209
ENCODING 521
SWIDTH 600 0
DWIDTH 18 0
BBX 14 24 2 0
BITMAP
7380
31C0
38C0
18E0
0C60
0000
0000
7F80
7F80
0380
0380
0380
0380
0380
0380
0380
0380
0380
0380
0380
0380
0380
FFFC
FFFC
ENDCHAR
STARTCHAR 020A
ENCODING 522
SWIDTH 600 0
DWIDTH 18 0
BBX 12 27 3 0
BITMAP
1F00
3FC0
39C0
6060
0000
FFF0
FFF0
0600
0600
0600
0600
0600
0600
0600
0600
0600
0600
0600
0600
0600
0600
0600
0600
0600
0600
FFF0
FFF0
ENDCHAR
STARTCHAR 020B
ENCODING 523
SWIDTH 600 0
DWIDTH 18 0
BBX 14 22 2 0
BITMAP
0F80
1FE0
1CE0
3030
0000
7F80
7F80
0380
0380
0380
0380
0380
0380
0380
0380
0380
0380
0380
0380
0380
FFFC
FFFC
ENDCHAR
STARTCHAR 020C
ENCODING 524
SWIDTH 600 0
DWIDTH 18 0
BBX 16 29 1 0
BITMAP
39C0
18E0
1C60
0C70
0630
0000
0000
07E0
1FF8
1E78
381C
700E
700E
700E
6006
E007
E007
E007
E007
E007
E007
6006
700E
700E
700E
381C
1E78
1FF0
07E0
ENDCHAR
STARTCHAR 020D
ENCODING 525
SWIDTH 600 0
DWIDTH 18 0
BBX 14 24 2 0
BITMAP
7380
31C0
38C0
18E0
0C60
0000
0000
0FC0
3FF0
7CF8
7038
E01C
E01C
C01C
C00C
C00C
C00C
C01C
E01C
E01C
7038
7CF8
3FF0
0FC0
ENDCHAR
STARTCHAR 020E
ENCODING 526
SWIDTH 600 0
DWIDTH 18 0
BBX 16 27 1 0
BITMAP
07C0
0FF0
0E70
1818
0000
07E0
1FF8
1E78
381C
700E
700E
700E
6006
E007
E007
E007
E007
E007
E007
6006
700E
700E
700E
381C
1E78
1FF0
07E0
ENDCHAR
STARTCHAR 020F
ENCODING 527
SWIDTH 600 0
DWIDTH 18 0
BBX 14 22 2 0
BITMAP
0F80
1FE0
1CE0
3030
0000
0FC0
3FF0
7CF8
7038
E01C
E01C
C01C
C00C
C00C
C00C
C01C
E01C
E01C
7038
7CF8
3FF0
0FC0
ENDCHAR
STARTCHAR 0210
ENCODING 528
SWIDTH 600 0
DWIDTH 18 0
BBX 14 29 3 0
BITMAP
E700
6380
7180
31C0
18C0
0000
0000
FF00
FFC0
E1E0
E070
E070
E030
E030
E070
E070
E070
E1E0
FFC0
FF00
E380
E1C0
E1C0
E0E0
E0E0
E070
E038
E038
E01C
ENDCHAR
STARTCHAR 0211
ENCODING 529
SWIDTH 600 0
DWIDTH 18 0
BBX 15 24 2 0
BITMAP
39C0
1CE0
1C60
0E30
0618
0000
0000
FE3E
FE7E
1EE6
0780
0700
0700
0700
0700
0600
0600
0600
0600
0600
0600
0600
FFF0
FFF0
ENDCHAR
STARTCHAR 0212
ENCODING 530
SWIDTH 600 0
DWIDTH 18 0
BBX 14 27 3 0
BITMAP
1F00
3FC0
39C0
6060
0000
FF00
FFC0
E1E0
E070
E070
E030
E030
E070
E070
E070
E1E0
FFC0
FF00
E380
E1C0
E1C0
E0E0
E0E0
E070
E038
E038
E01C
ENDCHAR
STARTCHAR 0213
ENCODING 531
SWIDTH 600 0
DWIDTH 18 0
BBX 15 22 2 0
BITMAP
03E0
0FF0
0E78
0818
0000
FE3E
FE7E
1EE6
0780
0700
0700
0700
0700
0600
0600
0600
0600
0600
0600
0600
FFF0
FFF0
ENDCHAR
STARTCHAR 0214
ENCODING 532
SWIDTH 600 0
DWIDTH 18 0
BBX 14 29 2 0
BITMAP
7380
31C0
38C0
18E0
0C60
0000
0000
E01C
E01C
E01C
E01C
E01C
E01C
E01C
E01C
E01C
E01C
E01C
E01C
E01C
E01C
E01C
E01C
E01C
6018
7038
7878
3FF0
0FC0
ENDCHAR
STARTCHAR 0215
ENCODING 533
SWIDTH 600 0
DWIDTH 18 0
BBX 14 24 2 0
BITMAP
7380
31C0
38C0
18E0
0C60
0000
0000
E01C
E01C
E01C
E01C
E01C
E01C
E01C
E01C
E01C
E01C
E01C
E01C
E03C
703C
78FC
3FDC
1F9C
ENDCHAR
STARTCHAR 0216
ENCODING 534
SWIDTH 600 0
DWIDTH 18 0
BBX 14 27 2 0
BITMAP
0F80
1FE0
1CE0
3030
0000
E01C
E01C
E01C
E01C
E01C
E01C
E01C
E01C
E01C
E01C
E01C
E01C
E01C
E01C
E01C
E01C
E01C
6018
7038
7878
3FF0
0FC0
ENDCHAR
STARTCHAR 0217
ENCODING 535
SWIDTH 600 0
DWIDTH 18 0
BBX 14 22 2 0
BITMAP
0F80
1FE0
1CE0
3030
0000
E01C
E01C
E01C
E01C
E01C
E01C
E01C
E01C
E01C
E01C
E01C
E01C
E03C
703C
78FC
3FDC
1F9C
ENDCHAR
STARTCHAR 0218
ENCODING 536
SWIDTH 600 0
DWIDTH 18 0
BBX 13 29 3 -7
BITMAP
0FE0
3FF0
7870
E000
E000
E000
E000
E000
7800
7E00
1F80
07E0
01F0
0070
0038
0038
0038
0038
8070
F1F0
FFE0
7F80
0000
0000
0600
0E00
0C00
0C00
0800
ENDCHAR
STARTCHAR 0219
ENCODING 537
SWIDTH 600 0
DWIDTH 18 0
BBX 12 24 3 -7
BITMAP
1FC0
3FF0
7860
E000
E000
7000
7800
3E00
0F80
03E0
00F0
0070
0070
8070
F1E0
FFE0
3F80
0000
0000
0700
0600
0E00
0C00
0800
ENDCHAR
STARTCHAR 021A
ENCODING 538
SWIDTH 600 0
DWIDTH 18 0
BBX 16 29 1 -7
BITMAP
FFFF
FFFF
0180
0180
0180
0180
0180
0180
0180
0180
0180
0180
0180
0180
0180
0180
0180
0180
0180
0180
0180
0180
0000
0000
0180
0380
0300
0300
0200
ENDCHAR
STARTCHAR 021B
ENCODING 539
SWIDTH 600 0
DWIDTH 18 0
BBX 13 29 2 -7
BITMAP
0600
0E00
0E00
0E00
0E00
FFF8
FFF8
0E00
0E00
0E00
0E00
0E00
0E00
0E00
0E00
0E00
0E00
0E00
0E00
0788
07F8
01F8
0000
0000
00E0
00C0
01C0
0180
0180
ENDCHAR
STARTCHAR 021C
ENCODING 540
SWIDTH 600 0
DWIDTH 18 0
BBX 14 28 2 -6
BITMAP
1FC0
7FF0
F8F8
4038
0018
0018
0018
0038
0078
00F0
07E0
1FE0
1C70
0038
001C
001C
001C
001C
001C
003C
0038
0078
01F0
07E0
1F80
FF00
F800
C000
ENDCHAR
STARTCHAR 021D
ENCODING 541
SWIDTH 600 0
DWIDTH 18 0
BBX 15 25 1 -8
BITMAP
0FE0
7FF8
387C
401C
000C
000C
001C
001C
0078
03F0
0FF8
0E3C
000E
000E
0006
0006
000E
000E
001C
0078
01F0
1FE0
FF00
F800
8000
ENDCHAR
STARTCHAR 021E
ENCODING 542
SWIDTH 600 0
DWIDTH 18 0
BBX 14 29 2 0
BITMAP
3030
1CE0
0FC0
0780
0780
0000
0000
E01C
E01C
E01C
E01C
E01C
E01C
E01C
E01C
E01C
FFFC
FFFC
E01C
E01C
E01C
E01C
E01C
E01C
E01C
E01C
E01C
E01C
E01C
ENDCHAR
STARTCHAR 021F
ENCODING 543
SWIDTH 600 0
DWIDTH 18 0
BBX 17 31 -1 0
BITMAP
C1C000
638000
370000
3E0000
1C0000
000000
000000
1C0000
1C0000
1C0000
1C0000
1C0000
1C0000
1C0000
1C7C00
1DFE00
1F8F00
1F0700
1E0380
1C0380
1C0380
1C0380
1C0380
1C0380
1C0380
1C0380
1C0380
1C0380
1C0380
1C0380
1C0380
ENDCHAR
STARTCHAR 0220
ENCODING 544
SWIDTH 600 0
DWIDTH 18 0
BBX 14 29 2 -7
BITMAP
E7E0
EFF0
FC78
F038
F01C
E01C
E01C
E01C
E01C
E01C
E01C
E01C
E01C
E01C
E01C
E01C
E01C
E01C
E01C
E01C
E01C
E01C
001C
001C
001C
001C
001C
001C
001C
ENDCHAR
STARTCHAR 0221
ENCODING 545
SWIDTH 600 0
DWIDTH 18 0
BBX 17 27 1 -3
BITMAP
018000
018000
018000
018000
018000
018000
018000
1D8000
7F8000
778000
E38000
E18000
E18000
C18000
C18000
C18000
C18000
C19F00
E19F00
E1B380
E3F380
76E700
7EFF00
3C7E00
006000
006000
006000
ENDCHAR
STARTCHAR 0222
ENCODING 546
SWIDTH 600 0
DWIDTH 18 0
BBX 14 22 2 0
BITMAP
6018
6018
6018
6018
6018
6018
7038
3C70
1FE0
3FF0
7078
E01C
E01C
C00C
C00C
C00C
C00C
E01C
E01C
7878
3FF0
0FC0
ENDCHAR
STARTCHAR 0223
ENCODING 547
SWIDTH 600 0
DWIDTH 18 0
BBX 14 24 2 0
BITMAP
6018
6018
6018
6018
6018
6018
7038
7038
3CF0
1FE0
3FF0
7878
E01C
E01C
C01C
C00C
C00C
C00C
E01C
E01C
703C
7CF8
3FF0
0FC0
ENDCHAR
STARTCHAR 0224
ENCODING 548
SWIDTH 600 0
DWIDTH 18 0
BBX 13 28 3 -6
BITMAP
FFF0
FFF0
0070
0060
00E0
00C0
01C0
0180
0380
0700
0700
0E00
0E00
1C00
1C00
3800
3800
7000
6000
E000
FFF8
FFF8
0038
0038
0038
0138
01F0
01E0
ENDCHAR
STARTCHAR 0225
ENCODING 549
SWIDTH 600 0
DWIDTH 18 0
BBX 13 23 3 -6
BITMAP
FFF0
FFF0
0070
00E0
00E0
01C0
0380
0700
0700
0E00
1C00
3800
3800
7000
E000
FFF8
FFF8
0038
0038
0038
0170
01F0
01E0
ENDCHAR
STARTCHAR 0226
ENCODING 550
SWIDTH 600 0
DWIDTH 18 0
BBX 16 29 1 0
BITMAP
0180
03C0
03C0
0180
0000
0000
0000
03C0
03C0
03C0
07E0
07E0
0660
0E60
0E70
0C30
0C30
1C38
1818
1818
3FFC
3FFC
300C
700E
700E
6006
E007
E007
C007
ENDCHAR
STARTCHAR 0227
ENCODING 551
SWIDTH 600 0
DWIDTH 18 0
BBX 13 24 2 0
BITMAP
0300
0780
0780
0300
0000
0000
0000
0FC0
7FF0
3878
2038
0018
0018
0018
1FF8
7FF8
7018
E018
E018
E038
E038
71F8
7FD8
1F18
ENDCHAR
STARTCHAR 0228
ENCODING 552
SWIDTH 600 0
DWIDTH 18 0
BBX 12 29 3 -7
BITMAP
FFF0
FFF0
E000
E000
E000
E000
E000
E000
E000
FFF0
FFF0
E000
E000
E000
E000
E000
E000
E000
E000
E000
FFF0
FFF0
0600
0E00
0780
0180
0180
1F80
1E00
ENDCHAR
STARTCHAR 0229
ENCODING 553
SWIDTH 600 0
DWIDTH 18 0
BBX 14 24 2 -7
BITMAP
07C0
1FF0
3C78
7038
E01C
E01C
E01C
FFFC
FFFC
E000
E000
E000
E000
7004
3C38
1FF8
07F0
0300
0300
07C0
00C0
00C0
0FC0
0F80
ENDCHAR
STARTCHAR 022A
ENCODING 554
SWIDTH 600 0
DWIDTH 18 0
BBX 16 32 1 0
BITMAP
0FF0
0FF0
0000
0000
1C38
1C38
1C38
1C38
0000
0000
07E0
1FF8
1E78
381C
700E
700E
700E
6006
E007
E007
E007
E007
E007
E007
6006
700E
700E
700E
381C
1E78
1FF0
07E0
ENDCHAR
STARTCHAR 022B
ENCODING 555
SWIDTH 600 0
DWIDTH 18 0
BBX 14 27 2 0
BITMAP
1FE0
1FE0
0000
0000
3870
3870
3870
3870
0000
0000
0FC0
3FF0
7CF8
7038
E01C
E01C
C01C
C00C
C00C
C00C
C01C
E01C
E01C
7038
7CF8
3FF0
0FC0
ENDCHAR
STARTCHAR 022C
ENCODING 556
SWIDTH 600 0
DWIDTH 18 0
BBX 16 32 1 0
BITMAP
0FF0
0FF0
0000
0000
0F08
1FD8
19F8
10F0
0000
0000
07E0
1FF8
1E78
381C
700E
700E
700E
6006
E007
E007
E007
E007
E007
E007
6006
700E
700E
700E
381C
1E78
1FF0
07E0
ENDCHAR
STARTCHAR 022D
ENCODING 557
SWIDTH 600 0
DWIDTH 18 0
BBX 14 27 2 0
BITMAP
1FE0
1FE0
0000
0000
1E10
3FB0
33F0
21E0
0000
0000
0FC0
3FF0
7CF8
7038
E01C
E01C
C01C
C00C
C00C
C00C
C01C
E01C
E01C
7038
7CF8
3FF0
0FC0
ENDCHAR
STARTCHAR 022E
ENCODING 558
SWIDTH 600 0
DWIDTH 18 0
BBX 16 29 1 0
BITMAP
0180
03C0
03C0
0180
0000
0000
0000
07E0
1FF8
1E78
381C
700E
700E
700E
6006
E007
E007
E007
E007
E007
E007
6006
700E
700E
700E
381C
1E78
1FF0
07E0
ENDCHAR
STARTCHAR 022F
ENCODING 559
SWIDTH 600 0
DWIDTH 18 0
BBX 14 24 2 0
BITMAP
0300
0780
0780
0300
0000
0000
0000
0FC0
3FF0
7CF8
7038
E01C
E01C
C01C
C00C
C00C
C00C
C01C
E01C
E01C
7038
7CF8
3FF0
0FC0
ENDCHAR
STARTCHAR 0230
ENCODING 560
SWIDTH 600 0
DWIDTH 18 0
BBX 16 32 1 0
BITMAP
0FF0
0FF0
0000
0180
03C0
03C0
0180
0000
0000
0000
07E0
1FF8
1E78
381C
700E
700E
700E
6006
E007
E007
E007
E007
E007
E007
6006
700E
700E
700E
381C
1E78
1FF0
07E0
ENDCHAR
STARTCHAR 0231
ENCODING 561
SWIDTH 600 0
DWIDTH 18 0
BBX 14 26 2 0
BITMAP
1FE0
1FE0
0300
0780
0780
0300
0000
0000
0000
0FC0
3FF0
7CF8
7038
E01C
E01C
C01C
C00C
C00C
C00C
C01C
E01C
E01C
7038
7CF8
3FF0
0FC0
ENDCHAR
STARTCHAR 0232
ENCODING 562
SWIDTH 600 0
DWIDTH 18 0
BBX 16 26 1 0
BITMAP
0FF0
0FF0
0000
0000
E007
700E
700E
381C
381C
1818
1C38
0C30
0E70
0660
07E0
03C0
03C0
0180
0180
0180
0180
0180
0180
0180
0180
0180
ENDCHAR
STARTCHAR 0233
ENCODING 563
SWIDTH 600 0
DWIDTH 18 0
BBX 16 28 1 -7
BITMAP
0FF0
0FF0
0000
0000
E007
700E
700E
300C
381C
181C
1C18
1C38
0C38
0E30
0670
0760
0760
03E0
03C0
01C0
01C0
0180
0380
0380
0700
0F00
7E00
7C00
ENDCHAR
STARTCHAR 0234
ENCODING 564
SWIDTH 600 0
DWIDTH 18 0
BBX 13 25 2 -1
BITMAP
1C00
1C00
1C00
1C00
1C00
1C00
1C00
1C00
1C00
1C00
1C00
1C00
1C00
1C00
1C00
1C00
1C00
1FF0
1FF8
3C18
7C18
6E38
EFF8
C3E0
4000
ENDCHAR
STARTCHAR 0235
ENCODING 565
SWIDTH 600 0
DWIDTH 18 0
BBX 16 18 1 -1
BITMAP
CF80
DFC0
F9E0
E0E0
E060
E060
E060
E060
E060
E060
E07E
E07F
E063
E0E3
E0F7
E1BF
E19E
0080
ENDCHAR
STARTCHAR 0236
ENCODING 566
SWIDTH 600 0
DWIDTH 18 0
BBX 15 22 1 0
BITMAP
0700
0700
0700
0700
0700
FFFC
FFFC
0700
0700
0700
0700
0700
0700
0700
0700
07FC
07FE
0F0E
0F06
1F9E
3BFC
31F8
ENDCHAR
STARTCHAR 0237
ENCODING 567
SWIDTH 600 0
DWIDTH 18 0
BBX 10 24 2 -7
BITMAP
3FC0
3FC0
01C0
01C0
01C0
01C0
01C0
01C0
01C0
01C0
01C0
01C0
01C0
01C0
01C0
01C0
01C0
01C0
01C0
01C0
03C0
8780
FF00
FE00
ENDCHAR
STARTCHAR 0238
ENCODING 568
SWIDTH 600 0
DWIDTH 18 0
BBX 16 24 1 0
BITMAP
0180
0180
0180
0180
0180
0180
0180
3DBC
7FFE
77EE
E3C6
E3C7
E187
C187
C183
C183
C183
C187
E187
E387
63C6
77EE
7E7C
3C38
ENDCHAR
STARTCHAR 0239
ENCODING 569
SWIDTH 600 0
DWIDTH 18 0
BBX 16 24 1 -8
BITMAP
1C3C
3E7E
77EE
63C6
E1C7
E187
E183
C183
C183
C183
E183
E187
E187
63C7
77EE
7FFE
3DBC
0180
0180
0180
0180
0180
0180
0180
ENDCHAR
STARTCHAR 023A
ENCODING 570
SWIDTH 600 0
DWIDTH 18 0
BBX 16 26 1 -2
BITMAP
0018
0018
03D8
03F0
03F0
07F0
07E0
0660
0E70
0E70
0CF0
0CF0
1CF8
1998
1998
3FFC
3FFC
330C
730E
730E
6606
E607
E607
CC07
0C00
0C00
ENDCHAR
STARTCHAR 023B
ENCODING 571
SWIDTH 600 0
DWIDTH 18 0
BBX 15 26 2 -2
BITMAP
0038
0030
03F8
0FFE
1E7C
3864
7060
70E0
60C0
E0C0
E0C0
E180
E180
E180
E300
E300
E300
E700
7600
7600
3E00
3F1C
1FFC
0FF8
1800
1800
ENDCHAR
STARTCHAR 023C
ENCODING 572
SWIDTH 600 0
DWIDTH 18 0
BBX 13 30 3 -6
BITMAP
0018
0030
0030
0030
0060
0060
0060
0FE0
3FF0
7DF0
7180
E180
E380
C300
C300
C600
C600
C600
EC00
EC00
FC00
7C70
3FF0
1FE0
3000
3000
3000
6000
6000
E000
ENDCHAR
STARTCHAR 023D
ENCODING 573
SWIDTH 600 0
DWIDTH 18 0
BBX 15 22 0 0
BITMAP
1C00
1C00
1C00
1C00
1C00
1C00
1C00
1C00
1C00
1C00
FFE0
FFE0
1C00
1C00
1C00
1C00
1C00
1C00
1C00
1FFE
1FFE
1FFE
ENDCHAR
STARTCHAR 023E
ENCODING 574
SWIDTH 600 0
DWIDTH 18 0
BBX 16 26 1 -2
BITMAP
0006
0006
FFFF
FFFF
0198
0198
01B0
01B0
01E0
01E0
01C0
01C0
0180
0180
0380
0380
0780
0780
0780
0D80
0D80
1980
1980
3180
3000
6000
ENDCHAR
STARTCHAR 023F
ENCODING 575
SWIDTH 600 0
DWIDTH 18 0
BBX 12 24 3 -7
BITMAP
1FC0
3FF0
7860
E000
E000
7000
7800
3E00
0F80
03E0
00F0
0070
0070
8070
F1E0
FFE0
7F80
1800
1C00
0C00
0E00
0F10
07E0
03E0
ENDCHAR
STARTCHAR 0240
ENCODING 576
SWIDTH 600 0
DWIDTH 18 0
BBX 12 24 3 -7
BITMAP
FFF0
FFF0
0070
00E0
01C0
01C0
0380
0700
0600
0E00
1C00
3800
3800
7000
E000
F800
FC00
1C00
0E00
0E00
0600
0790
03F0
01F0
ENDCHAR
STARTCHAR 0241
ENCODING 577
SWIDTH 600 0
DWIDTH 18 0
BBX 14 22 2 0
BITMAP
1FC0
FFF0
F0F8
C03C
001C
001C
001C
001C
001C
0038
0078
01F0
07E0
0780
0700
0700
0700
0700
0700
0700
0700
0700
ENDCHAR
STARTCHAR 0242
ENCODING 578
SWIDTH 600 0
DWIDTH 18 0
BBX 12 17 3 0
BITMAP
1F80
FFC0
71E0
40E0
0070
0070
0070
0070
0060
00E0
01C0
03C0
0F80
0E00
0C00
0C00
0C00
ENDCHAR
STARTCHAR 0243
ENCODING 579
SWIDTH 600 0
DWIDTH 18 0
BBX 16 22 0 0
BITMAP
1FF0
1FFC
181E
180F
1807
1807
1807
1806
180E
1FF8
1FF8
181E
1807
1807
1803
FF83
FF87
1807
1807
181E
1FFC
1FF8
ENDCHAR
STARTCHAR 0244
ENCODING 580
SWIDTH 600 0
DWIDTH 18 0
BBX 18 22 0 0
BITMAP
380700
380700
380700
380700
380700
380700
380700
380700
FFFFC0
FFFFC0
380700
380700
380700
380700
380700
380700
380700
180600
1C0E00
0E1C00
0FFC00
03F000
ENDCHAR
STARTCHAR 0245
ENCODING 581
SWIDTH 600 0
DWIDTH 18 0
BBX 16 22 1 0
BITMAP
03C0
03C0
03C0
07C0
07E0
0660
0E60
0E70
0E70
0C30
1C38
1C38
1818
381C
381C
300C
700E
700E
700E
E007
E007
E007
ENDCHAR
STARTCHAR 0246
ENCODING 582
SWIDTH 600 0
DWIDTH 18 0
BBX 12 26 3 -2
BITMAP
0030
0030
FFF0
FFF0
E060
E060
E0C0
E0C0
E0C0
E180
E180
FFF0
FFF0
E300
E300
E300
E600
E600
E600
EE00
EC00
EC00
FFF0
FFF0
1800
3800
ENDCHAR
STARTCHAR 0247
ENCODING 583
SWIDTH 600 0
DWIDTH 18 0
BBX 14 30 2 -6
BITMAP
0018
0018
0030
0030
0030
0060
0060
07E0
1FF0
3CF8
70F8
E19C
E19C
E19C
FFFC
FFFC
E300
E600
E600
E600
7C04
3C38
1FF8
1FF0
1800
3000
3000
3000
6000
6000
ENDCHAR
STARTCHAR 0248
ENCODING 584
SWIDTH 600 0
DWIDTH 18 0
BBX 15 28 0 -6
BITMAP
00E0
00E0
00E0
00E0
00E0
00E0
00E0
00E0
00E0
00E0
0FFE
0FFE
00E0
00E0
00E0
00E0
00E0
00E0
00E0
00E0
00E0
00E0
00E0
00C0
01C0
C7C0
FF80
7E00
ENDCHAR
STARTCHAR 0249
ENCODING 585
SWIDTH 600 0
DWIDTH 18 0
BBX 14 31 2 -7
BITMAP
01C0
03C0
03C0
01C0
0000
0000
0000
3FC0
3FC0
01C0
01C0
01C0
01C0
01C0
1FFC
1FFC
01C0
01C0
01C0
01C0
01C0
01C0
01C0
01C0
01C0
01C0
01C0
03C0
8780
FF00
FE00
ENDCHAR
STARTCHAR 024A
ENCODING 586
SWIDTH 600 0
DWIDTH 18 0
BBX 18 29 1 -7
BITMAP
07C600
1FE600
3E7E00
381E00
701E00
700E00
700E00
600E00
E00E00
E00E00
E00E00
E00E00
E00E00
E00E00
600E00
700E00
700E00
701E00
381E00
3E7E00
1FEE00
07CE00
000E00
000E00
000E00
000E00
000740
0007C0
0003C0
ENDCHAR
STARTCHAR 024B
ENCODING 587
SWIDTH 600 0
DWIDTH 18 0
BBX 17 24 2 -7
BITMAP
0F9C00
3FDC00
7CFC00
703C00
E03C00
E01C00
E01C00
C01C00
C01C00
E01C00
E01C00
E01C00
E03C00
703C00
7CFC00
3FDC00
0F9C00
001C00
001C00
001C00
001C00
001C80
000F80
000780
ENDCHAR
STARTCHAR 024C
ENCODING 588
SWIDTH 600 0
DWIDTH 18 0
BBX 17 22 0 0
BITMAP
1FE000
1FF800
1C3C00
1C0E00
1C0E00
1C0600
1C0600
1C0E00
1C0E00
1C0E00
1C3C00
FFF800
FFE000
1C7000
1C3800
1C3800
1C1C00
1C1C00
1C0E00
1C0700
1C0700
1C0380
ENDCHAR
STARTCHAR 024D
ENCODING 589
SWIDTH 600 0
DWIDTH 18 0
BBX 15 17 2 0
BITMAP
FE3E
FE7E
0EE6
0780
0700
0700
0700
0700
7FE0
7FE0
0600
0600
0600
0600
0600
FFF0
FFF0
ENDCHAR
STARTCHAR 024E
ENCODING 590
SWIDTH 600 0
DWIDTH 18 0
BBX 18 22 0 0
BITMAP
700380
380700
380700
1C0E00
FFFFC0
FFFFC0
0E1C00
061800
073800
033000
03F000
01E000
01E000
00C000
00C000
00C000
00C000
00C000
00C000
00C000
00C000
00C000
ENDCHAR
STARTCHAR 024F
ENCODING 591
SWIDTH 600 0
DWIDTH 18 0
BBX 16 24 1 -7
BITMAP
E007
700E
700E
380C
381C
FFFF
FFFF
0C38
0E30
0E30
0670
0760
0360
03E0
03C0
01C0
01C0
0180
0380
0300
0700
0F00
7E00
7C00
ENDCHAR
STARTCHAR 0250
ENCODING 592
SWIDTH 600 0
DWIDTH 18 0
BBX 13 17 3 -1
BITMAP
C7C0
DFF0
FC70
E038
E038
C038
C038
C0F0
FFF0
FFC0
C000
C000
C000
E020
F0E0
7FF0
1F80
ENDCHAR
STARTCHAR 0251
ENCODING 593
SWIDTH 600 0
DWIDTH 18 0
BBX 16 17 2 0
BITMAP
0F9C
3FDC
7CFC
703C
E03C
E01C
E01C
C01C
C01C
C01C
C01C
E01C
E03C
703C
78FC
3FDF
0F8F
ENDCHAR
STARTCHAR 0252
ENCODING 594
SWIDTH 600 0
DWIDTH 18 0
BBX 16 17 0 -1
BITMAP
F1F0
F3FC
3F1E
3C0E
3C07
3807
3807
3803
3803
3803
3807
3807
3C07
3C0E
3F3E
3BFC
39F0
ENDCHAR
STARTCHAR 0253
ENCODING 595
SWIDTH 600 0
DWIDTH 18 0
BBX 14 24 2 0
BITMAP
3C00
7C00
7400
E000
E000
E000
E000
E7C0
EFF0
FCF8
F038
F01C
E01C
E01C
E00C
E00C
E00C
E01C
E01C
F01C
F038
FCF8
EFF0
E7C0
ENDCHAR
STARTCHAR 0254
ENCODING 596
SWIDTH 600 0
DWIDTH 18 0
BBX 12 17 3 0
BITMAP
7F00
FFC0
E3E0
00E0
0070
0070
0030
0030
0030
0030
0030
0070
0070
00F0
C3E0
FFC0
7F00
ENDCHAR
STARTCHAR 0255
ENCODING 597
SWIDTH 600 0
DWIDTH 18 0
BBX 13 18 2 -1
BITMAP
07F0
1FF8
3E38
3800
7000
7000
6000
6000
6000
63F0
6FF8
7E38
7818
3818
7E78
7FF0
E7E0
4000
ENDCHAR
STARTCHAR 0256
ENCODING 598
SWIDTH 600 0
DWIDTH 18 0
BBX 17 31 2 -7
BITMAP
001C00
001C00
001C00
001C00
001C00
001C00
001C00
0F9C00
3FDC00
78FC00
703C00
E03C00
E01C00
E01C00
C01C00
C01C00
C01C00
C01C00
E01C00
E03C00
703C00
78FC00
3FDC00
1F9C00
001C00
001C00
001C00
001C00
001C80
000F80
000780
ENDCHAR
STARTCHAR 0257
ENCODING 599
SWIDTH 600 0
DWIDTH 18 0
BBX 16 24 2 0
BITMAP
0007
000F
001D
001C
001C
001C
001C
0F9C
3FDC
7CFC
703C
E03C
E01C
E01C
C01C
C01C
C01C
E01C
E01C
E03C
703C
7CFC
3FDC
0F9C
ENDCHAR
STARTCHAR 0258
ENCODING 600
SWIDTH 600 0
DWIDTH 18 0
BBX 14 17 2 0
BITMAP
0F80
3FE0
78F0
7038
E018
E01C
E01C
FFFC
FFFC
001C
001C
001C
001C
8038
70F0
7FE0
3F80
ENDCHAR
STARTCHAR 0259
ENCODING 601
SWIDTH 600 0
DWIDTH 18 0
BBX 14 17 2 -1
BITMAP
3F80
7FE0
70F0
8038
001C
001C
001C
001C
FFFC
FFFC
E01C
E01C
E018
7038
78F0
3FE0
0FC0
ENDCHAR
STARTCHAR 025A
ENCODING 602
SWIDTH 600 0
DWIDTH 18 0
BBX 16 17 2 0
BITMAP
3E00
FF00
C780
01C0
00C0
00D0
01F0
0FD8
7ED8
F0DF
C0CF
C0C0
C1C0
C180
F380
7F00
3E00
ENDCHAR
STARTCHAR 025B
ENCODING 603
SWIDTH 600 0
DWIDTH 18 0
BBX 12 17 3 0
BITMAP
0FC0
3FF0
7870
6000
6000
6000
7800
3F80
1F80
7800
E000
E000
E000
E010
7870
3FF0
1FE0
ENDCHAR
STARTCHAR 025C
ENCODING 604
SWIDTH 600 0
DWIDTH 18 0
BBX 13 17 2 0
BITMAP
1FC0
7FE0
70F0
0030
0038
0030
00F0
0FC0
0FE0
0070
0038
0018
0018
8038
F0F0
FFF0
3FC0
ENDCHAR
STARTCHAR 025D
ENCODING 605
SWIDTH 600 0
DWIDTH 18 0
BBX 18 17 0 0
BITMAP
1F8000
7FE000
70F400
003C00
003600
007600
01E7C0
1FC3C0
1FC000
007000
003800
003800
003800
803800
F0F000
FFE000
3F8000
ENDCHAR
STARTCHAR 025E
ENCODING 606
SWIDTH 600 0
DWIDTH 18 0
BBX 15 17 2 0
BITMAP
07E0
1FF8
3C3C
701C
E00C
E01C
E03C
C3F0
C3F8
C03C
E00C
E00E
E00E
701C
7E3C
3FF8
0FE0
ENDCHAR
STARTCHAR 025F
ENCODING 607
SWIDTH 600 0
DWIDTH 18 0
BBX 12 24 2 -7
BITMAP
3FC0
3FC0
01C0
01C0
01C0
01C0
01C0
07F0
07F0
01C0
01C0
01C0
01C0
01C0
01C0
01C0
01C0
01C0
01C0
01C0
03C0
8780
FF00
FE00
ENDCHAR
STARTCHAR 0260
ENCODING 608
SWIDTH 600 0
DWIDTH 18 0
BBX 17 31 2 -7
BITMAP
000780
000F80
001C80
001C00
001C00
001C00
001C00
0F9C00
3FDC00
7CFC00
703C00
E03C00
E01C00
E01C00
C01C00
C01C00
C01C00
E01C00
E01C00
E01C00
703C00
7CFC00
3FDC00
0F9C00
001C00
001800
001800
803800
F0F000
FFF000
3FC000
ENDCHAR
STARTCHAR 0261
ENCODING 609
SWIDTH 600 0
DWIDTH 18 0
BBX 14 24 2 -7
BITMAP
0F9C
3FDC
7CFC
703C
E03C
E01C
E01C
C01C
C01C
C01C
E01C
E01C
E01C
703C
7CFC
3FDC
0F9C
001C
0018
0018
8038
F0F0
FFF0
3FC0
ENDCHAR
STARTCHAR 0262
ENCODING 610
SWIDTH 600 0
DWIDTH 18 0
BBX 14 17 2 0
BITMAP
07F0
1FF8
3E38
7000
7000
E000
E000
E000
E1FC
E1FC
E01C
E01C
E01C
701C
3C3C
1FFC
0FF0
ENDCHAR
STARTCHAR 0263
ENCODING 611
SWIDTH 600 0
DWIDTH 18 0
BBX 18 24 0 -7
BITMAP
F003C0
700380
380300
380700
180600
1C0E00
0C0C00
0E1C00
061800
073800
033000
03F000
01F000
01E000
01E000
01E000
03F000
033000
073800
073800
073800
073800
03F000
01E000
ENDCHAR
STARTCHAR 0264
ENCODING 612
SWIDTH 600 0
DWIDTH 18 0
BBX 16 17 1 0
BITMAP
E007
F00F
381D
1C38
1C30
0E70
07E0
03C0
03C0
03C0
07E0
0660
0660
0660
06E0
07E0
03C0
ENDCHAR
STARTCHAR 0265
ENCODING 613
SWIDTH 600 0
DWIDTH 18 0
BBX 14 24 2 -8
BITMAP
E01C
E01C
E01C
E01C
E01C
E01C
E01C
E01C
E01C
E01C
E01C
E01C
E03C
707C
78FC
3FDC
1F1C
001C
001C
001C
001C
001C
001C
001C
ENDCHAR
STARTCHAR 0266
ENCODING 614
SWIDTH 600 0
DWIDTH 18 0
BBX 14 24 2 0
BITMAP
3C00
7C00
7400
E000
E000
E000
E000
E3E0
EFF0
FC78
F838
F01C
E01C
E01C
E01C
E01C
E01C
E01C
E01C
E01C
E01C
E01C
E01C
E01C
ENDCHAR
STARTCHAR 0267
ENCODING 615
SWIDTH 600 0
DWIDTH 18 0
BBX 14 31 2 -7
BITMAP
3C00
7C00
7400
E000
E000
E000
E000
E3E0
EFF0
FC78
F838
F01C
E01C
E01C
E01C
E01C
E01C
E01C
E01C
E01C
E01C
E01C
E01C
E01C
001C
001C
001C
001C
00BC
00F8
00F0
ENDCHAR
STARTCHAR 0268
ENCODING 616
SWIDTH 600 0
DWIDTH 18 0
BBX 14 24 2 0
BITMAP
0380
0780
0780
0380
0000
0000
0000
7F80
7F80
0780
0380
0380
0380
0380
0380
3FF0
3FF0
0380
0380
0380
0380
0380
FFFC
FFFC
ENDCHAR
STARTCHAR 0269
ENCODING 617
SWIDTH 600 0
DWIDTH 18 0
BBX 7 17 8 0
BITMAP
C0
C0
C0
C0
C0
C0
C0
C0
C0
C0
C0
C0
C0
E0
E2
7E
3E
ENDCHAR
STARTCHAR 026A
ENCODING 618
SWIDTH 600 0
DWIDTH 18 0
BBX 12 17 3 0
BITMAP
FFF0
FFF0
0600
0600
0600
0600
0600
0600
0600
0600
0600
0600
0600
0600
0600
FFF0
FFF0
ENDCHAR
STARTCHAR 026B
ENCODING 619
SWIDTH 600 0
DWIDTH 18 0
BBX 14 24 2 0
BITMAP
7F80
7F80
0380
0380
0380
0380
0380
0380
0380
0380
0F98
1F98
3BF0
33F0
0380
0380
0380
0380
0380
0380
0380
0380
FFFC
FFFC
ENDCHAR
STARTCHAR 026C
ENCODING 620
SWIDTH 600 0
DWIDTH 18 0
BBX 14 24 2 0
BITMAP
7F80
7F80
0380
0380
0380
0380
0380
0380
1F80
3F80
3B80
3380
3380
3FF0
1FF0
0380
0380
0380
0380
0380
0380
0380
FFFC
FFFC
ENDCHAR
STARTCHAR 026D
ENCODING 621
SWIDTH 600 0
DWIDTH 18 0
BBX 13 31 3 -7
BITMAP
FF00
FF00
0700
0700
0700
0700
0700
0700
0700
0700
0700
0700
0700
0700
0700
0700
0700
0700
0700
0700
0700
0700
0700
0700
0700
0700
0700
0380
03C8
01F8
00F8
ENDCHAR
STARTCHAR 026E
ENCODING 622
SWIDTH 600 0
DWIDTH 18 0
BBX 15 31 2 -7
BITMAP
E000
E000
E000
E000
E000
E000
E000
FFFC
FFFC
E01C
E038
E070
E0E0
E0E0
E1C0
E380
E700
E7F0
E7F8
E03C
E01C
E00E
E00E
E00E
000E
000E
000C
001C
3878
3FF0
1FC0
ENDCHAR
STARTCHAR 026F
ENCODING 623
SWIDTH 600 0
DWIDTH 18 0
BBX 16 17 1 -1
BITMAP
E187
E187
E187
E187
E187
E187
E187
E187
E187
E187
E187
E187
6387
63CF
77CF
7FFF
3CF3
ENDCHAR
STARTCHAR 0270
ENCODING 624
SWIDTH 600 0
DWIDTH 18 0
BBX 16 24 1 -7
BITMAP
E187
E187
E187
E187
E187
E187
E187
E187
E187
E187
E187
E187
6387
63CF
77FF
7EFF
3CF7
0007
0007
0007
0007
0007
0007
0007
ENDCHAR
STARTCHAR 0271
ENCODING 625
SWIDTH 600 0
DWIDTH 18 0
BBX 16 24 1 -7
BITMAP
CF3C
FF7E
F3EE
F3C6
E1C6
E187
E187
E187
E187
E187
E187
E187
E187
E187
E187
E187
E187
0007
0007
0007
0007
002E
003E
003C
ENDCHAR
STARTCHAR 0272
ENCODING 626
SWIDTH 600 0
DWIDTH 18 0
BBX 17 24 -1 -7
BITMAP
1C7C00
1DFE00
1F8F00
1E0700
1E0380
1C0380
1C0380
1C0380
1C0380
1C0380
1C0380
1C0380
1C0380
1C0380
1C0380
1C0380
1C0380
1C0000
1C0000
1C0000
1C0000
9C0000
F80000
F00000
ENDCHAR
STARTCHAR 0273
ENCODING 627
SWIDTH 600 0
DWIDTH 18 0
BBX 17 24 2 -7
BITMAP
E3E000
EFF000
FC7800
F03800
F01C00
E01C00
E01C00
E01C00
E01C00
E01C00
E01C00
E01C00
E01C00
E01C00
E01C00
E01C00
E01C00
001C00
001C00
001C00
001C00
001E80
000F80
000780
ENDCHAR
STARTCHAR 0274
ENCODING 628
SWIDTH 600 0
DWIDTH 18 0
BBX 14 17 2 0
BITMAP
E01C
F01C
F81C
F81C
DC1C
FE1C
EE1C
E71C
E79C
E39C
E1DC
E1EC
E0EC
E07C
E07C
E03C
E03C
ENDCHAR
STARTCHAR 0275
ENCODING 629
SWIDTH 600 0
DWIDTH 18 0
BBX 14 17 2 0
BITMAP
0FC0
3FF0
7CF8
7038
E01C
E01C
C01C
FFFC
FFFC
C00C
E01C
E01C
E01C
7038
7CF8
3FF0
0FC0
ENDCHAR
STARTCHAR 0276
ENCODING 630
SWIDTH 600 0
DWIDTH 18 0
BBX 16 17 1 0
BITMAP
1EFF
3FFF
7BC0
61C0
E0C0
E0C0
E0C0
E0FE
E0FE
E0C0
E0C0
E0C0
E0C0
61C0
7BC0
3FFF
1EFF
ENDCHAR
STARTCHAR 0277
ENCODING 631
SWIDTH 600 0
DWIDTH 18 0
BBX 16 17 1 0
BITMAP
07E0
1FF8
3E3C
700E
700E
E007
E007
C183
C183
C183
C183
C183
E187
E3C7
77CE
7E7E
3C3C
ENDCHAR
STARTCHAR 0278
ENCODING 632
SWIDTH 600 0
DWIDTH 18 0
BBX 14 31 2 -7
BITMAP
0300
0300
0300
0300
0300
0300
0300
0FC0
3FF0
7B78
6338
E31C
E31C
C30C
C30C
C30C
C30C
C30C
E31C
E31C
7338
7B78
3FF0
0FC0
0300
0300
0300
0300
0300
0300
0300
ENDCHAR
STARTCHAR 0279
ENCODING 633
SWIDTH 600 0
DWIDTH 18 0
BBX 15 17 1 -1
BITMAP
1FFE
1FFE
00C0
00C0
00C0
00C0
00C0
00C0
01C0
01C0
01C0
01C0
03C0
03C0
CEF0
FCFE
F8FE
ENDCHAR
STARTCHAR 027A
ENCODING 634
SWIDTH 600 0
DWIDTH 18 0
BBX 15 24 1 0
BITMAP
00C0
00C0
00C0
00C0
00C0
00C0
00C0
00C0
00C0
00C0
00C0
00C0
00C0
00C0
00C0
00C0
01C0
01C0
01C0
03C0
03C0
CEC0
FCFE
F8FE
ENDCHAR
STARTCHAR 027B
ENCODING 635
SWIDTH 600 0
DWIDTH 18 0
BBX 14 24 2 -7
BITMAP
3FFC
3FFC
0180
0180
0180
0180
0180
0180
0180
0180
0380
0380
0380
0780
BD80
FD80
F180
0180
0180
0180
0180
01C8
01F8
00F8
ENDCHAR
STARTCHAR 027C
ENCODING 636
SWIDTH 600 0
DWIDTH 18 0
BBX 15 24 2 -7
BITMAP
FE3E
FE7E
0EE6
0780
0700
0700
0700
0700
0600
0600
0600
0600
0600
0600
0600
0600
0600
0600
0600
0600
0600
0600
0600
0600
ENDCHAR
STARTCHAR 027D
ENCODING 637
SWIDTH 600 0
DWIDTH 18 0
BBX 15 24 2 -7
BITMAP
FE3E
FE7E
06E6
0780
0700
0700
0700
0700
0600
0600
0600
0600
0600
0600
0600
0600
0600
0600
0600
0700
0700
0790
03F0
01F0
ENDCHAR
STARTCHAR 027E
ENCODING 638
SWIDTH 600 0
DWIDTH 18 0
BBX 10 17 5 0
BITMAP
0FC0
3FC0
78C0
7000
E000
E000
E000
E000
E000
E000
E000
E000
E000
E000
E000
E000
E000
ENDCHAR
STARTCHAR 027F
ENCODING 639
SWIDTH 600 0
DWIDTH 18 0
BBX 10 24 3 -7
BITMAP
FC00
FF00
C780
0380
0180
01C0
01C0
01C0
01C0
01C0
01C0
01C0
01C0
01C0
01C0
01C0
01C0
01C0
01C0
01C0
01C0
01C0
01C0
01C0
ENDCHAR
STARTCHAR 0280
ENCODING 640
SWIDTH 600 0
DWIDTH 18 0
BBX 13 17 3 0
BITMAP
FF80
FFE0
E0F0
E070
E030
E030
E070
E0F0
FFE0
FFC0
E380
E1C0
E1C0
E0E0
E070
E070
E038
ENDCHAR
STARTCHAR 0281
ENCODING 641
SWIDTH 600 0
DWIDTH 18 0
BBX 13 17 3 -1
BITMAP
E038
E070
E070
E0E0
E1C0
E1C0
E380
FFC0
FFE0
E0F0
E070
E030
E030
E070
E0F0
FFE0
FF80
ENDCHAR
STARTCHAR 0282
ENCODING 642
SWIDTH 600 0
DWIDTH 18 0
BBX 12 23 3 -6
BITMAP
1FC0
3FF0
7860
E000
E000
7000
7800
3E00
0F80
03E0
00F0
0070
0070
8070
F1E0
FFE0
FF80
E000
E000
E000
F200
7E00
3E00
ENDCHAR
STARTCHAR 0283
ENCODING 643
SWIDTH 600 0
DWIDTH 18 0
BBX 14 31 2 -7
BITMAP
007C
01FC
03C4
0380
0300
0300
0300
0300
0300
0300
0300
0300
0300
0300
0300
0300
0300
0300
0300
0300
0300
0300
0300
0300
0300
0300
0700
0700
8E00
FE00
F800
ENDCHAR
STARTCHAR 0284
ENCODING 644
SWIDTH 600 0
DWIDTH 18 0
BBX 14 31 2 -7
BITMAP
007C
01FC
03C4
0380
0300
0300
0300
0300
0300
0300
0300
0300
0300
0300
7FF0
7FF0
0300
0300
0300
0300
0300
0300
0300
0300
0300
0300
0700
0700
8E00
FE00
F800
ENDCHAR
STARTCHAR 0285
ENCODING 645
SWIDTH 600 0
DWIDTH 18 0
BBX 14 24 2 -7
BITMAP
F800
FE00
8F00
0700
0300
0300
0300
0300
0300
0300
0300
0300
0300
0300
0300
0300
0300
0300
0300
0300
0380
01C4
01FC
007C
ENDCHAR
STARTCHAR 0286
ENCODING 646
SWIDTH 600 0
DWIDTH 18 0
BBX 14 31 2 -7
BITMAP
007C
01FC
03C4
0380
0300
0300
0300
0300
0300
0300
0300
0300
0300
0300
0300
0300
0300
0300
0300
0300
0300
0300
0300
0300
7FE0
FFE0
E300
C300
E700
FE00
3C00
ENDCHAR
STARTCHAR 0287
ENCODING 647
SWIDTH 600 0
DWIDTH 18 0
BBX 13 22 3 -6
BITMAP
FC00
FF00
8F00
0380
0380
0380
0380
0380
0380
0380
0380
0380
0380
0380
0380
FFF8
FFF8
0380
0380
0380
0380
0300
ENDCHAR
STARTCHAR 0288
ENCODING 648
SWIDTH 600 0
DWIDTH 18 0
BBX 13 29 3 -7
BITMAP
0E00
0E00
0E00
0E00
0E00
FFF8
FFF8
0E00
0E00
0E00
0E00
0E00
0E00
0E00
0E00
0E00
0E00
0E00
0E00
0E00
0E00
0E00
0E00
0E00
0E00
0E00
0708
07F8
01F8
ENDCHAR
STARTCHAR 0289
ENCODING 649
SWIDTH 600 0
DWIDTH 18 0
BBX 18 17 0 0
BITMAP
380700
380700
380700
380700
380700
380700
380700
FFFFC0
FFFFC0
380700
380700
380700
380F00
3C0F00
1E3F00
0FF700
07E700
ENDCHAR
STARTCHAR 028A
ENCODING 650
SWIDTH 600 0
DWIDTH 18 0
BBX 16 17 1 -1
BITMAP
FE7F
FE7F
0C30
1818
300C
700E
6006
6006
6006
6006
6006
6006
700E
381C
3E7C
1FF8
07E0
ENDCHAR
STARTCHAR 028B
ENCODING 651
SWIDTH 600 0
DWIDTH 18 0
BBX 14 17 2 0
BITMAP
E1F0
E1F8
E138
E01C
E01C
E01C
E01C
E01C
E01C
E01C
E01C
E01C
E018
7038
7C78
3FF0
0FC0
ENDCHAR
STARTCHAR 028C
ENCODING 652
SWIDTH 600 0
DWIDTH 18 0
BBX 16 17 1 -1
BITMAP
03C0
03C0
07E0
07E0
0660
0E70
0E70
0C30
1C38
1C38
1818
381C
381C
300C
700E
700E
E007
ENDCHAR
STARTCHAR 028D
ENCODING 653
SWIDTH 600 0
DWIDTH 18 0
BBX 18 17 0 -1
BITMAP
1C0E00
1E1E00
1E1E00
1E1E00
3E1F00
3F3F00
333300
333300
333300
33F300
71E380
71E380
71E380
61E180
600180
600180
E001C0
ENDCHAR
STARTCHAR 028E
ENCODING 654
SWIDTH 600 0
DWIDTH 18 0
BBX 16 24 1 -1
BITMAP
003E
007E
00F0
00E0
01C0
01C0
0180
0380
0380
03C0
06C0
06E0
06E0
0E60
0C70
1C30
1C38
1838
3818
381C
300C
700E
700E
E007
ENDCHAR
STARTCHAR 028F
ENCODING 655
SWIDTH 600 0
DWIDTH 18 0
BBX 16 17 1 0
BITMAP
F00F
700E
381C
381C
1C38
0E70
0E70
07E0
03C0
03C0
0180
0180
0180
0180
0180
0180
0180
ENDCHAR
STARTCHAR 0290
ENCODING 656
SWIDTH 600 0
DWIDTH 18 0
BBX 16 24 3 -7
BITMAP
FFF0
FFF0
0070
00E0
00E0
01C0
0380
0700
0700
0E00
1C00
3800
3800
7000
E000
FFF0
FFF0
0030
0030
0030
0030
0039
001F
000F
ENDCHAR
STARTCHAR 0291
ENCODING 657
SWIDTH 600 0
DWIDTH 18 0
BBX 15 20 2 -3
BITMAP
7FF0
7FF0
0070
00E0
00C0
01C0
0380
0300
0700
0E00
1C7C
1CFE
39CE
7186
731E
FFFC
FFF8
0600
0E00
0200
ENDCHAR
STARTCHAR 0292
ENCODING 658
SWIDTH 600 0
DWIDTH 18 0
BBX 14 24 2 -7
BITMAP
FFF8
FFF8
0030
0070
00E0
01C0
0380
0700
0E00
1C00
1FC0
1FF0
0078
0038
001C
001C
001C
001C
001C
0038
8038
F1F0
FFE0
3F80
ENDCHAR
STARTCHAR 0293
ENCODING 659
SWIDTH 600 0
DWIDTH 18 0
BBX 16 24 1 -7
BITMAP
7FFC
7FFC
0038
0030
0070
00E0
01C0
0380
0700
0E00
0FE0
0FF8
0078
001C
000C
000E
3F8E
7FEE
E0FC
E03C
E03C
71FE
7FE7
1F82
ENDCHAR
STARTCHAR 0294
ENCODING 660
SWIDTH 600 0
DWIDTH 18 0
BBX 13 24 2 0
BITMAP
1FC0
7FE0
F0F0
4038
0038
0018
0018
0018
0038
0038
0070
00E0
03C0
0780
0600
0600
0600
0600
0600
0600
0600
0600
0600
0600
ENDCHAR
STARTCHAR 0295
ENCODING 661
SWIDTH 600 0
DWIDTH 18 0
BBX 13 24 3 0
BITMAP
1FC0
3FF0
7878
E010
E000
C000
C000
C000
E000
E000
7000
3800
1E00
0F00
0300
0300
0300
0300
0300
0300
0300
0300
0300
0300
ENDCHAR
STARTCHAR 0296
ENCODING 662
SWIDTH 600 0
DWIDTH 18 0
BBX 13 24 2 -8
BITMAP
0600
0600
0600
0600
0600
0600
0600
0600
0600
0600
0780
03C0
00E0
0070
0038
0038
0018
0018
0018
0038
4038
F0F0
7FE0
1FC0
ENDCHAR
STARTCHAR 0297
ENCODING 663
SWIDTH 600 0
DWIDTH 18 0
BBX 13 24 2 -7
BITMAP
03F0
0FF8
1E38
3800
3000
7000
7000
6000
6000
6000
E000
E000
E000
E000
6000
6000
6000
7000
7000
3000
3800
1E18
0FF8
07F0
ENDCHAR
STARTCHAR 0298
ENCODING 664
SWIDTH 600 0
DWIDTH 18 0
BBX 16 22 1 0
BITMAP
07E0
1FF8
1E78
381C
700E
700E
700E
6006
E007
E187
E3C7
E3C7
E187
E007
6006
700E
700E
700E
381C
1E78
1FF0
07E0
ENDCHAR
STARTCHAR 0299
ENCODING 665
SWIDTH 600 0
DWIDTH 18 0
BBX 12 17 4 0
BITMAP
FF80
FFE0
C0E0
C070
C070
C060
C0E0
FFC0
FFC0
C0E0
C070
C070
C070
C070
C0E0
FFE0
FF80
ENDCHAR
STARTCHAR 029A
ENCODING 666
SWIDTH 600 0
DWIDTH 18 0
BBX 15 17 1 0
BITMAP
0FC0
3FF0
7878
701C
600E
700E
780E
1F86
3F86
7806
600E
E00E
E00E
701C
78F8
3FF8
0FE0
ENDCHAR
STARTCHAR 029B
ENCODING 667
SWIDTH 600 0
DWIDTH 18 0
BBX 16 24 2 0
BITMAP
000F
001F
001D
0018
0018
0018
0018
07F8
1FF8
3E38
7000
7000
E000
E000
E000
E1F8
E1F8
E018
E018
6018
7018
3C38
1FF8
0FE0
ENDCHAR
STARTCHAR 029C
ENCODING 668
SWIDTH 600 0
DWIDTH 18 0
BBX 14 17 2 0
BITMAP
E01C
E01C
E01C
E01C
E01C
E01C
E01C
FFFC
FFFC
E01C
E01C
E01C
E01C
E01C
E01C
E01C
E01C
ENDCHAR
STARTCHAR 029D
ENCODING 669
SWIDTH 600 0
DWIDTH 18 0
BBX 11 31 3 -7
BITMAP
0380
0780
0780
0380
0000
0000
0000
7F80
7F80
0380
0380
0380
0380
0380
0380
0380
0380
0380
0380
0380
0380
0380
0380
0380
3FE0
7FE0
E380
E380
F780
7F00
3E00
ENDCHAR
STARTCHAR 029E
ENCODING 670
SWIDTH 600 0
DWIDTH 18 0
BBX 14 24 1 -8
BITMAP
E01C
701C
381C
381C
1C1C
0E1C
0F3C
077C
03FC
01DC
039C
071C
0E1C
1E1C
3C1C
381C
F01C
001C
001C
001C
001C
001C
001C
001C
ENDCHAR
STARTCHAR 029F
ENCODING 671
SWIDTH 600 0
DWIDTH 18 0
BBX 10 17 5 0
BITMAP
E000
E000
E000
E000
E000
E000
E000
E000
E000
E000
E000
E000
E000
E000
E000
FFC0
FFC0
ENDCHAR
STARTCHAR 02A0
ENCODING 672
SWIDTH 600 0
DWIDTH 18 0
BBX 17 31 2 -7
BITMAP
000780
000F80
001C80
001C00
001C00
001C00
001C00
0F9C00
3FDC00
7CFC00
703C00
E03C00
E01C00
E01C00
C01C00
C01C00
C01C00
E01C00
E01C00
E03C00
703C00
7CFC00
3FDC00
0F9C00
001C00
001C00
001C00
001C00
001C00
001C00
001C00
ENDCHAR
STARTCHAR 02A1
ENCODING 673
SWIDTH 600 0
DWIDTH 18 0
BBX 13 24 2 0
BITMAP
1FC0
7FE0
F0F0
4038
0038
0018
0018
0018
0038
0038
0070
00E0
03C0
0780
0600
0600
0600
7FE0
7FE0
0600
0600
0600
0600
0600
ENDCHAR
STARTCHAR 02A2
ENCODING 674
SWIDTH 600 0
DWIDTH 18 0
BBX 13 24 3 0
BITMAP
1FC0
3FF0
7878
E010
E000
C000
C000
C000
E000
E000
7000
3800
1E00
0F00
0300
0300
0300
3FF0
3FF0
0300
0300
0300
0300
0300
ENDCHAR
STARTCHAR 02A3
ENCODING 675
SWIDTH 600 0
DWIDTH 18 0
BBX 18 24 0 0
BITMAP
00C000
00C000
00C000
00C000
00C000
00C000
00C000
1CFF80
3EFF80
7BC180
71C380
61C380
60C300
60C700
E0C700
E0C600
E0CE00
60CC00
60DC00
61DC00
71D800
71F800
3EFFC0
1EFFC0
ENDCHAR
STARTCHAR 02A4
ENCODING 676
SWIDTH 600 0
DWIDTH 18 0
BBX 16 31 1 -7
BITMAP
0380
0380
0380
0380
0380
0380
0380
3FFF
7DFF
7787
E386
C38E
C38C
C39C
C398
C3B8
C3B0
C3BC
C39E
C387
E383
7783
7D83
3983
0003
0003
0007
0007
008E
00FC
0078
ENDCHAR
STARTCHAR 02A5
ENCODING 677
SWIDTH 1200 0
DWIDTH 36 0
BBX 32 26 2 -2
BITMAP
00070000
00070000
00070000
00070000
00070000
00070000
00070000
07E7FFF8
1FF7FFF8
3E3B0038
780F0070
70070070
600700E0
E00701C0
E0070380
E0070700
E0070600
E0070E3E
60071CFF
700738E3
700F71C3
3C1F6387
1FFBFFFF
07E3FFFC
00000600
00000600
ENDCHAR
STARTCHAR 02A6
ENCODING 678
SWIDTH 600 0
DWIDTH 18 0
BBX 17 21 0 0
BITMAP
180000
180000
180000
380000
7FFF00
FFFF80
38E300
39C000
39C000
39C000
38E000
38F800
383E00
380F00
380780
380380
380180
380380
1C0780
1FFF00
0FFE00
ENDCHAR
STARTCHAR 02A7
ENCODING 679
SWIDTH 600 0
DWIDTH 18 0
BBX 17 31 1 -7
BITMAP
000780
001F80
001C80
181800
183800
183800
383800
7FF800
FFF800
383800
383800
383800
383800
383800
383800
383800
383800
383800
383800
383800
383800
1E3800
1FF800
07F800
003800
003800
003800
003800
027800
03F000
03E000
ENDCHAR
STARTCHAR 02A8
ENCODING 680
SWIDTH 1200 0
DWIDTH 36 0
BBX 30 22 2 0
BITMAP
06000000
0E000000
0E000000
0E000000
0E000000
FFF807F4
FFF81FF8
0E003E18
0E007800
0E007000
0E006000
0E00E000
0E00E000
0E00E1F0
0E00E7F8
0E00FF3C
0E007C0C
0E00780C
0F00F81C
07C7FE3C
03FF9FF8
00FE07E0
ENDCHAR
STARTCHAR 02A9
ENCODING 681
SWIDTH 600 0
DWIDTH 18 0
BBX 17 31 0 -7
BITMAP
0F0000
3F0000
390000
300000
300000
300000
300000
7F9E00
FFBF00
31E700
31C380
31C380
318380
318380
318380
318380
318380
318380
318380
318380
318380
318380
318380
318380
000380
000380
000380
000380
001300
000F00
000E00
ENDCHAR
STARTCHAR 02AA
ENCODING 682
SWIDTH 600 0
DWIDTH 18 0
BBX 15 24 2 0
BITMAP
E000
E000
E000
E000
E000
E000
E000
E1F8
E7FE
E71C
EE00
EE00
E600
E780
E3E0
E1F8
E03C
E01E
E00E
E00E
E00E
FE3C
FFFC
E7F0
ENDCHAR
STARTCHAR 02AB
ENCODING 683
SWIDTH 600 0
DWIDTH 18 0
BBX 14 24 2 0
BITMAP
E000
E000
E000
E000
E000
E000
E000
FFFC
FFFC
E01C
E038
E038
E070
E060
E0E0
E1C0
E180
E380
E700
E700
EE00
FC00
FFFC
FFFC
ENDCHAR
STARTCHAR 02AC
ENCODING 684
SWIDTH 600 0
DWIDTH 18 0
BBX 16 22 1 0
BITMAP
E187
63C6
63C6
63C6
364C
366C
366C
3428
1C38
1C38
0000
8001
6186
63C6
63C6
63C6
366C
366C
366C
1C38
1C38
1C38
ENDCHAR
STARTCHAR 02AD
ENCODING 685
SWIDTH 600 0
DWIDTH 18 0
BBX 12 22 3 0
BITMAP
FFF0
FFF0
C030
C030
C030
C030
C030
0000
0000
0000
0000
0000
0000
0000
0000
FFF0
FFF0
C030
C030
C030
C030
C030
ENDCHAR
STARTCHAR 02AE
ENCODING 686
SWIDTH 600 0
DWIDTH 18 0
BBX 17 24 -1 -7
BITMAP
F00380
F80380
BC0380
1C0380
1C0380
1C0380
1C0380
1C0380
1C0380
1C0380
1C0380
1C0380
1C0780
0E0F80
0F1F80
07FB80
03E380
000380
000380
000380
000380
000380
000380
000380
ENDCHAR
STARTCHAR 02AF
ENCODING 687
SWIDTH 600 0
DWIDTH 18 0
BBX 20 24 -1 -7
BITMAP
F00380
F80380
BC0380
1C0380
1C0380
1C0380
1C0380
1C0380
1C0380
1C0380
1C0380
1C0380
1C0780
0E0F80
0F1F80
07FB80
03E380
000380
000380
000380
000380
000390
0001F0
0000F0
ENDCHAR
STARTCHAR 02B0
ENCODING 688
SWIDTH 600 0
DWIDTH 18 0
BBX 8 14 5 9
BITMAP
80
80
80
80
BE
E3
C3
C1
81
81
81
81
81
81
ENDCHAR
STARTCHAR 02B1
ENCODING 689
SWIDTH 600 0
DWIDTH 18 0
BBX 8 14 5 9
BITMAP
E0
80
80
80
BE
E3
C3
C1
81
81
81
81
81
81
ENDCHAR
STARTCHAR 02B2
ENCODING 690
SWIDTH 600 0
DWIDTH 18 0
BBX 6 18 6 5
BITMAP
0C
0C
00
00
7C
0C
0C
0C
0C
0C
0C
0C
0C
0C
0C
0C
9C
F8
ENDCHAR
STARTCHAR 02B3
ENCODING 691
SWIDTH 600 0
DWIDTH 18 0
BBX 10 10 4 9
BITMAP
FBC0
1E40
1C00
1800
1800
1800
1800
1800
1800
FF00
ENDCHAR
STARTCHAR 02B4
ENCODING 692
SWIDTH 600 0
DWIDTH 18 0
BBX 10 11 4 8
BITMAP
3FC0
3FC0
0600
0600
0600
0600
0600
0600
0E00
F7C0
67C0
ENDCHAR
STARTCHAR 02B5
ENCODING 693
SWIDTH 600 0
DWIDTH 18 0
BBX 9 14 5 5
BITMAP
7F80
0C00
0C00
0C00
0C00
0C00
0C00
1C00
FC00
EC00
0C00
0C00
0C00
0700
ENDCHAR
STARTCHAR 02B6
ENCODING 694
SWIDTH 600 0
DWIDTH 18 0
BBX 8 11 5 8
BITMAP
C3
C6
C6
CC
F8
FE
C2
C3
C2
FE
F8
ENDCHAR
STARTCHAR 02B7
ENCODING 695
SWIDTH 600 0
DWIDTH 18 0
BBX 12 10 3 9
BITMAP
C030
4020
6620
6E60
6F60
6960
2940
39C0
39C0
30C0
ENDCHAR
STARTCHAR 02B8
ENCODING 696
SWIDTH 600 0
DWIDTH 18 0
BBX 10 14 4 5
BITMAP
C0C0
4080
6180
2180
3300
1300
1A00
1E00
0E00
0C00
0C00
0800
1800
F000
ENDCHAR
STARTCHAR 02B9
ENCODING 697
SWIDTH 600 0
DWIDTH 18 0
BBX 5 8 6 14
BITMAP
38
38
70
70
70
60
60
E0
ENDCHAR
STARTCHAR 02BA
ENCODING 698
SWIDTH 600 0
DWIDTH 18 0
BBX 10 8 4 14
BITMAP
79C0
7BC0
7380
7380
7380
6300
E300
C700
ENDCHAR
STARTCHAR 02BB
ENCODING 699
SWIDTH 600 0
DWIDTH 18 0
BBX 4 8 7 14
BITMAP
30
30
70
70
60
E0
E0
E0
ENDCHAR
STARTCHAR 02BC
ENCODING 700
SWIDTH 600 0
DWIDTH 18 0
BBX 5 8 6 14
BITMAP
38
38
70
70
70
60
60
E0
ENDCHAR
STARTCHAR 02BD
ENCODING 701
SWIDTH 600 0
DWIDTH 18 0
BBX 4 8 7 14
BITMAP
E0
E0
E0
60
70
70
30
30
ENDCHAR
STARTCHAR 02BE
ENCODING 702
SWIDTH 600 0
DWIDTH 18 0
BBX 3 7 8 18
BITMAP
80
E0
60
20
60
E0
C0
ENDCHAR
STARTCHAR 02BF
ENCODING 703
SWIDTH 600 0
DWIDTH 18 0
BBX 4 7 7 18
BITMAP
30
70
C0
C0
C0
70
30
ENDCHAR
STARTCHAR 02C0
ENCODING 704
SWIDTH 600 0
DWIDTH 18 0
BBX 8 9 5 15
BITMAP
7C
FE
47
03
03
06
0E
38
30
ENDCHAR
STARTCHAR 02C1
ENCODING 705
SWIDTH 600 0
DWIDTH 18 0
BBX 8 9 5 15
BITMAP
3E
7F
E2
C0
C0
60
70
1C
0C
ENDCHAR
STARTCHAR 02C2
ENCODING 706
SWIDTH 600 0
DWIDTH 18 0
BBX 6 7 6 16
BITMAP
04
18
70
C0
60
18
04
ENDCHAR
STARTCHAR 02C3
ENCODING 707
SWIDTH 600 0
DWIDTH 18 0
BBX 6 7 6 16
BITMAP
80
60
38
0C
18
60
80
ENDCHAR
STARTCHAR 02C4
ENCODING 708
SWIDTH 600 0
DWIDTH 18 0
BBX 8 8 5 17
BITMAP
10
18
18
24
24
66
42
C3
ENDCHAR
STARTCHAR 02C5
ENCODING 709
SWIDTH 600 0
DWIDTH 18 0
BBX 8 8 5 15
BITMAP
C3
42
66
24
24
18
18
10
ENDCHAR
STARTCHAR 02C6
ENCODING 710
SWIDTH 600 0
DWIDTH 18 0
BBX 10 5 4 19
BITMAP
1E00
1E00
3700
6380
C0C0
ENDCHAR
STARTCHAR 02C7
ENCODING 711
SWIDTH 600 0
DWIDTH 18 0
BBX 10 5 4 19
BITMAP
C0C0
7380
3F00
1E00
1E00
ENDCHAR
STARTCHAR 02C8
ENCODING 712
SWIDTH 600 0
DWIDTH 18 0
BBX 2 8 8 15
BITMAP
C0
C0
C0
C0
C0
C0
C0
C0
ENDCHAR
STARTCHAR 02C9
ENCODING 713
SWIDTH 600 0
DWIDTH 18 0
BBX 8 2 5 19
BITMAP
FF
FF
ENDCHAR
STARTCHAR 02CA
ENCODING 714
SWIDTH 600 0
DWIDTH 18 0
BBX 6 5 6 19
BITMAP
1C
38
70
60
C0
ENDCHAR
STARTCHAR 02CB
ENCODING 715
SWIDTH 600 0
DWIDTH 18 0
BBX 6 5 6 19
BITMAP
E0
70
38
18
0C
ENDCHAR
STARTCHAR 02CC
ENCODING 716
SWIDTH 600 0
DWIDTH 18 0
BBX 2 8 8 -6
BITMAP
C0
C0
C0
C0
C0
C0
C0
C0
ENDCHAR
STARTCHAR 02CD
ENCODING 717
SWIDTH 600 0
DWIDTH 18 0
BBX 8 2 5 -4
BITMAP
FF
FF
ENDCHAR
STARTCHAR 02CE
ENCODING 718
SWIDTH 600 0
DWIDTH 18 0
BBX 6 5 7 -5
BITMAP
E0
70
70
38
1C
ENDCHAR
STARTCHAR 02CF
ENCODING 719
SWIDTH 600 0
DWIDTH 18 0
BBX 6 5 6 -5
BITMAP
1C
38
38
70
E0
ENDCHAR
STARTCHAR 02D0
ENCODING 720
SWIDTH 600 0
DWIDTH 18 0
BBX 6 17 6 0
BITMAP
FC
78
30
10
00
00
00
00
00
00
00
00
00
30
30
78
FC
ENDCHAR
STARTCHAR 02D1
ENCODING 721
SWIDTH 600 0
DWIDTH 18 0
BBX 6 4 6 13
BITMAP
FC
78
30
10
ENDCHAR
STARTCHAR 02D2
ENCODING 722
SWIDTH 600 0
DWIDTH 18 0
BBX 3 7 8 7
BITMAP
80
E0
60
20
60
E0
C0
ENDCHAR
STARTCHAR 02D3
ENCODING 723
SWIDTH 600 0
DWIDTH 18 0
BBX 4 7 7 7
BITMAP
30
70
C0
C0
C0
70
30
ENDCHAR
STARTCHAR 02D4
ENCODING 724
SWIDTH 600 0
DWIDTH 18 0
BBX 6 5 6 7
BITMAP
30
30
30
FC
FC
ENDCHAR
STARTCHAR 02D5
ENCODING 725
SWIDTH 600 0
DWIDTH 18 0
BBX 6 5 6 7
BITMAP
FC
FC
30
30
30
ENDCHAR
STARTCHAR 02D6
ENCODING 726
SWIDTH 600 0
DWIDTH 18 0
BBX 6 6 6 6
BITMAP
30
30
FC
FC
30
30
ENDCHAR
STARTCHAR 02D7
ENCODING 727
SWIDTH 600 0
DWIDTH 18 0
BBX 8 2 5 9
BITMAP
FF
FF
ENDCHAR
STARTCHAR 02D8
ENCODING 728
SWIDTH 600 0
DWIDTH 18 0
BBX 10 4 4 19
BITMAP
C0C0
7380
7F80
3E00
ENDCHAR
STARTCHAR 02D9
ENCODING 729
SWIDTH 600 0
DWIDTH 18 0
BBX 4 4 7 20
BITMAP
60
F0
F0
60
ENDCHAR
STARTCHAR 02DA
ENCODING 730
SWIDTH 600 0
DWIDTH 18 0
BBX 6 7 6 19
BITMAP
78
FC
CC
84
CC
FC
78
ENDCHAR
STARTCHAR 02DB
ENCODING 731
SWIDTH 600 0
DWIDTH 18 0
BBX 5 8 7 -7
BITMAP
30
60
C0
C0
C0
C0
F8
78
ENDCHAR
STARTCHAR 02DC
ENCODING 732
SWIDTH 600 0
DWIDTH 18 0
BBX 10 4 4 19
BITMAP
7840
FEC0
CFC0
8780
ENDCHAR
STARTCHAR 02DD
ENCODING 733
SWIDTH 600 0
DWIDTH 18 0
BBX 10 5 5 19
BITMAP
39C0
71C0
7380
E300
C600
ENDCHAR
STARTCHAR 02DE
ENCODING 734
SWIDTH 600 0
DWIDTH 18 0
BBX 13 7 -3 6
BITMAP
0100
0F00
FF80
FB80
81C8
01F8
00F0
ENDCHAR
STARTCHAR 02DF
ENCODING 735
SWIDTH 600 0
DWIDTH 18 0
BBX 6 6 6 17
BITMAP
CC
FC
78
78
FC
48
ENDCHAR
STARTCHAR 02E0
ENCODING 736
SWIDTH 600 0
DWIDTH 18 0
BBX 12 14 3 5
BITMAP
E070
6060
30C0
30C0
1980
1980
0F00
0F00
0600
0F00
0900
1980
1900
0F00
ENDCHAR
STARTCHAR 02E1
ENCODING 737
SWIDTH 600 0
DWIDTH 18 0
BBX 9 14 4 9
BITMAP
7C00
0C00
0C00
0C00
0C00
0C00
0C00
0C00
0C00
0C00
0C00
0C00
0C00
FF80
ENDCHAR
STARTCHAR 02E2
ENCODING 738
SWIDTH 600 0
DWIDTH 18 0
BBX 8 10 5 9
BITMAP
7F
62
C0
60
38
0E
03
03
EE
7C
ENDCHAR
STARTCHAR 02E3
ENCODING 739
SWIDTH 600 0
DWIDTH 18 0
BBX 10 10 4 9
BITMAP
E1C0
6180
3300
1E00
0C00
1E00
1E00
3300
6180
C0C0
ENDCHAR
STARTCHAR 02E4
ENCODING 740
SWIDTH 600 0
DWIDTH 18 0
BBX 8 14 5 9
BITMAP
7F
C3
C0
80
80
C0
60
38
08
08
08
08
08
08
ENDCHAR
STARTCHAR 02E5
ENCODING 741
SWIDTH 600 0
DWIDTH 18 0
BBX 8 21 4 0
BITMAP
FF
FF
03
03
03
03
03
03
03
03
03
03
03
03
03
03
03
03
03
03
03
ENDCHAR
STARTCHAR 02E6
ENCODING 742
SWIDTH 600 0
DWIDTH 18 0
BBX 8 21 4 0
BITMAP
03
03
03
03
03
FF
FF
03
03
03
03
03
03
03
03
03
03
03
03
03
03
ENDCHAR
STARTCHAR 02E7
ENCODING 743
SWIDTH 600 0
DWIDTH 18 0
BBX 8 21 4 0
BITMAP
03
03
03
03
03
03
03
03
03
FF
FF
03
03
03
03
03
03
03
03
03
03
ENDCHAR
STARTCHAR 02E8
ENCODING 744
SWIDTH 600 0
DWIDTH 18 0
BBX 8 21 4 0
BITMAP
03
03
03
03
03
03
03
03
03
03
03
03
03
03
FF
FF
03
03
03
03
03
ENDCHAR
STARTCHAR 02E9
ENCODING 745
SWIDTH 600 0
DWIDTH 18 0
BBX 8 22 4 0
BITMAP
03
03
03
03
03
03
03
03
03
03
03
03
03
03
03
03
03
03
03
03
FF
FF
ENDCHAR
STARTCHAR 02EA
ENCODING 746
SWIDTH 600 0
DWIDTH 18 0
BBX 8 12 6 5
BITMAP
C0
C0
C0
C0
C0
C0
C0
C0
C0
C0
FF
FF
ENDCHAR
STARTCHAR 02EB
ENCODING 747
SWIDTH 600 0
DWIDTH 18 0
BBX 8 11 6 5
BITMAP
C0
C0
C0
C0
FF
FF
C0
C0
C0
C0
C0
ENDCHAR
STARTCHAR 02EC
ENCODING 748
SWIDTH 600 0
DWIDTH 18 0
BBX 10 5 4 -5
BITMAP
C0C0
7380
3F00
1E00
1E00
ENDCHAR
STARTCHAR 02ED
ENCODING 749
SWIDTH 600 0
DWIDTH 18 0
BBX 18 6 0 16
BITMAP
FFFFC0
FFFFC0
000000
000000
FFFFC0
FFFFC0
ENDCHAR
STARTCHAR 02EE
ENCODING 750
SWIDTH 600 0
DWIDTH 18 0
BBX 10 8 4 13
BITMAP
39C0
71C0
71C0
7180
7380
6380
6300
C300
ENDCHAR
STARTCHAR 02EF
ENCODING 751
SWIDTH 600 0
DWIDTH 18 0
BBX 10 7 4 -7
BITMAP
E1C0
6180
3300
3F00
1E00
1E00
0C00
ENDCHAR
STARTCHAR 02F0
ENCODING 752
SWIDTH 600 0
DWIDTH 18 0
BBX 10 7 4 -7
BITMAP
0C00
1E00
1E00
3F00
3300
6180
E1C0
ENDCHAR
STARTCHAR 02F1
ENCODING 753
SWIDTH 600 0
DWIDTH 18 0
BBX 8 8 5 -7
BITMAP
01
07
1E
F8
F0
7C
0F
03
ENDCHAR
STARTCHAR 02F2
ENCODING 754
SWIDTH 600 0
DWIDTH 18 0
BBX 8 8 5 -7
BITMAP
80
E0
F8
1F
0F
3E
F0
C0
ENDCHAR
STARTCHAR 02F3
ENCODING 755
SWIDTH 600 0
DWIDTH 18 0
BBX 6 7 6 -7
BITMAP
78
FC
CC
84
CC
FC
78
ENDCHAR
STARTCHAR 02F4
ENCODING 756
SWIDTH 600 0
DWIDTH 18 0
BBX 6 5 6 9
BITMAP
E0
70
38
18
0C
ENDCHAR
STARTCHAR 02F5
ENCODING 757
SWIDTH 600 0
DWIDTH 18 0
BBX 10 5 4 9
BITMAP
E700
E380
7380
31C0
18C0
ENDCHAR
STARTCHAR 02F6
ENCODING 758
SWIDTH 600 0
DWIDTH 18 0
BBX 10 5 4 9
BITMAP
39C0
71C0
7380
E300
C600
ENDCHAR
STARTCHAR 02F7
ENCODING 759
SWIDTH 600 0
DWIDTH 18 0
BBX 10 4 4 -5
BITMAP
7840
FEC0
CFC0
8780
ENDCHAR
STARTCHAR 02F8
ENCODING 760
SWIDTH 600 0
DWIDTH 18 0
BBX 4 17 7 6
BITMAP
60
F0
F0
60
00
00
00
00
00
00
00
00
00
60
F0
F0
60
ENDCHAR
STARTCHAR 02F9
ENCODING 761
SWIDTH 600 0
DWIDTH 18 0
BBX 6 8 6 14
BITMAP
FC
FC
C0
C0
C0
C0
C0
C0
ENDCHAR
STARTCHAR 02FA
ENCODING 762
SWIDTH 600 0
DWIDTH 18 0
BBX 6 8 6 14
BITMAP
FC
FC
04
04
04
04
04
04
ENDCHAR
STARTCHAR 02FB
ENCODING 763
SWIDTH 600 0
DWIDTH 18 0
BBX 6 8 6 0
BITMAP
C0
C0
C0
C0
C0
C0
FC
FC
ENDCHAR
STARTCHAR 02FC
ENCODING 764
SWIDTH 600 0
DWIDTH 18 0
BBX 6 8 6 0
BITMAP
0C
0C
0C
0C
0C
0C
FC
FC
ENDCHAR
STARTCHAR 02FD
ENCODING 765
SWIDTH 600 0
DWIDTH 18 0
BBX 14 5 2 -6
BITMAP
C00C
C00C
C00C
FFFC
FFFC
ENDCHAR
STARTCHAR 02FE
ENCODING 766
SWIDTH 600 0
DWIDTH 18 0
BBX 14 5 2 -6
BITMAP
C000
C000
C000
FFFC
FFFC
ENDCHAR
STARTCHAR 02FF
ENCODING 767
SWIDTH 600 0
DWIDTH 18 0
BBX 14 10 2 -7
BITMAP
0300
0700
1C00
7000
FFFC
FFFC
7800
1E00
0700
0100
ENDCHAR
STARTCHAR 0300
ENCODING 768
SWIDTH 0 0
DWIDTH 0 0
BBX 6 5 -4 19
BITMAP
E0
70
38
18
0C
ENDCHAR
STARTCHAR 0301
ENCODING 769
SWIDTH 0 0
DWIDTH 0 0
BBX 6 5 -1 19
BITMAP
3C
38
70
60
C0
ENDCHAR
STARTCHAR 0302
ENCODING 770
SWIDTH 0 0
DWIDTH 0 0
BBX 10 5 -5 19
BITMAP
1E00
1E00
3700
6380
C0C0
ENDCHAR
STARTCHAR 0303
ENCODING 771
SWIDTH 0 0
DWIDTH 0 0
BBX 10 4 -5 19
BITMAP
7840
FEC0
CFC0
8780
ENDCHAR
STARTCHAR 0304
ENCODING 772
SWIDTH 0 0
DWIDTH 0 0
BBX 8 2 -4 19
BITMAP
FF
FF
ENDCHAR
STARTCHAR 0305
ENCODING 773
SWIDTH 0 0
DWIDTH 0 0
BBX 12 2 -6 24
BITMAP
FFF0
FFF0
ENDCHAR
STARTCHAR 0306
ENCODING 774
SWIDTH 0 0
DWIDTH 0 0
BBX 10 4 -5 19
BITMAP
C0C0
6380
7F80
3E00
ENDCHAR
STARTCHAR 0307
ENCODING 775
SWIDTH 0 0
DWIDTH 0 0
BBX 4 4 -2 20
BITMAP
60
F0
F0
60
ENDCHAR
STARTCHAR 0308
ENCODING 776
SWIDTH 0 0
DWIDTH 0 0
BBX 10 4 -5 19
BITMAP
E1C0
E1C0
E1C0
E1C0
ENDCHAR
STARTCHAR 0309
ENCODING 777
SWIDTH 0 0
DWIDTH 0 0
BBX 5 7 -2 19
BITMAP
F0
F8
18
18
38
60
60
ENDCHAR
STARTCHAR 030A
ENCODING 778
SWIDTH 0 0
DWIDTH 0 0
BBX 6 7 -3 19
BITMAP
78
FC
CC
84
CC
FC
78
ENDCHAR
STARTCHAR 030B
ENCODING 779
SWIDTH 0 0
DWIDTH 0 0
BBX 11 5 -5 19
BITMAP
1CE0
39C0
3180
6380
C700
ENDCHAR
STARTCHAR 030C
ENCODING 780
SWIDTH 0 0
DWIDTH 0 0
BBX 10 5 -5 19
BITMAP
C0C0
7380
3F00
1E00
1E00
ENDCHAR
STARTCHAR 030D
ENCODING 781
SWIDTH 0 0
DWIDTH 0 0
BBX 2 5 -1 19
BITMAP
C0
C0
C0
C0
C0
ENDCHAR
STARTCHAR 030E
ENCODING 782
SWIDTH 0 0
DWIDTH 0 0
BBX 8 5 -4 19
BITMAP
E7
E7
E7
E7
E7
ENDCHAR
STARTCHAR 030F
ENCODING 783
SWIDTH 0 0
DWIDTH 0 0
BBX 10 5 -6 19
BITMAP
E700
6380
7180
31C0
18C0
ENDCHAR
STARTCHAR 0310
ENCODING 784
SWIDTH 0 0
DWIDTH 0 0
BBX 10 7 -5 19
BITMAP
0C00
1E00
0C00
C0C0
7380
7F80
3E00
ENDCHAR
STARTCHAR 0311
ENCODING 785
SWIDTH 0 0
DWIDTH 0 0
BBX 10 4 -5 18
BITMAP
3E00
7F80
7380
C0C0
ENDCHAR
STARTCHAR 0312
ENCODING 786
SWIDTH 0 0
DWIDTH 0 0
BBX 4 8 -2 14
BITMAP
30
30
70
70
60
E0
E0
E0
ENDCHAR
STARTCHAR 0313
ENCODING 787
SWIDTH 0 0
DWIDTH 0 0
BBX 4 8 -2 14
BITMAP
70
70
70
E0
E0
E0
C0
C0
ENDCHAR
STARTCHAR 0314
ENCODING 788
SWIDTH 0 0
DWIDTH 0 0
BBX 4 8 -2 14
BITMAP
E0
E0
E0
60
70
70
30
30
ENDCHAR
STARTCHAR 0315
ENCODING 789
SWIDTH 0 0
DWIDTH 0 0
BBX 4 8 -1 14
BITMAP
70
70
70
E0
E0
E0
C0
C0
ENDCHAR
STARTCHAR 0316
ENCODING 790
SWIDTH 0 0
DWIDTH 0 0
BBX 6 5 -3 -5
BITMAP
E0
70
38
18
0C
ENDCHAR
STARTCHAR 0317
ENCODING 791
SWIDTH 0 0
DWIDTH 0 0
BBX 6 5 -3 -5
BITMAP
1C
38
70
60
C0
ENDCHAR
STARTCHAR 0318
ENCODING 792
SWIDTH 0 0
DWIDTH 0 0
BBX 6 6 -3 -7
BITMAP
0C
0C
FC
FC
0C
0C
ENDCHAR
STARTCHAR 0319
ENCODING 793
SWIDTH 0 0
DWIDTH 0 0
BBX 6 6 -3 -7
BITMAP
C0
C0
FC
FC
C0
C0
ENDCHAR
STARTCHAR 031A
ENCODING 794
SWIDTH 0 0
DWIDTH 0 0
BBX 8 8 -4 22
BITMAP
FF
FF
03
03
03
03
03
03
ENDCHAR
STARTCHAR 031B
ENCODING 795
SWIDTH 0 0
DWIDTH 0 0
BBX 4 8 -2 14
BITMAP
30
30
30
30
30
60
E0
80
ENDCHAR
STARTCHAR 031C
ENCODING 796
SWIDTH 0 0
DWIDTH 0 0
BBX 4 7 -2 -7
BITMAP
30
70
C0
C0
C0
70
30
ENDCHAR
STARTCHAR 031D
ENCODING 797
SWIDTH 0 0
DWIDTH 0 0
BBX 6 5 -3 -6
BITMAP
30
30
30
FC
FC
ENDCHAR
STARTCHAR 031E
ENCODING 798
SWIDTH 0 0
DWIDTH 0 0
BBX 6 5 -3 -6
BITMAP
FC
FC
30
30
30
ENDCHAR
STARTCHAR 031F
ENCODING 799
SWIDTH 0 0
DWIDTH 0 0
BBX 6 6 -3 -7
BITMAP
30
30
FC
FC
30
30
ENDCHAR
STARTCHAR 0320
ENCODING 800
SWIDTH 0 0
DWIDTH 0 0
BBX 8 2 -4 -4
BITMAP
FF
FF
ENDCHAR
STARTCHAR 0321
ENCODING 801
SWIDTH 0 0
DWIDTH 0 0
BBX 6 9 -3 -7
BITMAP
1C
1C
1C
1C
1C
1C
B8
F8
F0
ENDCHAR
STARTCHAR 0322
ENCODING 802
SWIDTH 0 0
DWIDTH 0 0
BBX 6 9 -3 -7
BITMAP
E0
E0
E0
E0
E0
E0
F4
7C
3C
ENDCHAR
STARTCHAR 0323
ENCODING 803
SWIDTH 0 0
DWIDTH 0 0
BBX 4 4 -2 -4
BITMAP
60
F0
F0
60
ENDCHAR
STARTCHAR 0324
ENCODING 804
SWIDTH 0 0
DWIDTH 0 0
BBX 10 4 -5 -5
BITMAP
E1C0
E1C0
E1C0
E1C0
ENDCHAR
STARTCHAR 0325
ENCODING 805
SWIDTH 0 0
DWIDTH 0 0
BBX 6 7 -3 -7
BITMAP
78
FC
CC
84
CC
FC
78
ENDCHAR
STARTCHAR 0326
ENCODING 806
SWIDTH 0 0
DWIDTH 0 0
BBX 3 5 -2 -7
BITMAP
60
E0
C0
C0
80
ENDCHAR
STARTCHAR 0327
ENCODING 807
SWIDTH 0 0
DWIDTH 0 0
BBX 6 8 -3 -7
BITMAP
30
30
70
38
0C
0C
F8
F0
ENDCHAR
STARTCHAR 0328
ENCODING 808
SWIDTH 0 0
DWIDTH 0 0
BBX 5 8 -3 -7
BITMAP
18
30
60
60
60
E0
78
38
ENDCHAR
STARTCHAR 0329
ENCODING 809
SWIDTH 0 0
DWIDTH 0 0
BBX 2 5 -1 -5
BITMAP
C0
C0
C0
C0
C0
ENDCHAR
STARTCHAR 032A
ENCODING 810
SWIDTH 0 0
DWIDTH 0 0
BBX 10 5 -5 -6
BITMAP
FFC0
FFC0
C0C0
C0C0
C0C0
ENDCHAR
STARTCHAR 032B
ENCODING 811
SWIDTH 0 0
DWIDTH 0 0
BBX 12 4 -6 -5
BITMAP
C630
C630
7FE0
39C0
ENDCHAR
STARTCHAR 032C
ENCODING 812
SWIDTH 0 0
DWIDTH 0 0
BBX 10 5 -5 -5
BITMAP
C0C0
7380
3F00
1E00
1E00
ENDCHAR
STARTCHAR 032D
ENCODING 813
SWIDTH 0 0
DWIDTH 0 0
BBX 10 5 -5 -6
BITMAP
1E00
1E00
3700
6380
C0C0
ENDCHAR
STARTCHAR 032E
ENCODING 814
SWIDTH 0 0
DWIDTH 0 0
BBX 10 4 -5 -5
BITMAP
C0C0
6380
7F80
3E00
ENDCHAR
STARTCHAR 032F
ENCODING 815
SWIDTH 0 0
DWIDTH 0 0
BBX 10 4 -5 -6
BITMAP
3E00
7F80
7380
C0C0
ENDCHAR
STARTCHAR 0330
ENCODING 816
SWIDTH 0 0
DWIDTH 0 0
BBX 10 4 -5 -5
BITMAP
7840
FEC0
CFC0
8780
ENDCHAR
STARTCHAR 0331
ENCODING 817
SWIDTH 0 0
DWIDTH 0 0
BBX 9 2 -4 -4
BITMAP
FF80
FF80
ENDCHAR
STARTCHAR 0332
ENCODING 818
SWIDTH 0 0
DWIDTH 0 0
BBX 14 2 -7 -5
BITMAP
FFFC
FFFC
ENDCHAR
STARTCHAR 0333
ENCODING 819
SWIDTH 0 0
DWIDTH 0 0
BBX 18 6 -9 -9
BITMAP
FFFFC0
FFFFC0
000000
000000
FFFFC0
FFFFC0
ENDCHAR
STARTCHAR 0334
ENCODING 820
SWIDTH 0 0
DWIDTH 0 0
BBX 10 4 -5 7
BITMAP
7840
FEC0
CFC0
8780
ENDCHAR
STARTCHAR 0335
ENCODING 821
SWIDTH 0 0
DWIDTH 0 0
BBX 12 2 -6 9
BITMAP
FFF0
FFF0
ENDCHAR
STARTCHAR 0336
ENCODING 822
SWIDTH 0 0
DWIDTH 0 0
BBX 22 2 -11 8
BITMAP
FFFFFC
FFFFFC
ENDCHAR
STARTCHAR 0337
ENCODING 823
SWIDTH 0 0
DWIDTH 0 0
BBX 8 7 -4 5
BITMAP
01
07
1E
3C
F0
C0
80
ENDCHAR
STARTCHAR 0338
ENCODING 824
SWIDTH 0 0
DWIDTH 0 0
BBX 12 26 -6 -2
BITMAP
0030
0070
0060
0060
00C0
00C0
01C0
0180
0180
0380
0300
0300
0600
0600
0E00
0C00
0C00
1C00
1800
3800
3000
3000
7000
6000
6000
E000
ENDCHAR
STARTCHAR 0339
ENCODING 825
SWIDTH 0 0
DWIDTH 0 0
BBX 4 7 -2 -7
BITMAP
C0
E0
20
30
30
E0
C0
ENDCHAR
STARTCHAR 033A
ENCODING 826
SWIDTH 0 0
DWIDTH 0 0
BBX 10 6 -5 -7
BITMAP
C0C0
C0C0
C0C0
C0C0
FFC0
FFC0
ENDCHAR
STARTCHAR 033B
ENCODING 827
SWIDTH 0 0
DWIDTH 0 0
BBX 12 6 -6 -7
BITMAP
FFF0
FFF0
C030
C030
FFF0
FFF0
ENDCHAR
STARTCHAR 033C
ENCODING 828
SWIDTH 0 0
DWIDTH 0 0
BBX 12 4 -6 -5
BITMAP
39C0
7FE0
C620
C630
ENDCHAR
STARTCHAR 033D
ENCODING 829
SWIDTH 0 0
DWIDTH 0 0
BBX 6 6 -3 17
BITMAP
CC
FC
78
78
FC
48
ENDCHAR
STARTCHAR 033E
ENCODING 830
SWIDTH 0 0
DWIDTH 0 0
BBX 4 9 -2 18
BITMAP
30
F0
C0
C0
60
30
30
F0
C0
ENDCHAR
STARTCHAR 033F
ENCODING 831
SWIDTH 0 0
DWIDTH 0 0
BBX 18 6 -9 21
BITMAP
FFFFC0
FFFFC0
000000
000000
FFFFC0
FFFFC0
ENDCHAR
STARTCHAR 0340
ENCODING 832
SWIDTH 0 0
DWIDTH 0 0
BBX 6 5 -4 19
BITMAP
E0
70
38
18
0C
ENDCHAR
STARTCHAR 0341
ENCODING 833
SWIDTH 0 0
DWIDTH 0 0
BBX 6 5 -1 19
BITMAP
3C
38
70
60
C0
ENDCHAR
STARTCHAR 0342
ENCODING 834
SWIDTH 0 0
DWIDTH 0 0
BBX 10 4 -5 19
BITMAP
7840
FEC0
CFC0
8780
ENDCHAR
STARTCHAR 0343
ENCODING 835
SWIDTH 0 0
DWIDTH 0 0
BBX 4 5 -2 17
BITMAP
70
60
60
60
C0
ENDCHAR
STARTCHAR 0344
ENCODING 836
SWIDTH 0 0
DWIDTH 0 0
BBX 10 7 -5 20
BITMAP
0700
0700
0600
0600
6D80
E9C0
6180
ENDCHAR
STARTCHAR 0345
ENCODING 837
SWIDTH 0 0
DWIDTH 0 0
BBX 4 5 -1 -7
BITMAP
C0
C0
C0
F0
70
ENDCHAR
STARTCHAR 0346
ENCODING 838
SWIDTH 0 0
DWIDTH 0 0
BBX 14 5 -7 19
BITMAP
FFFC
FFFC
C00C
C00C
C00C
ENDCHAR
STARTCHAR 0347
ENCODING 839
SWIDTH 0 0
DWIDTH 0 0
BBX 18 6 -9 -9
BITMAP
FFFFC0
FFFFC0
000000
000000
FFFFC0
FFFFC0
ENDCHAR
STARTCHAR 0348
ENCODING 840
SWIDTH 0 0
DWIDTH 0 0
BBX 8 5 -4 -5
BITMAP
E7
E7
E7
E7
E7
ENDCHAR
STARTCHAR 0349
ENCODING 841
SWIDTH 0 0
DWIDTH 0 0
BBX 6 5 -3 -7
BITMAP
FC
FC
0C
0C
0C
ENDCHAR
STARTCHAR 034A
ENCODING 842
SWIDTH 0 0
DWIDTH 0 0
BBX 11 6 -6 18
BITMAP
0300
3F20
7E60
67E0
CFC0
0800
ENDCHAR
STARTCHAR 034B
ENCODING 843
SWIDTH 0 0
DWIDTH 0 0
BBX 11 11 -6 18
BITMAP
0600
0600
0600
0000
3E20
7FE0
47C0
8000
0600
0600
0600
ENDCHAR
STARTCHAR 034C
ENCODING 844
SWIDTH 0 0
DWIDTH 0 0
BBX 10 8 -5 19
BITMAP
78C0
7CC0
CF80
C780
0000
7CC0
FFC0
C780
ENDCHAR
STARTCHAR 034D
ENCODING 845
SWIDTH 0 0
DWIDTH 0 0
BBX 10 6 -5 -7
BITMAP
1200
7380
FFC0
FFC0
3300
1200
ENDCHAR
STARTCHAR 034E
ENCODING 846
SWIDTH 0 0
DWIDTH 0 0
BBX 6 7 -3 -7
BITMAP
20
30
FC
30
30
30
30
ENDCHAR
STARTCHAR 034F
ENCODING 847
SWIDTH 0 0
DWIDTH 0 0
BBX 22 22 -11 0
BITMAP
F8787C
F8787C
C0000C
C0100C
C0B40C
028500
060180
040040
CC00CC
C0000C
C8006C
C8004C
C0000C
0C00C0
080040
060180
028500
C0B40C
C0200C
C0000C
F8787C
F8787C
ENDCHAR
STARTCHAR 0350
ENCODING 848
SWIDTH 0 0
DWIDTH 0 0
BBX 4 6 -2 18
BITMAP
80
E0
70
70
E0
80
ENDCHAR
STARTCHAR 0351
ENCODING 849
SWIDTH 0 0
DWIDTH 0 0
BBX 4 7 -2 19
BITMAP
30
70
C0
C0
C0
70
30
ENDCHAR
STARTCHAR 0352
ENCODING 850
SWIDTH 0 0
DWIDTH 0 0
BBX 10 7 -5 19
BITMAP
3F00
7F80
6180
C0C0
0C00
1E00
0C00
ENDCHAR
STARTCHAR 0353
ENCODING 851
SWIDTH 0 0
DWIDTH 0 0
BBX 6 6 -3 -7
BITMAP
48
FC
78
78
FC
48
ENDCHAR
STARTCHAR 0354
ENCODING 852
SWIDTH 0 0
DWIDTH 0 0
BBX 4 6 -2 -7
BITMAP
10
70
E0
E0
70
10
ENDCHAR
STARTCHAR 0355
ENCODING 853
SWIDTH 0 0
DWIDTH 0 0
BBX 4 6 -2 -7
BITMAP
80
E0
70
70
E0
80
ENDCHAR
STARTCHAR 0356
ENCODING 854
SWIDTH 0 0
DWIDTH 0 0
BBX 12 6 -6 -7
BITMAP
C0C0
F1C0
39C0
3960
F360
C230
ENDCHAR
STARTCHAR 0357
ENCODING 855
SWIDTH 0 0
DWIDTH 0 0
BBX 3 7 -1 19
BITMAP
80
E0
60
20
60
E0
C0
ENDCHAR
STARTCHAR 0358
ENCODING 856
SWIDTH 0 0
DWIDTH 0 0
BBX 4 4 -2 20
BITMAP
60
F0
F0
60
ENDCHAR
STARTCHAR 0359
ENCODING 857
SWIDTH 0 0
DWIDTH 0 0
BBX 6 6 -3 -7
BITMAP
30
B4
FC
30
FC
48
ENDCHAR
STARTCHAR 035A
ENCODING 858
SWIDTH 0 0
DWIDTH 0 0
BBX 12 7 -6 -7
BITMAP
39C0
7FE0
C630
C630
C630
7FE0
39C0
ENDCHAR
STARTCHAR 035B
ENCODING 859
SWIDTH 0 0
DWIDTH 0 0
BBX 6 6 -3 19
BITMAP
60
40
7C
FC
08
18
ENDCHAR
STARTCHAR 035C
ENCODING 860
SWIDTH 0 0
DWIDTH 0 0
BBX 24 6 -12 -7
BITMAP
E00007
70000E
38001C
1F81F8
07FFE0
01FF80
ENDCHAR
STARTCHAR 035D
ENCODING 861
SWIDTH 0 0
DWIDTH 0 0
BBX 24 6 -12 18
BITMAP
E00007
70000E
38001C
1F81F8
07FFE0
01FF80
ENDCHAR
STARTCHAR 035E
ENCODING 862
SWIDTH 0 0
DWIDTH 0 0
BBX 18 2 -9 19
BITMAP
FFFFC0
FFFFC0
ENDCHAR
STARTCHAR 035F
ENCODING 863
SWIDTH 0 0
DWIDTH 0 0
BBX 18 2 -9 -3
BITMAP
FFFFC0
FFFFC0
ENDCHAR
STARTCHAR 0360
ENCODING 864
SWIDTH 0 0
DWIDTH 0 0
BBX 24 4 -12 19
BITMAP
1FC003
3FFE0E
707FFC
C003F8
ENDCHAR
STARTCHAR 0361
ENCODING 865
SWIDTH 0 0
DWIDTH 0 0
BBX 24 5 -12 22
BITMAP
01FF80
0FFFF0
1E0078
38001C
E00007
ENDCHAR
STARTCHAR 0362
ENCODING 866
SWIDTH 0 0
DWIDTH 0 0
BBX 24 6 -12 -7
BITMAP
000008
00000C
FFFFFF
FFFFFE
00000C
000008
ENDCHAR
STARTCHAR 0363
ENCODING 867
SWIDTH 0 0
DWIDTH 0 0
BBX 6 7 -3 19
BITMAP
78
44
04
7C
C4
8C
74
ENDCHAR
STARTCHAR 0364
ENCODING 868
SWIDTH 0 0
DWIDTH 0 0
BBX 7 7 -3 19
BITMAP
38
44
84
FE
80
40
3C
ENDCHAR
STARTCHAR 0365
ENCODING 869
SWIDTH 0 0
DWIDTH 0 0
BBX 7 10 -3 19
BITMAP
10
10
00
70
10
10
10
10
10
FE
ENDCHAR
STARTCHAR 0366
ENCODING 870
SWIDTH 0 0
DWIDTH 0 0
BBX 7 7 -3 19
BITMAP
38
44
84
86
86
C4
78
ENDCHAR
STARTCHAR 0367
ENCODING 871
SWIDTH 0 0
DWIDTH 0 0
BBX 6 7 -3 19
BITMAP
84
84
84
84
84
C4
7C
ENDCHAR
STARTCHAR 0368
ENCODING 872
SWIDTH 0 0
DWIDTH 0 0
BBX 6 7 -3 19
BITMAP
3C
64
C0
C0
C0
40
3C
ENDCHAR
STARTCHAR 0369
ENCODING 873
SWIDTH 0 0
DWIDTH 0 0
BBX 6 10 -3 19
BITMAP
04
04
04
34
CC
84
84
84
C4
7C
ENDCHAR
STARTCHAR 036A
ENCODING 874
SWIDTH 0 0
DWIDTH 0 0
BBX 6 10 -3 19
BITMAP
C0
C0
C0
F8
C4
C4
C4
C4
C4
C4
ENDCHAR
STARTCHAR 036B
ENCODING 875
SWIDTH 0 0
DWIDTH 0 0
BBX 7 7 -3 19
BITMAP
EC
96
92
92
92
92
92
ENDCHAR
STARTCHAR 036C
ENCODING 876
SWIDTH 0 0
DWIDTH 0 0
BBX 7 7 -3 19
BITMAP
EE
30
30
30
30
30
FC
ENDCHAR
STARTCHAR 036D
ENCODING 877
SWIDTH 0 0
DWIDTH 0 0
BBX 6 9 -3 19
BITMAP
20
20
FC
20
20
20
20
20
1C
ENDCHAR
STARTCHAR 036E
ENCODING 878
SWIDTH 0 0
DWIDTH 0 0
BBX 7 7 -3 19
BITMAP
86
C4
44
48
28
38
30
ENDCHAR
STARTCHAR 036F
ENCODING 879
SWIDTH 0 0
DWIDTH 0 0
BBX 7 7 -3 19
BITMAP
C6
4C
38
10
38
4C
C6
ENDCHAR
STARTCHAR 0370
ENCODING 880
SWIDTH 600 0
DWIDTH 18 0
BBX 10 22 4 0
BITMAP
E000
E000
E000
E000
E000
E000
E000
E000
E000
FFC0
FFC0
E000
E000
E000
E000
E000
E000
E000
E000
E000
E000
E000
ENDCHAR
STARTCHAR 0371
ENCODING 881
SWIDTH 600 0
DWIDTH 18 0
BBX 8 17 5 0
BITMAP
E0
E0
E0
E0
E0
E0
E0
FF
FF
E0
E0
E0
E0
E0
E0
E0
E0
ENDCHAR
STARTCHAR 0372
ENCODING 882
SWIDTH 600 0
DWIDTH 18 0
BBX 16 22 1 0
BITMAP
FFFF
FFFF
E187
E187
E187
E187
E187
E187
E187
0180
0180
0180
0180
0180
0180
0180
0180
0180
0180
0180
0180
0180
ENDCHAR
STARTCHAR 0373
ENCODING 883
SWIDTH 600 0
DWIDTH 18 0
BBX 16 24 1 0
BITMAP
FFFF
FFFF
E187
E187
E187
E187
E187
E187
E187
0180
0180
0180
0180
0180
0180
0180
0180
0180
0180
0180
0180
0180
0180
0180
ENDCHAR
STARTCHAR 0374
ENCODING 884
SWIDTH 600 0
DWIDTH 18 0
BBX 6 8 6 14
BITMAP
1C
18
38
30
70
60
C0
C0
ENDCHAR
STARTCHAR 0375
ENCODING 885
SWIDTH 600 0
DWIDTH 18 0
BBX 6 5 6 -7
BITMAP
1C
38
38
70
F0
ENDCHAR
STARTCHAR 0376
ENCODING 886
SWIDTH 600 0
DWIDTH 18 0
BBX 14 22 2 0
BITMAP
E01C
E03C
E03C
E07C
E06C
E0EC
E0DC
E1DC
E19C
E39C
E31C
E31C
E71C
E61C
EE1C
EC1C
DC1C
D81C
F81C
F01C
F01C
E01C
ENDCHAR
STARTCHAR 0377
ENCODING 887
SWIDTH 600 0
DWIDTH 18 0
BBX 14 17 2 0
BITMAP
E03C
E03C
E07C
E07C
E0FC
E1DC
E19C
E39C
E31C
E71C
E61C
EE1C
FC1C
F81C
F81C
F01C
F01C
ENDCHAR
STARTCHAR 037A
ENCODING 890
SWIDTH 600 0
DWIDTH 18 0
BBX 4 5 7 -7
BITMAP
C0
C0
C0
F0
70
ENDCHAR
STARTCHAR 037B
ENCODING 891
SWIDTH 600 0
DWIDTH 18 0
BBX 12 17 3 0
BITMAP
7F00
FFC0
E3E0
00E0
0070
0070
0030
0030
0030
0030
0030
0070
0070
00F0
C3E0
FFC0
7F00
ENDCHAR
STARTCHAR 037C
ENCODING 892
SWIDTH 600 0
DWIDTH 18 0
BBX 12 17 3 0
BITMAP
0FE0
3FF0
7C70
7000
E000
E000
C380
C3C0
C3C0
C180
C000
E000
E000
F000
7C70
3FF0
0FE0
ENDCHAR
STARTCHAR 037D
ENCODING 893
SWIDTH 600 0
DWIDTH 18 0
BBX 12 17 3 0
BITMAP
7F00
FFC0
E3E0
00E0
0070
0070
1C30
3C30
3C30
1C30
0030
0070
0070
00F0
C3E0
FFC0
7F00
ENDCHAR
STARTCHAR 037E
ENCODING 894
SWIDTH 600 0
DWIDTH 18 0
BBX 6 21 6 -4
BITMAP
38
3C
3C
38
00
00
00
00
00
00
00
00
00
38
38
78
70
70
70
60
E0
ENDCHAR
STARTCHAR 037F
ENCODING 895
SWIDTH 600 0
DWIDTH 18 0
BBX 11 22 3 0
BITMAP
00E0
00E0
00E0
00E0
00E0
00E0
00E0
00E0
00E0
00E0
00E0
00E0
00E0
00E0
00E0
00E0
00E0
00E0
01C0
E3C0
FF80
7E00
ENDCHAR
STARTCHAR 0384
ENCODING 900
SWIDTH 600 0
DWIDTH 18 0
BBX 4 6 8 19
BITMAP
70
70
60
60
C0
C0
ENDCHAR
STARTCHAR 0385
ENCODING 901
SWIDTH 600 0
DWIDTH 18 0
BBX 10 7 4 20
BITMAP
0700
0700
0600
0600
6D80
E9C0
6180
ENDCHAR
STARTCHAR 0386
ENCODING 902
SWIDTH 600 0
DWIDTH 18 0
BBX 17 25 0 0
BITMAP
700000
700000
700000
61E000
61E000
C1E000
03F000
03F000
033000
073000
073800
061800
061800
0E1C00
0C0C00
0C0C00
1FFE00
1FFE00
180600
380700
380700
300300
700380
700380
600380
ENDCHAR
STARTCHAR 0387
ENCODING 903
SWIDTH 600 0
DWIDTH 18 0
BBX 4 4 7 12
BITMAP
60
F0
F0
60
ENDCHAR
STARTCHAR 0388
ENCODING 904
SWIDTH 600 0
DWIDTH 18 0
BBX 16 25 -1 0
BITMAP
7000
6000
E000
E7FF
C7FF
C600
0600
0600
0600
0600
0600
0600
07FF
07FF
0600
0600
0600
0600
0600
0600
0600
0600
0600
07FF
07FF
ENDCHAR
STARTCHAR 0389
ENCODING 905
SWIDTH 600 0
DWIDTH 18 0
BBX 17 25 -1 0
BITMAP
700000
700000
600000
6E0380
EE0380
CE0380
0E0380
0E0380
0E0380
0E0380
0E0380
0E0380
0FFF80
0FFF80
0E0380
0E0380
0E0380
0E0380
0E0380
0E0380
0E0380
0E0380
0E0380
0E0380
0E0380
ENDCHAR
STARTCHAR 038A
ENCODING 906
SWIDTH 600 0
DWIDTH 18 0
BBX 16 25 -1 0
BITMAP
7000
7000
6000
67FF
E7FF
C070
0070
0070
0070
0070
0070
0070
0070
0070
0070
0070
0070
0070
0070
0070
0070
0070
0070
07FF
07FF
ENDCHAR
STARTCHAR 038C
ENCODING 908
SWIDTH 600 0
DWIDTH 18 0
BBX 17 25 0 0
BITMAP
700000
700000
600000
E3F000
CFFC00
CF3C00
1C0E00
380700
380700
380700
300300
700380
700380
700380
700380
700380
700380
300300
380700
380700
380700
1C0E00
0F3C00
0FF800
03F000
ENDCHAR
STARTCHAR 038E
ENCODING 910
SWIDTH 600 0
DWIDTH 18 0
BBX 18 25 0 0
BITMAP
700000
600000
E00000
EE03C0
C70380
C70380
070700
038700
038600
018E00
01CC00
00CC00
00DC00
00F800
007800
007000
003000
003000
003000
003000
003000
003000
003000
003000
003000
ENDCHAR
STARTCHAR 038F
ENCODING 911
SWIDTH 600 0
DWIDTH 18 0
BBX 17 25 0 0
BITMAP
700000
700000
600000
E3F000
CFFC00
DF3E00
1C0E00
380700
380700
380700
300300
700300
700380
700300
300300
300300
300300
380700
380700
180600
1C0E00
0C0C00
0E1C00
7E1F80
7E1F80
ENDCHAR
STARTCHAR 0390
ENCODING 912
SWIDTH 600 0
DWIDTH 18 0
BBX 10 27 5 0
BITMAP
0700
0600
0E00
0C00
CD80
FB80
C180
0000
0000
0000
1800
1800
1800
1800
1800
1800
1800
1800
1800
1800
1800
1800
1800
1C00
1C40
0FC0
07C0
ENDCHAR
STARTCHAR 0391
ENCODING 913
SWIDTH 600 0
DWIDTH 18 0
BBX 16 22 1 0
BITMAP
03C0
03C0
03C0
07E0
07E0
0660
0E60
0E70
0C30
0C30
1C38
1818
1818
3FFC
3FFC
300C
700E
700E
6006
E007
E007
C007
ENDCHAR
STARTCHAR 0392
ENCODING 914
SWIDTH 600 0
DWIDTH 18 0
BBX 13 22 3 0
BITMAP
FF80
FFE0
C0F0
C078
C038
C038
C038
C030
C070
FFC0
FFC0
C0F0
C038
C038
C018
C018
C038
C038
C038
C0F0
FFE0
FFC0
ENDCHAR
STARTCHAR 0393
ENCODING 915
SWIDTH 600 0
DWIDTH 18 0
BBX 12 22 3 0
BITMAP
FFF0
FFF0
E000
E000
E000
E000
E000
E000
E000
E000
E000
E000
E000
E000
E000
E000
E000
E000
E000
E000
E000
E000
ENDCHAR
STARTCHAR 0394
ENCODING 916
SWIDTH 600 0
DWIDTH 18 0
BBX 16 22 1 0
BITMAP
0380
03C0
03C0
07E0
07E0
0660
0E70
0E70
0C30
1C38
1C38
1818
381C
381C
300C
700E
700E
6006
E007
E007
FFFF
FFFF
ENDCHAR
STARTCHAR 0395
ENCODING 917
SWIDTH 600 0
DWIDTH 18 0
BBX 12 22 3 0
BITMAP
FFF0
FFF0
E000
E000
E000
E000
E000
E000
E000
FFF0
FFF0
E000
E000
E000
E000
E000
E000
E000
E000
E000
FFF0
FFF0
ENDCHAR
STARTCHAR 0396
ENCODING 918
SWIDTH 600 0
DWIDTH 18 0
BBX 12 22 3 0
BITMAP
FFF0
FFF0
0070
0060
00E0
00C0
01C0
0180
0380
0700
0700
0E00
0E00
1C00
1C00
3800
3800
7000
6000
E000
FFF0
FFF0
ENDCHAR
STARTCHAR 0397
ENCODING 919
SWIDTH 600 0
DWIDTH 18 0
BBX 14 22 2 0
BITMAP
E01C
E01C
E01C
E01C
E01C
E01C
E01C
E01C
E01C
FFFC
FFFC
E01C
E01C
E01C
E01C
E01C
E01C
E01C
E01C
E01C
E01C
E01C
ENDCHAR
STARTCHAR 0398
ENCODING 920
SWIDTH 600 0
DWIDTH 18 0
BBX 16 22 1 0
BITMAP
07E0
1FF8
1E78
381C
700E
700E
700E
6006
E007
E7E7
E7E7
E007
E007
E007
6006
700E
700E
700E
381C
1E78
1FF0
07E0
ENDCHAR
STARTCHAR 0399
ENCODING 921
SWIDTH 600 0
DWIDTH 18 0
BBX 12 22 3 0
BITMAP
FFF0
FFF0
0600
0600
0600
0600
0600
0600
0600
0600
0600
0600
0600
0600
0600
0600
0600
0600
0600
0600
FFF0
FFF0
ENDCHAR
STARTCHAR 039A
ENCODING 922
SWIDTH 600 0
DWIDTH 18 0
BBX 15 22 2 0
BITMAP
E01C
E038
E070
E070
E0E0
E1C0
E3C0
E380
E700
EE00
EE00
FF00
FB80
F380
E1C0
E1C0
E0E0
E070
E070
E038
E03C
E01E
ENDCHAR
STARTCHAR 039B
ENCODING 923
SWIDTH 600 0
DWIDTH 18 0
BBX 16 22 1 0
BITMAP
03C0
03C0
03C0
07C0
07E0
0660
0E60
0E70
0E70
0C30
1C38
1C38
1818
381C
381C
300C
700E
700E
700E
E007
E007
E007
ENDCHAR
STARTCHAR 039C
ENCODING 924
SWIDTH 600 0
DWIDTH 18 0
BBX 16 22 1 0
BITMAP
F81F
F81F
F81F
F81F
FC3F
EC37
EC37
EC37
EE77
E667
E667
E7E7
E3C7
E3C7
E3C7
E3C7
E187
E007
E007
E007
E007
E007
ENDCHAR
STARTCHAR 039D
ENCODING 925
SWIDTH 600 0
DWIDTH 18 0
BBX 14 22 2 0
BITMAP
F01C
F01C
F81C
D81C
DC1C
EC1C
EC1C
EE1C
E61C
E71C
E31C
E39C
E19C
E19C
E1DC
E0DC
E0FC
E07C
E07C
E03C
E03C
E03C
ENDCHAR
STARTCHAR 039E
ENCODING 926
SWIDTH 600 0
DWIDTH 18 0
BBX 14 22 2 0
BITMAP
7FF8
7FF8
0000
0000
0000
0000
0000
0000
0000
3FF0
3FF0
0000
0000
0000
0000
0000
0000
0000
0000
0000
FFFC
FFFC
ENDCHAR
STARTCHAR 039F
ENCODING 927
SWIDTH 600 0
DWIDTH 18 0
BBX 16 22 1 0
BITMAP
07E0
1FF8
1E78
381C
700E
700E
700E
6006
E007
E007
E007
E007
E007
E007
6006
700E
700E
700E
381C
1E78
1FF0
07E0
ENDCHAR
STARTCHAR 03A0
ENCODING 928
SWIDTH 600 0
DWIDTH 18 0
BBX 14 22 2 0
BITMAP
FFFC
FFFC
E01C
E01C
E01C
E01C
E01C
E01C
E01C
E01C
E01C
E01C
E01C
E01C
E01C
E01C
E01C
E01C
E01C
E01C
E01C
E01C
ENDCHAR
STARTCHAR 03A1
ENCODING 929
SWIDTH 600 0
DWIDTH 18 0
BBX 13 22 3 0
BITMAP
FFC0
FFE0
E0F0
E038
E038
E018
E018
E038
E038
E038
E0F0
FFE0
FFC0
E000
E000
E000
E000
E000
E000
E000
E000
E000
ENDCHAR
STARTCHAR 03A3
ENCODING 931
SWIDTH 600 0
DWIDTH 18 0
BBX 12 22 3 0
BITMAP
FFE0
FFE0
E000
7000
3800
3800
1C00
0E00
0700
0700
0380
0700
0700
0E00
1C00
1C00
3800
7000
7000
E000
FFF0
FFF0
ENDCHAR
STARTCHAR 03A4
ENCODING 932
SWIDTH 600 0
DWIDTH 18 0
BBX 16 22 1 0
BITMAP
FFFF
FFFF
0180
0180
0180
0180
0180
0180
0180
0180
0180
0180
0180
0180
0180
0180
0180
0180
0180
0180
0180
0180
ENDCHAR
STARTCHAR 03A5
ENCODING 933
SWIDTH 600 0
DWIDTH 18 0
BBX 16 22 1 0
BITMAP
E007
700E
700E
381C
381C
1818
1C38
0C30
0E70
0660
07E0
03C0
03C0
0180
0180
0180
0180
0180
0180
0180
0180
0180
ENDCHAR
STARTCHAR 03A6
ENCODING 934
SWIDTH 600 0
DWIDTH 18 0
BBX 16 22 1 0
BITMAP
0180
0180
0FF0
1FF8
3DBC
718E
6186
E187
E187
E187
E187
E187
E187
6186
718E
399C
3FFC
0FF0
0180
0180
0180
0180
ENDCHAR
STARTCHAR 03A7
ENCODING 935
SWIDTH 600 0
DWIDTH 18 0
BBX 16 22 1 0
BITMAP
F00F
700E
381C
1818
1C38
0C30
0E70
0660
07E0
03C0
0180
03C0
03C0
07E0
0E70
0E70
1C38
1818
381C
300C
700E
E007
ENDCHAR
STARTCHAR 03A8
ENCODING 936
SWIDTH 600 0
DWIDTH 18 0
BBX 16 22 1 0
BITMAP
E187
E187
E187
E187
E187
E187
E187
E187
E187
E187
E187
718E
799E
3FFC
1FF8
0180
0180
0180
0180
0180
0180
0180
ENDCHAR
STARTCHAR 03A9
ENCODING 937
SWIDTH 600 0
DWIDTH 18 0
BBX 16 22 1 0
BITMAP
07E0
1FF8
3E7C
381C
700E
700E
700E
6006
E006
E007
E006
6006
6006
6006
700E
700E
300C
381C
1818
1C38
FC3F
FC3F
ENDCHAR
STARTCHAR 03AA
ENCODING 938
SWIDTH 600 0
DWIDTH 18 0
BBX 12 28 3 0
BITMAP
70E0
70E0
70E0
70E0
0000
0000
FFF0
FFF0
0600
0600
0600
0600
0600
0600
0600
0600
0600
0600
0600
0600
0600
0600
0600
0600
0600
0600
FFF0
FFF0
ENDCHAR
STARTCHAR 03AB
ENCODING 939
SWIDTH 600 0
DWIDTH 18 0
BBX 16 28 1 0
BITMAP
1C38
1C38
1C38
1C38
0000
0000
E007
700E
700E
381C
381C
1818
1C38
0C30
0E70
0660
07E0
03C0
03C0
0180
0180
0180
0180
0180
0180
0180
0180
0180
ENDCHAR
STARTCHAR 03AC
ENCODING 940
SWIDTH 600 0
DWIDTH 18 0
BBX 15 25 2 0
BITMAP
01C0
01C0
0180
0180
0300
0300
0000
0000
1F1C
3FD8
79D8
7078
E038
E038
C038
C038
C038
C038
C038
E038
E038
F078
78FC
3FDE
1F0E
ENDCHAR
STARTCHAR 03AD
ENCODING 941
SWIDTH 600 0
DWIDTH 18 0
BBX 12 25 3 0
BITMAP
0380
0380
0300
0300
0600
0600
0000
0000
0FC0
3FF0
7870
6000
6000
6000
7800
3F80
1F80
7800
E000
E000
E000
E010
7870
3FF0
1FE0
ENDCHAR
STARTCHAR 03AE
ENCODING 942
SWIDTH 600 0
DWIDTH 18 0
BBX 14 32 2 -7
BITMAP
01C0
01C0
0180
0180
0300
0300
0000
0000
E3E0
EFF0
FC78
F038
F01C
E01C
E01C
E01C
E01C
E01C
E01C
E01C
E01C
E01C
E01C
E01C
E01C
001C
001C
001C
001C
001C
001C
001C
ENDCHAR
STARTCHAR 03AF
ENCODING 943
SWIDTH 600 0
DWIDTH 18 0
BBX 7 25 8 0
BITMAP
70
70
60
60
C0
C0
00
00
C0
C0
C0
C0
C0
C0
C0
C0
C0
C0
C0
C0
C0
E0
E2
7E
3E
ENDCHAR
STARTCHAR 03B0
ENCODING 944
SWIDTH 600 0
DWIDTH 18 0
BBX 15 27 2 0
BITMAP
01C0
01C0
0180
0180
1B60
3A70
1860
0000
0000
0000
E01C
E01C
E01C
E00C
E00C
E00C
E00C
E00E
E00C
E00C
E00C
601C
701C
7038
3CF8
3FF0
0FC0
ENDCHAR
STARTCHAR 03B1
ENCODING 945
SWIDTH 600 0
DWIDTH 18 0
BBX 15 17 2 0
BITMAP
1F1C
3FD8
79D8
7078
E038
E038
C038
C038
C038
C038
C038
E038
E038
F078
78FC
3FDE
1F0E
ENDCHAR
STARTCHAR 03B2
ENCODING 946
SWIDTH 600 0
DWIDTH 18 0
BBX 15 31 2 -7
BITMAP
0FC0
3FF0
3C78
7038
601C
E01C
E01C
E01C
E038
E070
E7E0
E7E0
E078
E01C
E00C
E00E
E00E
E00E
E00E
E00E
E01C
FC7C
FFF8
E7E0
E000
E000
E000
E000
E000
E000
E000
ENDCHAR
STARTCHAR 03B3
ENCODING 947
SWIDTH 600 0
DWIDTH 18 0
BBX 16 24 1 -7
BITMAP
E007
700E
700E
300C
381C
181C
1C18
1C38
0C38
0E70
0E70
0660
0760
03E0
03C0
03C0
01C0
0380
0380
0380
0380
0300
0700
0700
ENDCHAR
STARTCHAR 03B4
ENCODING 948
SWIDTH 600 0
DWIDTH 18 0
BBX 14 24 2 0
BITMAP
07E0
1FFC
3C78
3808
3800
3800
1C00
1E00
0F80
03C0
0FF0
3C78
7038
E01C
E01C
E00C
C00C
C00C
E01C
E01C
F038
7CF8
3FF0
0FC0
ENDCHAR
STARTCHAR 03B5
ENCODING 949
SWIDTH 600 0
DWIDTH 18 0
BBX 12 17 3 0
BITMAP
0FC0
3FF0
7870
6000
6000
6000
7800
3F80
1F80
7800
E000
E000
E000
E010
7870
3FF0
1FE0
ENDCHAR
STARTCHAR 03B6
ENCODING 950
SWIDTH 600 0
DWIDTH 18 0
BBX 12 30 4 -6
BITMAP
FFF0
FFF0
00E0
01C0
0380
0700
0E00
1C00
3800
3800
7000
6000
E000
E000
C000
C000
C000
C000
E000
E000
F000
7F00
3FC0
07E0
00F0
0070
0060
00E0
00E0
01C0
ENDCHAR
STARTCHAR 03B7
ENCODING 951
SWIDTH 600 0
DWIDTH 18 0
BBX 14 24 2 -7
BITMAP
E3E0
EFF0
FC78
F038
F01C
E01C
E01C
E01C
E01C
E01C
E01C
E01C
E01C
E01C
E01C
E01C
E01C
001C
001C
001C
001C
001C
001C
001C
ENDCHAR
STARTCHAR 03B8
ENCODING 952
SWIDTH 600 0
DWIDTH 18 0
BBX 14 24 2 0
BITMAP
0FC0
1FE0
3CF0
7038
7038
E018
E01C
E01C
E01C
C01C
C00C
FFFC
FFFC
C00C
C01C
E01C
E01C
E01C
E01C
6038
7038
3CF0
1FE0
0FC0
ENDCHAR
STARTCHAR 03B9
ENCODING 953
SWIDTH 600 0
DWIDTH 18 0
BBX 7 17 8 0
BITMAP
C0
C0
C0
C0
C0
C0
C0
C0
C0
C0
C0
C0
C0
E0
E2
7E
3E
ENDCHAR
STARTCHAR 03BA
ENCODING 954
SWIDTH 600 0
DWIDTH 18 0
BBX 14 17 3 0
BITMAP
E03C
E070
E0F0
E1E0
E1C0
E380
E700
EE00
FF00
FB80
F3C0
E1C0
E0E0
E070
E070
E038
E01C
ENDCHAR
STARTCHAR 03BB
ENCODING 955
SWIDTH 600 0
DWIDTH 18 0
BBX 16 24 1 0
BITMAP
3C00
3E00
4F00
0700
0380
0380
0180
01C0
01C0
03C0
03E0
07E0
0660
0E70
0E70
0C30
1C38
1838
381C
381C
700C
700E
600F
E007
ENDCHAR
STARTCHAR 03BC
ENCODING 956
SWIDTH 600 0
DWIDTH 18 0
BBX 14 24 2 -7
BITMAP
E01C
E01C
E01C
E01C
E01C
E01C
E01C
E01C
E01C
E01C
E01C
E01C
E03C
F03C
F8FC
FFDC
FF9C
E000
E000
E000
E000
E000
E000
E000
ENDCHAR
STARTCHAR 03BD
ENCODING 957
SWIDTH 600 0
DWIDTH 18 0
BBX 14 17 2 0
BITMAP
E01C
E01C
601C
701C
701C
301C
3818
3818
1838
1838
1C30
0C70
0C60
0EE0
0FC0
0780
0780
ENDCHAR
STARTCHAR 03BE
ENCODING 958
SWIDTH 600 0
DWIDTH 18 0
BBX 13 30 3 -6
BITMAP
7FF0
7FF0
0F80
1C00
3800
3000
7000
7000
3000
3C00
1FE0
0FE0
1E00
3800
7000
6000
E000
E000
E000
7000
7800
3F80
1FE0
03F0
0070
0038
0030
0070
0060
00E0
ENDCHAR
STARTCHAR 03BF
ENCODING 959
SWIDTH 600 0
DWIDTH 18 0
BBX 14 17 2 0
BITMAP
0FC0
3FF0
7CF8
7038
E01C
E01C
C01C
C00C
C00C
C00C
C01C
E01C
E01C
7038
7CF8
3FF0
0FC0
ENDCHAR
STARTCHAR 03C0
ENCODING 960
SWIDTH 600 0
DWIDTH 18 0
BBX 16 17 1 0
BITMAP
7FFF
FFFF
1C38
1C38
1C38
1C38
1C38
1C38
1C38
1C38
1C38
1C38
1C38
1C38
1C3D
1C1E
1C1E
ENDCHAR
STARTCHAR 03C1
ENCODING 961
SWIDTH 600 0
DWIDTH 18 0
BBX 14 24 2 -7
BITMAP
07C0
1FF0
3C78
7038
701C
601C
E00C
E00C
E00C
E00C
E01C
E01C
E01C
E038
FCF8
FFF0
E7C0
E000
E000
E000
E000
E000
E000
E000
ENDCHAR
STARTCHAR 03C2
ENCODING 962
SWIDTH 600 0
DWIDTH 18 0
BBX 12 23 3 -6
BITMAP
07E0
1FF0
3C70
7000
E000
E000
E000
C000
C000
C000
C000
E000
E000
7800
7F00
1FE0
03F0
0070
0030
0030
0070
0060
00E0
ENDCHAR
STARTCHAR 03C3
ENCODING 963
SWIDTH 600 0
DWIDTH 18 0
BBX 16 17 2 0
BITMAP
07FF
1FFF
3E70
7038
E018
E01C
E01C
C00C
C00C
C00C
E00C
E01C
E01C
7038
7CF8
3FF0
0FC0
ENDCHAR
STARTCHAR 03C4
ENCODING 964
SWIDTH 600 0
DWIDTH 18 0
BBX 14 17 2 0
BITMAP
3FFC
FFFC
0600
0600
0600
0600
0600
0600
0600
0600
0600
0600
0600
0700
0788
03F8
01F8
ENDCHAR
STARTCHAR 03C5
ENCODING 965
SWIDTH 600 0
DWIDTH 18 0
BBX 15 17 2 0
BITMAP
E01C
E01C
E01C
E00C
E00C
E00C
E00C
E00E
E00C
E00C
E00C
601C
701C
7038
3CF8
3FF0
0FC0
ENDCHAR
STARTCHAR 03C6
ENCODING 966
SWIDTH 600 0
DWIDTH 18 0
BBX 14 24 2 -7
BITMAP
21E0
33F8
73B8
631C
E31C
E30C
C30C
C30C
C30C
C30C
C31C
E31C
E31C
6338
7B78
3FF0
1FC0
0300
0300
0300
0300
0300
0300
0300
ENDCHAR
STARTCHAR 03C7
ENCODING 967
SWIDTH 600 0
DWIDTH 18 0
BBX 16 24 1 -7
BITMAP
380E
3C0C
5E1C
0E18
0638
0630
0770
0760
0360
03E0
03C0
03C0
03C0
07C0
07C0
0EE0
0EE0
0C60
1C60
1870
3870
3038
703F
E00F
ENDCHAR
STARTCHAR 03C8
ENCODING 968
SWIDTH 600 0
DWIDTH 18 0
BBX 14 31 2 -7
BITMAP
0300
0300
0300
0300
0300
0300
0300
E318
E31C
E31C
E30C
E30C
E30C
E30C
E30C
E30C
E30C
E30C
631C
631C
7318
3B78
3FF0
0FE0
0300
0300
0300
0300
0300
0300
0300
ENDCHAR
STARTCHAR 03C9
ENCODING 969
SWIDTH 600 0
DWIDTH 18 0
BBX 14 17 2 0
BITMAP
7038
6018
E01C
E01C
C00C
C00C
C30C
C30C
C30C
C30C
C30C
C30C
E31C
E79C
7FF8
7CF8
3CF0
ENDCHAR
STARTCHAR 03CA
ENCODING 970
SWIDTH 600 0
DWIDTH 18 0
BBX 11 23 4 0
BITMAP
E1C0
E1C0
E1C0
E1C0
0000
0000
0C00
0C00
0C00
0C00
0C00
0C00
0C00
0C00
0C00
0C00
0C00
0C00
0C00
0E00
0E20
07E0
03E0
ENDCHAR
STARTCHAR 03CB
ENCODING 971
SWIDTH 600 0
DWIDTH 18 0
BBX 15 23 2 0
BITMAP
3870
3870
3870
3870
0000
0000
E01C
E01C
E01C
E00C
E00C
E00C
E00C
E00E
E00C
E00C
E00C
601C
701C
7038
3CF8
3FF0
0FC0
ENDCHAR
STARTCHAR 03CC
ENCODING 972
SWIDTH 600 0
DWIDTH 18 0
BBX 14 25 2 0
BITMAP
01C0
01C0
0180
0180
0300
0300
0000
0000
0FC0
3FF0
7CF8
7038
E01C
E01C
C01C
C00C
C00C
C00C
C01C
E01C
E01C
7038
7CF8
3FF0
0FC0
ENDCHAR
STARTCHAR 03CD
ENCODING 973
SWIDTH 600 0
DWIDTH 18 0
BBX 15 25 2 0
BITMAP
01C0
01C0
0180
0180
0300
0300
0000
0000
E01C
E01C
E01C
E00C
E00C
E00C
E00C
E00E
E00C
E00C
E00C
601C
701C
7038
3CF8
3FF0
0FC0
ENDCHAR
STARTCHAR 03CE
ENCODING 974
SWIDTH 600 0
DWIDTH 18 0
BBX 14 25 2 0
BITMAP
01C0
01C0
0180
0180
0300
0300
0000
0000
7038
6018
E01C
E01C
C00C
C00C
C30C
C30C
C30C
C30C
C30C
C30C
E31C
E79C
7FF8
7CF8
3CF0
ENDCHAR
STARTCHAR 03CF
ENCODING 975
SWIDTH 600 0
DWIDTH 18 0
BBX 15 29 2 -7
BITMAP
E01C
E038
E070
E070
E0E0
E1C0
E3C0
E380
E700
EE00
EE00
FF00
FB80
F380
E1C0
E1C0
E0E0
E070
E070
E038
E03C
E01E
000C
001C
001C
8038
F0F0
FFE0
3F80
ENDCHAR
STARTCHAR 03D0
ENCODING 976
SWIDTH 600 0
DWIDTH 18 0
BBX 15 31 2 -7
BITMAP
0FC0
3FF0
3C78
7038
601C
E01C
E01C
E01C
E038
E070
E7E0
E7E0
E078
E01C
E00C
E00E
E00E
E00E
E00E
E00E
E01C
FC7C
FFF8
E7E0
E000
E000
E000
E000
E000
E000
E000
ENDCHAR
STARTCHAR 03D1
ENCODING 977
SWIDTH 600 0
DWIDTH 18 0
BBX 14 24 2 0
BITMAP
0FC0
1FE0
3CF0
7038
7038
E018
E01C
E01C
E01C
C01C
C00C
FFFC
FFFC
C00C
C01C
E01C
E01C
E01C
E01C
6038
7038
3CF0
1FE0
0FC0
ENDCHAR
STARTCHAR 03D2
ENCODING 978
SWIDTH 600 0
DWIDTH 18 0
BBX 16 22 1 0
BITMAP
E007
700E
700E
381C
381C
1818
1C38
0C30
0E70
0660
07E0
03C0
03C0
0180
0180
0180
0180
0180
0180
0180
0180
0180
ENDCHAR
STARTCHAR 03D3
ENCODING 979
SWIDTH 600 0
DWIDTH 18 0
BBX 18 25 0 0
BITMAP
700000
600000
E00000
EE03C0
C70380
C70380
070700
038700
038600
018E00
01CC00
00CC00
00DC00
00F800
007800
007000
003000
003000
003000
003000
003000
003000
003000
003000
003000
ENDCHAR
STARTCHAR 03D4
ENCODING 980
SWIDTH 600 0
DWIDTH 18 0
BBX 16 28 1 0
BITMAP
1C38
1C38
1C38
1C38
0000
0000
E007
700E
700E
381C
381C
1818
1C38
0C30
0E70
0660
07E0
03C0
03C0
0180
0180
0180
0180
0180
0180
0180
0180
0180
ENDCHAR
STARTCHAR 03D5
ENCODING 981
SWIDTH 600 0
DWIDTH 18 0
BBX 14 24 2 -7
BITMAP
21E0
33F8
73B8
631C
E31C
E30C
C30C
C30C
C30C
C30C
C31C
E31C
E31C
6338
7B78
3FF0
1FC0
0300
0300
0300
0300
0300
0300
0300
ENDCHAR
STARTCHAR 03D6
ENCODING 982
SWIDTH 600 0
DWIDTH 18 0
BBX 16 17 1 0
BITMAP
7FFF
FFFF
1C38
1C38
1C38
1C38
1C38
1C38
1C38
1C38
1C38
1C38
1C38
1C38
1C3D
1C1E
1C1E
ENDCHAR
STARTCHAR 03D7
ENCODING 983
SWIDTH 600 0
DWIDTH 18 0
BBX 18 24 0 -7
BITMAP
F00380
F80700
BC0F00
1C1E00
0C1E00
0C3E00
0C7E00
0CEC00
0CEC00
0DCC00
1F8C00
1F0C00
1E0C00
1E0E00
3C0E00
380FC0
7007C0
0001C0
0001C0
0001C0
0001C0
000B80
000F80
000F00
ENDCHAR
STARTCHAR 03D8
ENCODING 984
SWIDTH 600 0
DWIDTH 18 0
BBX 14 22 2 0
BITMAP
0FC0
3FF0
7CF8
7038
E01C
E01C
C00C
C00C
C00C
C00C
C00C
E01C
E01C
7038
7878
3FF0
1FE0
0300
0300
0300
0300
0300
ENDCHAR
STARTCHAR 03D9
ENCODING 985
SWIDTH 600 0
DWIDTH 18 0
BBX 14 24 2 -7
BITMAP
0FC0
3FF0
7CF8
7038
E01C
E01C
C01C
C00C
C00C
C00C
C01C
E01C
E01C
7038
7878
3FF0
0FC0
0300
0300
0300
0300
0300
0300
0300
ENDCHAR
STARTCHAR 03DA
ENCODING 986
SWIDTH 600 0
DWIDTH 18 0
BBX 16 22 1 0
BITMAP
03FC
0FFF
1F1E
3C02
7800
7000
7000
6000
E000
6000
6000
7000
7000
3800
3E00
1FE0
07E0
0060
0060
0060
0060
0060
ENDCHAR
STARTCHAR 03DB
ENCODING 987
SWIDTH 600 0
DWIDTH 18 0
BBX 12 23 3 -6
BITMAP
07E0
1FF0
3C70
7000
E000
E000
E000
C000
C000
C000
C000
E000
E000
7800
7F00
1FC0
03F0
0070
0030
0030
1070
0FE0
0FC0
ENDCHAR
STARTCHAR 03DC
ENCODING 988
SWIDTH 600 0
DWIDTH 18 0
BBX 13 22 3 0
BITMAP
FFF8
FFF8
E000
E000
E000
E000
E000
E000
E000
E000
FFF0
FFF0
E070
E070
E070
E070
E000
E000
E000
E000
E000
E000
ENDCHAR
STARTCHAR 03DD
ENCODING 989
SWIDTH 600 0
DWIDTH 18 0
BBX 13 24 3 -7
BITMAP
FFF8
FFF8
E000
E000
E000
E000
E000
E000
E000
FFF0
FFF0
E030
E030
E030
E030
E000
E000
E000
E000
E000
E000
E000
E000
E000
ENDCHAR
STARTCHAR 03DE
ENCODING 990
SWIDTH 600 0
DWIDTH 18 0
BBX 15 22 1 0
BITMAP
F800
7C00
5C00
0C00
0C00
1C00
1C00
1800
3800
3FFE
7FFE
000C
001C
001C
0018
0038
0038
0030
0030
003A
003E
001E
ENDCHAR
STARTCHAR 03DF
ENCODING 991
SWIDTH 600 0
DWIDTH 18 0
BBX 14 31 2 -7
BITMAP
7800
7C00
5E00
0E00
0E00
0C00
1C00
1C00
1800
3800
3800
3000
707C
77FC
FFFC
FE38
E038
0030
0070
0070
0060
00E0
00E0
00C0
01C0
01C0
01C0
01C0
01E8
00F8
0078
ENDCHAR
STARTCHAR 03E0
ENCODING 992
SWIDTH 600 0
DWIDTH 18 0
BBX 16 22 1 0
BITMAP
3F80
FFE0
F1F0
4078
00FC
03FC
078E
1F0E
1C0E
081E
007F
00F7
03E7
0387
0107
0007
0006
000E
000E
000E
000C
001C
ENDCHAR
STARTCHAR 03E1
ENCODING 993
SWIDTH 600 0
DWIDTH 18 0
BBX 16 31 1 -7
BITMAP
E000
7800
3E00
0F80
03C0
01E0
00F0
0070
0078
03FC
1FDC
0E0E
000E
000E
000E
007F
07FF
03C7
0207
0007
0007
0007
0007
0007
0007
0006
0006
000E
000E
000C
001C
ENDCHAR
STARTCHAR 03F0
ENCODING 1008
SWIDTH 600 0
DWIDTH 18 0
BBX 18 17 0 0
BITMAP
F00380
F80700
BC0F00
1C1E00
0C1E00
0C3E00
0C7E00
0CEC00
0CEC00
1DCC00
1F8C00
1F0C00
1E0C00
1E0E00
3C0E00
3807C0
7003C0
ENDCHAR
STARTCHAR 03F1
ENCODING 1009
SWIDTH 600 0
DWIDTH 18 0
BBX 14 24 2 -7
BITMAP
07C0
1FF0
3C78
7038
701C
601C
E00C
E00C
E00C
E00C
E01C
E01C
E01C
E038
FCF8
FFF0
E7C0
E000
E000
E000
E000
E000
E000
E000
ENDCHAR
STARTCHAR 03F2
ENCODING 1010
SWIDTH 600 0
DWIDTH 18 0
BBX 12 17 3 0
BITMAP
0FE0
3FF0
7C70
7000
E000
E000
C000
C000
C000
C000
C000
E000
E000
F000
7C70
3FF0
0FE0
ENDCHAR
STARTCHAR 03F3
ENCODING 1011
SWIDTH 600 0
DWIDTH 18 0
BBX 10 31 2 -7
BITMAP
01C0
03C0
03C0
01C0
0000
0000
0000
3FC0
3FC0
01C0
01C0
01C0
01C0
01C0
01C0
01C0
01C0
01C0
01C0
01C0
01C0
01C0
01C0
01C0
01C0
01C0
01C0
03C0
8780
FF00
FE00
ENDCHAR
STARTCHAR 03F4
ENCODING 1012
SWIDTH 600 0
DWIDTH 18 0
BBX 16 22 1 0
BITMAP
07E0
1FF8
1E78
381C
700E
700E
700E
6006
E007
E7E7
E7E7
E007
E007
E007
6006
700E
700E
700E
381C
1E78
1FF0
07E0
ENDCHAR
STARTCHAR 03F5
ENCODING 1013
SWIDTH 600 0
DWIDTH 18 0
BBX 12 17 3 0
BITMAP
0FC0
3FF0
7870
6000
6000
6000
7800
3F80
1F80
7800
E000
E000
E000
E010
7870
3FF0
1FE0
ENDCHAR
STARTCHAR 03F6
ENCODING 1014
SWIDTH 600 0
DWIDTH 18 0
BBX 12 17 3 0
BITMAP
7F00
FFC0
E3E0
00E0
0070
0070
0030
3FF0
3FF0
0030
0030
0070
0070
00F0
E3E0
FFC0
7F00
ENDCHAR
STARTCHAR 03F7
ENCODING 1015
SWIDTH 600 0
DWIDTH 18 0
BBX 13 22 3 0
BITMAP
E000
E000
E000
E000
FFC0
FFE0
E0F0
E038
E038
E018
E018
E038
E038
E038
E0F0
FFE0
FFC0
E000
E000
E000
E000
E000
ENDCHAR
STARTCHAR 03F8
ENCODING 1016
SWIDTH 600 0
DWIDTH 18 0
BBX 14 31 2 -7
BITMAP
E000
E000
E000
E000
E000
E000
E000
E7C0
EFF0
FCF8
F038
F01C
E01C
E01C
E00C
E00C
E00C
E01C
E01C
F01C
F038
FCF8
EFF0
E7C0
E000
E000
E000
E000
E000
E000
E000
ENDCHAR
STARTCHAR 03F9
ENCODING 1017
SWIDTH 600 0
DWIDTH 18 0
BBX 12 22 3 0
BITMAP
FFE0
FFE0
E000
7000
3800
3800
1C00
0E00
0700
0700
0380
0700
0700
0E00
1C00
1C00
3800
7000
7000
E000
FFF0
FFF0
ENDCHAR
STARTCHAR 03FA
ENCODING 1018
SWIDTH 600 0
DWIDTH 18 0
BBX 16 22 1 0
BITMAP
F81F
F81F
F81F
F81F
FC3F
EC37
EC37
EC37
EE77
E667
E667
E7E7
E3C7
E3C7
E3C7
E3C7
E187
E007
E007
E007
E007
E007
ENDCHAR
STARTCHAR 03FB
ENCODING 1019
SWIDTH 600 0
DWIDTH 18 0
BBX 14 24 2 -7
BITMAP
E01C
F03C
F03C
F87C
D86C
DCEC
CCCC
CFCC
C78C
C78C
C30C
C00C
C00C
C00C
C00C
C00C
C00C
C000
C000
C000
C000
C000
C000
C000
ENDCHAR
STARTCHAR 03FC
ENCODING 1020
SWIDTH 600 0
DWIDTH 18 0
BBX 16 24 0 -7
BITMAP
01F0
07FC
0F1E
1C0E
1C07
1807
3803
3803
3803
3803
3807
3807
3807
380E
3F3E
3FFC
39F0
3800
3800
FFC0
FFC0
3800
3800
3800
ENDCHAR
STARTCHAR 03FD
ENCODING 1021
SWIDTH 600 0
DWIDTH 18 0
BBX 15 22 1 0
BITMAP
3F80
FFE0
70F0
4038
001C
001C
000C
000E
000E
000E
000E
000E
000E
000E
000E
000C
001C
001C
0038
70F0
7FE0
3F80
ENDCHAR
STARTCHAR 03FE
ENCODING 1022
SWIDTH 600 0
DWIDTH 18 0
BBX 15 22 2 0
BITMAP
03F8
0FFE
1E1C
3804
7000
7000
6000
E000
E000
E060
E0F0
E0F0
E060
E000
E000
6000
7000
7000
3800
1E1C
0FFC
03F8
ENDCHAR
STARTCHAR 03FF
ENCODING 1023
SWIDTH 600 0
DWIDTH 18 0
BBX 15 22 1 0
BITMAP
3F80
FFE0
70F0
4038
001C
001C
000C
000E
000E
0C0E
1E0E
1E0E
0C0E
000E
000E
000C
001C
001C
0038
70F0
7FE0
3F80
ENDCHAR
STARTCHAR 0400
ENCODING 1024
SWIDTH 600 0
DWIDTH 18 0
BBX 12 29 3 0
BITMAP
3C00
1C00
0E00
0600
0300
0000
0000
FFF0
FFF0
E000
E000
E000
E000
E000
E000
E000
FFF0
FFF0
E000
E000
E000
E000
E000
E000
E000
E000
E000
FFF0
FFF0
ENDCHAR
STARTCHAR 0401
ENCODING 1025
SWIDTH 600 0
DWIDTH 18 0
BBX 12 28 3 0
BITMAP
30E0
70E0
70E0
30E0
0000
0000
FFF0
FFF0
E000
E000
E000
E000
E000
E000
E000
FFF0
FFF0
E000
E000
E000
E000
E000
E000
E000
E000
E000
FFF0
FFF0
ENDCHAR
STARTCHAR 0402
ENCODING 1026
SWIDTH 600 0
DWIDTH 18 0
BBX 16 22 0 0
BITMAP
FFF0
FFF0
0C00
0C00
0C00
0C00
0C00
0C00
0FF8
0FFC
0C1E
0C07
0C07
0C07
0C07
0C07
0C07
0C07
0C07
0C4E
0C7E
0C78
ENDCHAR
STARTCHAR 0403
ENCODING 1027
SWIDTH 600 0
DWIDTH 18 0
BBX 12 29 3 0
BITMAP
00F0
00E0
01C0
0180
0300
0000
0000
FFF0
FFF0
E000
E000
E000
E000
E000
E000
E000
E000
E000
E000
E000
E000
E000
E000
E000
E000
E000
E000
E000
E000
ENDCHAR
STARTCHAR 0404
ENCODING 1028
SWIDTH 600 0
DWIDTH 18 0
BBX 16 22 1 0
BITMAP
01FC
07FF
0F0E
1C00
3800
7000
7000
6000
6000
FFF8
FFF8
E000
E000
6000
7000
7000
7000
3800
3C00
1F86
07FE
01FC
ENDCHAR
STARTCHAR 0405
ENCODING 1029
SWIDTH 600 0
DWIDTH 18 0
BBX 13 22 3 0
BITMAP
0FE0
3FF0
7870
E000
E000
E000
E000
E000
7800
7E00
1F80
07E0
01F0
0070
0038
0038
0038
0038
8070
F1F0
FFE0
7F80
ENDCHAR
STARTCHAR 0406
ENCODING 1030
SWIDTH 600 0
DWIDTH 18 0
BBX 12 22 3 0
BITMAP
FFF0
FFF0
0600
0600
0600
0600
0600
0600
0600
0600
0600
0600
0600
0600
0600
0600
0600
0600
0600
0600
FFF0
FFF0
ENDCHAR
STARTCHAR 0407
ENCODING 1031
SWIDTH 600 0
DWIDTH 18 0
BBX 12 28 3 0
BITMAP
70E0
70E0
70E0
70E0
0000
0000
FFF0
FFF0
0600
0600
0600
0600
0600
0600
0600
0600
0600
0600
0600
0600
0600
0600
0600
0600
0600
0600
FFF0
FFF0
ENDCHAR
STARTCHAR 0408
ENCODING 1032
SWIDTH 600 0
DWIDTH 18 0
BBX 11 22 3 0
BITMAP
00E0
00E0
00E0
00E0
00E0
00E0
00E0
00E0
00E0
00E0
00E0
00E0
00E0
00E0
00E0
00E0
00E0
00E0
01C0
E3C0
FF80
7E00
ENDCHAR
STARTCHAR 0409
ENCODING 1033
SWIDTH 600 0
DWIDTH 18 0
BBX 18 22 0 0
BITMAP
0FE000
0FE000
0C6000
0C6000
0C6000
0C6000
0C6000
0C6000
0C6000
0C7E00
0C7F00
0C6780
0C6180
1C61C0
1C61C0
1C61C0
1861C0
1861C0
186180
386780
F07F00
E07E00
ENDCHAR
STARTCHAR 040A
ENCODING 1034
SWIDTH 600 0
DWIDTH 18 0
BBX 17 22 1 0
BITMAP
E1C000
E1C000
E1C000
E1C000
E1C000
E1C000
E1C000
E1C000
E1C000
FFFC00
FFFE00
E1CF00
E1C700
E1C380
E1C380
E1C380
E1C380
E1C300
E1C700
E1CF00
E1FE00
E1FC00
ENDCHAR
STARTCHAR 040B
ENCODING 1035
SWIDTH 600 0
DWIDTH 18 0
BBX 16 22 0 0
BITMAP
FFF8
FFF8
0C00
0C00
0C00
0C00
0C00
0C00
0C00
0FF8
0FFE
0C0E
0C07
0C07
0C07
0C07
0C07
0C07
0C07
0C07
0C07
0C07
ENDCHAR
STARTCHAR 040C
ENCODING 1036
SWIDTH 600 0
DWIDTH 18 0
BBX 15 29 2 0
BITMAP
00F0
00E0
01C0
0180
0300
0000
0000
E01C
E038
E070
E0E0
E0E0
E1C0
E380
E700
EE00
EE00
FC00
FC00
EE00
E700
E380
E380
E1C0
E0E0
E070
E078
E038
E01E
ENDCHAR
STARTCHAR 040D
ENCODING 1037
SWIDTH 600 0
DWIDTH 18 0
BBX 14 29 2 0
BITMAP
1C00
0E00
0700
0300
0180
0000
0000
E01C
E03C
E03C
E07C
E06C
E0EC
E0DC
E1DC
E19C
E39C
E31C
E31C
E71C
E61C
EE1C
EC1C
DC1C
D81C
F81C
F01C
F01C
E01C
ENDCHAR
STARTCHAR 040E
ENCODING 1038
SWIDTH 600 0
DWIDTH 18 0
BBX 16 28 1 0
BITMAP
1818
0E70
0FF0
07C0
0000
0000
E007
6006
700E
300E
380C
381C
1C1C
1C38
0C38
0E30
0670
0770
0760
03E0
03C0
01C0
01C0
0380
0380
4700
7E00
7C00
ENDCHAR
STARTCHAR 040F
ENCODING 1039
SWIDTH 600 0
DWIDTH 18 0
BBX 14 28 2 -6
BITMAP
E01C
E01C
E01C
E01C
E01C
E01C
E01C
E01C
E01C
E01C
E01C
E01C
E01C
E01C
E01C
E01C
E01C
E01C
E01C
E01C
FFFC
FFFC
0300
0300
0300
0300
0300
0300
ENDCHAR
STARTCHAR 0410
ENCODING 1040
SWIDTH 600 0
DWIDTH 18 0
BBX 16 22 1 0
BITMAP
03C0
03C0
03C0
07E0
07E0
0660
0E60
0E70
0C30
0C30
1C38
1818
1818
3FFC
3FFC
300C
700E
700E
6006
E007
E007
C007
ENDCHAR
STARTCHAR 0411
ENCODING 1041
SWIDTH 600 0
DWIDTH 18 0
BBX 13 22 3 0
BITMAP
FFF0
FFF0
C000
C000
C000
C000
C000
C000
C000
FFC0
FFF0
C0F0
C038
C038
C018
C018
C018
C038
C038
C0F0
FFE0
FFC0
ENDCHAR
STARTCHAR 0412
ENCODING 1042
SWIDTH 600 0
DWIDTH 18 0
BBX 13 22 3 0
BITMAP
FF80
FFE0
C0F0
C078
C038
C038
C038
C030
C070
FFC0
FFC0
C0F0
C038
C038
C018
C018
C038
C038
C038
C0F0
FFE0
FFC0
ENDCHAR
STARTCHAR 0413
ENCODING 1043
SWIDTH 600 0
DWIDTH 18 0
BBX 12 22 3 0
BITMAP
FFF0
FFF0
E000
E000
E000
E000
E000
E000
E000
E000
E000
E000
E000
E000
E000
E000
E000
E000
E000
E000
E000
E000
ENDCHAR
STARTCHAR 0414
ENCODING 1044
SWIDTH 600 0
DWIDTH 18 0
BBX 16 28 1 -6
BITMAP
03FC
07FC
071C
071C
071C
071C
061C
061C
061C
0E1C
0E1C
0C1C
0C1C
1C1C
1C1C
181C
381C
381C
301C
701C
FFFF
FFFF
C003
C003
C003
C003
C003
C003
ENDCHAR
STARTCHAR 0415
ENCODING 1045
SWIDTH 600 0
DWIDTH 18 0
BBX 12 22 3 0
BITMAP
FFF0
FFF0
E000
E000
E000
E000
E000
E000
E000
FFF0
FFF0
E000
E000
E000
E000
E000
E000
E000
E000
E000
FFF0
FFF0
ENDCHAR
STARTCHAR 0416
ENCODING 1046
SWIDTH 600 0
DWIDTH 18 0
BBX 18 22 0 0
BITMAP
E0C180
70C380
30C300
38C700
38C700
1CCE00
1CCE00
0CCC00
0EDC00
06D800
07F800
07D800
0EDC00
0EDC00
0CCC00
1CCE00
18C600
38C700
38C700
70C380
70C380
E0C1C0
ENDCHAR
STARTCHAR 0417
ENCODING 1047
SWIDTH 600 0
DWIDTH 18 0
BBX 14 22 2 0
BITMAP
1FC0
7FF0
F0F8
4038
0018
0018
0018
0038
0070
3FC0
3FC0
01F0
0038
001C
001C
001C
001C
001C
8038
F0F8
FFF0
3FC0
ENDCHAR
STARTCHAR 0418
ENCODING 1048
SWIDTH 600 0
DWIDTH 18 0
BBX 14 22 2 0
BITMAP
E01C
E03C
E03C
E07C
E06C
E0EC
E0DC
E1DC
E19C
E39C
E31C
E31C
E71C
E61C
EE1C
EC1C
DC1C
D81C
F81C
F01C
F01C
E01C
ENDCHAR
STARTCHAR 0419
ENCODING 1049
SWIDTH 600 0
DWIDTH 18 0
BBX 14 28 2 0
BITMAP
3030
1CE0
1FE0
0F80
0000
0000
E01C
E03C
E03C
E07C
E06C
E0EC
E0DC
E1DC
E19C
E39C
E31C
E31C
E71C
E61C
EE1C
EC1C
DC1C
D81C
F81C
F01C
F01C
E01C
ENDCHAR
STARTCHAR 041A
ENCODING 1050
SWIDTH 600 0
DWIDTH 18 0
BBX 15 22 2 0
BITMAP
E01C
E038
E070
E0E0
E0E0
E1C0
E380
E700
EE00
EE00
FC00
FC00
EE00
E700
E380
E380
E1C0
E0E0
E070
E078
E038
E01E
ENDCHAR
STARTCHAR 041B
ENCODING 1051
SWIDTH 600 0
DWIDTH 18 0
BBX 16 22 0 0
BITMAP
03FF
03FF
0307
0707
0707
0707
0707
0607
0607
0607
0607
0E07
0E07
0E07
0E07
0C07
0C07
0C07
1C07
B807
F807
F007
ENDCHAR
STARTCHAR 041C
ENCODING 1052
SWIDTH 600 0
DWIDTH 18 0
BBX 16 22 1 0
BITMAP
F81F
F81F
F81F
F81F
FC3F
EC37
EC37
EC37
EE77
E667
E667
E7E7
E3C7
E3C7
E3C7
E3C7
E187
E007
E007
E007
E007
E007
ENDCHAR
STARTCHAR 041D
ENCODING 1053
SWIDTH 600 0
DWIDTH 18 0
BBX 14 22 2 0
BITMAP
E01C
E01C
E01C
E01C
E01C
E01C
E01C
E01C
E01C
FFFC
FFFC
E01C
E01C
E01C
E01C
E01C
E01C
E01C
E01C
E01C
E01C
E01C
ENDCHAR
STARTCHAR 041E
ENCODING 1054
SWIDTH 600 0
DWIDTH 18 0
BBX 16 22 1 0
BITMAP
07E0
1FF8
1E78
381C
700E
700E
700E
6006
E007
E007
E007
E007
E007
E007
6006
700E
700E
700E
381C
1E78
1FF0
07E0
ENDCHAR
STARTCHAR 041F
ENCODING 1055
SWIDTH 600 0
DWIDTH 18 0
BBX 14 22 2 0
BITMAP
FFFC
FFFC
E01C
E01C
E01C
E01C
E01C
E01C
E01C
E01C
E01C
E01C
E01C
E01C
E01C
E01C
E01C
E01C
E01C
E01C
E01C
E01C
ENDCHAR
STARTCHAR 0420
ENCODING 1056
SWIDTH 600 0
DWIDTH 18 0
BBX 13 22 3 0
BITMAP
FFC0
FFE0
E0F0
E038
E038
E018
E018
E038
E038
E038
E0F0
FFE0
FFC0
E000
E000
E000
E000
E000
E000
E000
E000
E000
ENDCHAR
STARTCHAR 0421
ENCODING 1057
SWIDTH 600 0
DWIDTH 18 0
BBX 15 22 2 0
BITMAP
03F8
0FFE
1E1C
3804
7000
7000
6000
E000
E000
E000
E000
E000
E000
E000
E000
6000
7000
7000
3800
1E1C
0FFC
03F8
ENDCHAR
STARTCHAR 0422
ENCODING 1058
SWIDTH 600 0
DWIDTH 18 0
BBX 16 22 1 0
BITMAP
FFFF
FFFF
0180
0180
0180
0180
0180
0180
0180
0180
0180
0180
0180
0180
0180
0180
0180
0180
0180
0180
0180
0180
ENDCHAR
STARTCHAR 0423
ENCODING 1059
SWIDTH 600 0
DWIDTH 18 0
BBX 16 22 1 0
BITMAP
E007
6006
700E
300E
380C
381C
1C1C
1C38
0C38
0E30
0670
0770
0760
03E0
03C0
01C0
01C0
0380
0380
4700
7E00
7C00
ENDCHAR
STARTCHAR 0424
ENCODING 1060
SWIDTH 600 0
DWIDTH 18 0
BBX 16 22 1 0
BITMAP
0180
0180
0FF0
3FFC
3DBE
718E
6186
E187
E187
E187
E187
E187
E187
6186
718E
799E
3FFC
1FF8
0180
0180
0180
0180
ENDCHAR
STARTCHAR 0425
ENCODING 1061
SWIDTH 600 0
DWIDTH 18 0
BBX 16 22 1 0
BITMAP
F00F
700E
381C
1818
1C38
0C30
0E70
0660
07E0
03C0
0180
03C0
03C0
07E0
0E70
0E70
1C38
1818
381C
300C
700E
E007
ENDCHAR
STARTCHAR 0426
ENCODING 1062
SWIDTH 600 0
DWIDTH 18 0
BBX 16 28 2 -6
BITMAP
E01C
E01C
E01C
E01C
E01C
E01C
E01C
E01C
E01C
E01C
E01C
E01C
E01C
E01C
E01C
E01C
E01C
E01C
E01C
E01C
FFFF
FFFF
0007
0007
0007
0007
0007
0007
ENDCHAR
STARTCHAR 0427
ENCODING 1063
SWIDTH 600 0
DWIDTH 18 0
BBX 14 22 2 0
BITMAP
E01C
E01C
E01C
E01C
E01C
E01C
E01C
E01C
E01C
E01C
E01C
707C
7FFC
3FDC
001C
001C
001C
001C
001C
001C
001C
001C
ENDCHAR
STARTCHAR 0428
ENCODING 1064
SWIDTH 600 0
DWIDTH 18 0
BBX 16 22 1 0
BITMAP
E187
E187
E187
E187
E187
E187
E187
E187
E187
E187
E187
E187
E187
E187
E187
E187
E187
E187
E187
E187
FFFF
FFFF
ENDCHAR
STARTCHAR 0429
ENCODING 1065
SWIDTH 600 0
DWIDTH 18 0
BBX 17 28 1 -6
BITMAP
E18700
E18700
E18700
E18700
E18700
E18700
E18700
E18700
E18700
E18700
E18700
E18700
E18700
E18700
E18700
E18700
E18700
E18700
E18700
E18700
FFFF80
FFFF80
000380
000380
000380
000380
000380
000380
ENDCHAR
STARTCHAR 042A
ENCODING 1066
SWIDTH 600 0
DWIDTH 18 0
BBX 17 22 0 0
BITMAP
FC0000
FC0000
1C0000
1C0000
1C0000
1C0000
1C0000
1C0000
1C0000
1FF800
1FFE00
1C0F00
1C0700
1C0380
1C0380
1C0380
1C0380
1C0380
1C0700
1C0F00
1FFE00
1FF800
ENDCHAR
STARTCHAR 042B
ENCODING 1067
SWIDTH 600 0
DWIDTH 18 0
BBX 16 22 1 0
BITMAP
E007
E007
E007
E007
E007
E007
E007
E007
E007
FF07
FF87
E3C7
E0C7
E0E7
E0E7
E0E7
E0E7
E0E7
E1C7
E3C7
FF87
FF07
ENDCHAR
STARTCHAR 042C
ENCODING 1068
SWIDTH 600 0
DWIDTH 18 0
BBX 13 22 3 0
BITMAP
C000
C000
C000
C000
C000
C000
C000
C000
C000
FFC0
FFE0
C1F0
C038
C038
C018
C018
C018
C038
C038
C1F0
FFE0
FFC0
ENDCHAR
STARTCHAR 042D
ENCODING 1069
SWIDTH 600 0
DWIDTH 18 0
BBX 16 22 1 0
BITMAP
3F80
FFE0
70F0
0038
001C
000E
000E
0006
0006
1FFF
1FFF
0007
0007
0006
000E
000E
000E
001C
003C
61F8
7FE0
3F80
ENDCHAR
STARTCHAR 042E
ENCODING 1070
SWIDTH 600 0
DWIDTH 18 0
BBX 15 22 2 0
BITMAP
E0F0
E1F8
E3B8
E31C
E70C
E70C
E70C
E70E
E70E
FF0E
FF0E
E70E
E70E
E70E
E70E
E70C
E70C
E30C
E31C
E3B8
E1F8
E0F0
ENDCHAR
STARTCHAR 042F
ENCODING 1071
SWIDTH 600 0
DWIDTH 18 0
BBX 14 22 1 0
BITMAP
03FC
0FFC
1E1C
381C
381C
301C
301C
381C
381C
381C
1E1C
0FFC
03FC
071C
0E1C
0E1C
1C1C
1C1C
381C
701C
701C
E01C
ENDCHAR
STARTCHAR 0430
ENCODING 1072
SWIDTH 600 0
DWIDTH 18 0
BBX 13 17 2 0
BITMAP
0FC0
7FF0
3878
2038
0018
0018
0018
1FF8
7FF8
7018
E018
E018
E038
E038
71F8
7FD8
1F18
ENDCHAR
STARTCHAR 0431
ENCODING 1073
SWIDTH 600 0
DWIDTH 18 0
BBX 14 24 2 0
BITMAP
0078
03F8
0FE0
1E00
3800
7000
6000
E000
E7E0
CFF0
DC78
F03C
E01C
C01C
C00C
C00C
C00C
E00C
E01C
601C
7038
3C78
1FF0
0FC0
ENDCHAR
STARTCHAR 0432
ENCODING 1074
SWIDTH 600 0
DWIDTH 18 0
BBX 12 17 4 0
BITMAP
FF80
FFE0
C0E0
C070
C070
C060
C0E0
FFC0
FFC0
C0E0
C070
C070
C070
C070
C0E0
FFE0
FF80
ENDCHAR
STARTCHAR 0433
ENCODING 1075
SWIDTH 600 0
DWIDTH 18 0
BBX 9 17 6 0
BITMAP
FF80
FF80
C000
C000
C000
C000
C000
C000
C000
C000
C000
C000
C000
C000
C000
C000
C000
ENDCHAR
STARTCHAR 0434
ENCODING 1076
SWIDTH 600 0
DWIDTH 18 0
BBX 14 23 2 -6
BITMAP
0FF0
0FF0
0E30
0E30
0C30
0C30
0C30
0C30
1C30
1C30
1830
3830
3830
3030
7030
FFFC
FFFC
C00C
C00C
C00C
C00C
C00C
C00C
ENDCHAR
STARTCHAR 0435
ENCODING 1077
SWIDTH 600 0
DWIDTH 18 0
BBX 14 17 2 0
BITMAP
07C0
1FF0
3C78
7038
E01C
E01C
E01C
FFFC
FFFC
E000
E000
E000
E000
7004
3C38
1FF8
07F0
ENDCHAR
STARTCHAR 0436
ENCODING 1078
SWIDTH 600 0
DWIDTH 18 0
BBX 18 17 0 0
BITMAP
70C380
30C300
38C700
18C600
1CCE00
0CCC00
0ED800
06F800
07F800
06D800
0EDC00
1CCE00
18CE00
38C700
30C300
70C380
E0C1C0
ENDCHAR
STARTCHAR 0437
ENCODING 1079
SWIDTH 600 0
DWIDTH 18 0
BBX 13 17 2 0
BITMAP
1FC0
7FE0
70F0
0030
0038
0030
00F0
0FC0
0FE0
0070
0038
0018
0018
8038
F0F0
FFF0
3FC0
ENDCHAR
STARTCHAR 0438
ENCODING 1080
SWIDTH 600 0
DWIDTH 18 0
BBX 14 17 2 0
BITMAP
E03C
E03C
E07C
E07C
E0FC
E1DC
E19C
E39C
E31C
E71C
E61C
EE1C
FC1C
F81C
F81C
F01C
F01C
ENDCHAR
STARTCHAR 0439
ENCODING 1081
SWIDTH 600 0
DWIDTH 18 0
BBX 14 23 2 0
BITMAP
3030
1CE0
1FE0
07C0
0000
0000
E03C
E03C
E07C
E07C
E0FC
E1DC
E19C
E39C
E31C
E71C
E61C
EE1C
FC1C
F81C
F81C
F01C
F01C
ENDCHAR
STARTCHAR 043A
ENCODING 1082
SWIDTH 600 0
DWIDTH 18 0
BBX 14 17 3 0
BITMAP
E03C
E070
E0E0
E1C0
E380
E700
EE00
FC00
FC00
EE00
E700
E380
E1C0
E0E0
E0F0
E078
E03C
ENDCHAR
STARTCHAR 043B
ENCODING 1083
SWIDTH 600 0
DWIDTH 18 0
BBX 14 17 2 0
BITMAP
0FFC
0FFC
0C1C
1C1C
1C1C
1C1C
1C1C
1C1C
181C
181C
181C
381C
381C
301C
701C
F01C
E01C
ENDCHAR
STARTCHAR 043C
ENCODING 1084
SWIDTH 600 0
DWIDTH 18 0
BBX 16 17 1 0
BITMAP
F00F
F00F
F81F
F81F
F81F
FC3F
EC37
EC37
EC77
E667
E667
E667
E3C7
E3C7
E3C7
E3C7
E187
ENDCHAR
STARTCHAR 043D
ENCODING 1085
SWIDTH 600 0
DWIDTH 18 0
BBX 14 17 2 0
BITMAP
E01C
E01C
E01C
E01C
E01C
E01C
E01C
FFFC
FFFC
E01C
E01C
E01C
E01C
E01C
E01C
E01C
E01C
ENDCHAR
STARTCHAR 043E
ENCODING 1086
SWIDTH 600 0
DWIDTH 18 0
BBX 14 17 2 0
BITMAP
0FC0
3FF0
7CF8
7038
E01C
E01C
C01C
C00C
C00C
C00C
C01C
E01C
E01C
7038
7CF8
3FF0
0FC0
ENDCHAR
STARTCHAR 043F
ENCODING 1087
SWIDTH 600 0
DWIDTH 18 0
BBX 14 17 2 0
BITMAP
FFFC
FFFC
E01C
E01C
E01C
E01C
E01C
E01C
E01C
E01C
E01C
E01C
E01C
E01C
E01C
E01C
E01C
ENDCHAR
STARTCHAR 0440
ENCODING 1088
SWIDTH 600 0
DWIDTH 18 0
BBX 14 24 2 -7
BITMAP
E7C0
EFF0
FCF8
F038
F01C
E01C
E01C
E00C
E00C
E00C
E01C
E01C
F01C
F038
FCF8
EFF0
E7C0
E000
E000
E000
E000
E000
E000
E000
ENDCHAR
STARTCHAR 0441
ENCODING 1089
SWIDTH 600 0
DWIDTH 18 0
BBX 12 17 3 0
BITMAP
0FE0
3FF0
7C70
7000
E000
E000
C000
C000
C000
C000
C000
E000
E000
F000
7C70
3FF0
0FE0
ENDCHAR
STARTCHAR 0442
ENCODING 1090
SWIDTH 600 0
DWIDTH 18 0
BBX 14 17 2 0
BITMAP
FFFC
FFFC
0300
0300
0300
0300
0300
0300
0300
0300
0300
0300
0300
0300
0300
0300
0300
ENDCHAR
STARTCHAR 0443
ENCODING 1091
SWIDTH 600 0
DWIDTH 18 0
BBX 16 24 1 -7
BITMAP
E007
700E
700E
300C
381C
181C
1C18
1C38
0C38
0E30
0670
0760
0760
03E0
03C0
01C0
01C0
0180
0380
0380
0700
0F00
7E00
7C00
ENDCHAR
STARTCHAR 0444
ENCODING 1092
SWIDTH 600 0
DWIDTH 18 0
BBX 14 31 2 -7
BITMAP
0300
0300
0300
0300
0300
0300
0300
0FC0
3FF0
7B78
6338
E31C
E31C
C30C
C30C
C30C
C30C
C30C
E31C
E31C
7338
7B78
3FF0
0FC0
0300
0300
0300
0300
0300
0300
0300
ENDCHAR
STARTCHAR 0445
ENCODING 1093
SWIDTH 600 0
DWIDTH 18 0
BBX 16 17 1 0
BITMAP
700E
381C
381C
1C38
0E70
0E70
07E0
03C0
03C0
03C0
07E0
0E70
1C30
1C38
381C
700E
F00F
ENDCHAR
STARTCHAR 0446
ENCODING 1094
SWIDTH 600 0
DWIDTH 18 0
BBX 16 23 2 -6
BITMAP
E01C
E01C
E01C
E01C
E01C
E01C
E01C
E01C
E01C
E01C
E01C
E01C
E01C
E01C
E01C
FFFF
FFFF
0003
0003
0003
0003
0003
0003
ENDCHAR
STARTCHAR 0447
ENCODING 1095
SWIDTH 600 0
DWIDTH 18 0
BBX 14 17 2 0
BITMAP
E01C
E01C
E01C
E01C
E01C
E01C
E01C
601C
707C
3FFC
1F9C
001C
001C
001C
001C
001C
001C
ENDCHAR
STARTCHAR 0448
ENCODING 1096
SWIDTH 600 0
DWIDTH 18 0
BBX 16 17 1 0
BITMAP
E187
E187
E187
E187
E187
E187
E187
E187
E187
E187
E187
E187
E187
E187
E187
FFFF
FFFF
ENDCHAR
STARTCHAR 0449
ENCODING 1097
SWIDTH 600 0
DWIDTH 18 0
BBX 17 23 1 -6
BITMAP
E18700
E18700
E18700
E18700
E18700
E18700
E18700
E18700
E18700
E18700
E18700
E18700
E18700
E18700
E18700
FFFF80
FFFF80
000380
000380
000380
000380
000380
000380
ENDCHAR
STARTCHAR 044A
ENCODING 1098
SWIDTH 600 0
DWIDTH 18 0
BBX 16 17 0 0
BITMAP
FC00
FC00
0C00
0C00
0C00
0C00
0C00
0FFC
0FFE
0C0F
0C07
0C03
0C03
0C07
0C0F
0FFE
0FF8
ENDCHAR
STARTCHAR 044B
ENCODING 1099
SWIDTH 600 0
DWIDTH 18 0
BBX 16 17 1 0
BITMAP
E007
E007
E007
E007
E007
E007
E007
FF07
FFC7
E1E7
E0E7
E067
E0E7
E0E7
E1E7
FFC7
FF07
ENDCHAR
STARTCHAR 044C
ENCODING 1100
SWIDTH 600 0
DWIDTH 18 0
BBX 12 17 4 0
BITMAP
C000
C000
C000
C000
C000
C000
C000
FFC0
FFE0
C0F0
C070
C030
C030
C070
C0F0
FFE0
FF80
ENDCHAR
STARTCHAR 044D
ENCODING 1101
SWIDTH 600 0
DWIDTH 18 0
BBX 12 17 3 0
BITMAP
7F00
FFC0
E3E0
00E0
0070
0070
0030
3FF0
3FF0
0030
0030
0070
0070
00F0
E3E0
FFC0
7F00
ENDCHAR
STARTCHAR 044E
ENCODING 1102
SWIDTH 600 0
DWIDTH 18 0
BBX 15 17 2 0
BITMAP
C0F0
C1F8
C3BC
C31C
C70C
C70E
C70E
FF0E
FF0E
C70E
C70E
C70E
C70C
C31C
C3BC
C1F8
C0F0
ENDCHAR
STARTCHAR 044F
ENCODING 1103
SWIDTH 600 0
DWIDTH 18 0
BBX 13 17 2 0
BITMAP
0FF8
3FF8
3818
7018
7018
6018
7018
7818
3FF8
0FF8
0E18
1C18
1C18
3818
3818
7018
E018
ENDCHAR
STARTCHAR 0450
ENCODING 1104
SWIDTH 600 0
DWIDTH 18 0
BBX 14 24 2 0
BITMAP
1E00
0E00
0700
0380
0180
0000
0000
07C0
1FF0
3C78
7038
E01C
E01C
E01C
FFFC
FFFC
E000
E000
E000
E000
7004
3C38
1FF8
07F0
ENDCHAR
STARTCHAR 0451
ENCODING 1105
SWIDTH 600 0
DWIDTH 18 0
BBX 14 23 2 0
BITMAP
1830
3C70
3870
1830
0000
0000
07C0
1FF0
3C78
7038
E01C
E01C
E01C
FFFC
FFFC
E000
E000
E000
E000
7004
3C38
1FF8
07F0
ENDCHAR
STARTCHAR 0452
ENCODING 1106
SWIDTH 600 0
DWIDTH 18 0
BBX 16 31 0 -7
BITMAP
3800
3800
3800
FFC0
FFC0
3800
3800
38F8
3BFC
3F1E
3E0E
3C07
3807
3807
3807
3807
3807
3807
3807
3807
3807
3807
3807
3807
0007
0007
0007
0007
002E
003E
003C
ENDCHAR
STARTCHAR 0453
ENCODING 1107
SWIDTH 600 0
DWIDTH 18 0
BBX 9 24 6 0
BITMAP
0780
0700
0E00
1C00
1800
0000
0000
FF80
FF80
C000
C000
C000
C000
C000
C000
C000
C000
C000
C000
C000
C000
C000
C000
C000
ENDCHAR
STARTCHAR 0454
ENCODING 1108
SWIDTH 600 0
DWIDTH 18 0
BBX 12 17 3 0
BITMAP
0FE0
3FF0
7C70
7000
E000
E000
C000
FFC0
FFC0
C000
C000
E000
E000
F000
7C70
3FF0
0FE0
ENDCHAR
STARTCHAR 0455
ENCODING 1109
SWIDTH 600 0
DWIDTH 18 0
BBX 12 17 3 0
BITMAP
1FC0
3FF0
7860
E000
E000
7000
7800
3E00
0F80
03E0
00F0
0070
0070
8070
F1E0
FFE0
3F80
ENDCHAR
STARTCHAR 0456
ENCODING 1110
SWIDTH 600 0
DWIDTH 18 0
BBX 14 24 2 0
BITMAP
0380
0780
0780
0380
0000
0000
0000
7F80
7F80
0380
0380
0380
0380
0380
0380
0380
0380
0380
0380
0380
0380
0380
FFFC
FFFC
ENDCHAR
STARTCHAR 0457
ENCODING 1111
SWIDTH 600 0
DWIDTH 18 0
BBX 14 23 2 0
BITMAP
3870
3870
3870
3870
0000
0000
7F80
7F80
0380
0380
0380
0380
0380
0380
0380
0380
0380
0380
0380
0380
0380
FFFC
FFFC
ENDCHAR
STARTCHAR 0458
ENCODING 1112
SWIDTH 600 0
DWIDTH 18 0
BBX 10 31 2 -7
BITMAP
01C0
03C0
03C0
01C0
0000
0000
0000
3FC0
3FC0
01C0
01C0
01C0
01C0
01C0
01C0
01C0
01C0
01C0
01C0
01C0
01C0
01C0
01C0
01C0
01C0
01C0
01C0
03C0
8780
FF00
FE00
ENDCHAR
STARTCHAR 0459
ENCODING 1113
SWIDTH 600 0
DWIDTH 18 0
BBX 17 17 0 0
BITMAP
0FE000
0FE000
0C6000
0C6000
0C6000
0C6000
0C6000
0C7E00
0C7F00
1C6780
1C6380
186180
186180
186380
386780
F07F00
E07E00
ENDCHAR
STARTCHAR 045A
ENCODING 1114
SWIDTH 600 0
DWIDTH 18 0
BBX 16 17 1 0
BITMAP
E180
E180
E180
E180
E180
E180
E180
FFF8
FFFE
E18E
E187
E187
E187
E187
E18E
E1FE
E1F8
ENDCHAR
STARTCHAR 045B
ENCODING 1115
SWIDTH 600 0
DWIDTH 18 0
BBX 16 24 0 0
BITMAP
3800
3800
3800
FFC0
FFC0
3800
3800
38F8
3BFC
3F1E
3E0E
3C07
3807
3807
3807
3807
3807
3807
3807
3807
3807
3807
3807
3807
ENDCHAR
STARTCHAR 045C
ENCODING 1116
SWIDTH 600 0
DWIDTH 18 0
BBX 14 24 3 0
BITMAP
00E0
01E0
01C0
0380
0700
0000
0000
E03C
E070
E0E0
E1C0
E380
E700
EE00
FC00
FC00
EE00
E700
E380
E1C0
E0E0
E0F0
E078
E03C
ENDCHAR
STARTCHAR 045D
ENCODING 1117
SWIDTH 600 0
DWIDTH 18 0
BBX 14 24 2 0
BITMAP
1E00
0E00
0700
0300
0180
0000
0000
E03C
E03C
E07C
E07C
E0FC
E1DC
E19C
E39C
E31C
E71C
E61C
EE1C
FC1C
F81C
F81C
F01C
F01C
ENDCHAR
STARTCHAR 045E
ENCODING 1118
SWIDTH 600 0
DWIDTH 18 0
BBX 16 30 1 -7
BITMAP
1818
0E70
0FF0
07C0
0000
0000
E007
700E
700E
300C
381C
181C
1C18
1C38
0C38
0E30
0670
0760
0760
03E0
03C0
01C0
01C0
0180
0380
0380
0700
0F00
7E00
7C00
ENDCHAR
STARTCHAR 045F
ENCODING 1119
SWIDTH 600 0
DWIDTH 18 0
BBX 14 22 2 -5
BITMAP
E01C
E01C
E01C
E01C
E01C
E01C
E01C
E01C
E01C
E01C
E01C
E01C
E01C
E01C
E01C
FFFC
FFFC
0300
0300
0300
0300
0300
ENDCHAR
STARTCHAR 0460
ENCODING 1120
SWIDTH 600 0
DWIDTH 18 0
BBX 17 22 0 0
BITMAP
E1C180
E0C180
E0C180
E0C180
60C180
60C180
60C380
61C380
61E380
61E380
61E300
73E300
736300
336300
337300
333700
363600
3E3600
1E3E00
1E1E00
1C1C00
0C1C00
ENDCHAR
STARTCHAR 0461
ENCODING 1121
SWIDTH 600 0
DWIDTH 18 0
BBX 17 17 0 0
BITMAP
E0C180
E0C180
E0C180
60C180
60C180
60C380
61E380
61E300
71E300
736300
337300
337700
363600
3E3600
1E3E00
1E1C00
1C1C00
ENDCHAR
STARTCHAR 0462
ENCODING 1122
SWIDTH 600 0
DWIDTH 18 0
BBX 17 22 0 0
BITMAP
0E0000
0E0000
0E0000
FFF800
FFF800
0E0000
0E0000
0E0000
0E0000
0FF800
0FFE00
0E1F00
0E0700
0E0300
0E0380
0E0380
0E0380
0E0300
0E0700
0E3F00
0FFE00
0FF800
ENDCHAR
STARTCHAR 0463
ENCODING 1123
SWIDTH 600 0
DWIDTH 18 0
BBX 18 20 0 0
BITMAP
0E0000
0E0000
0E0000
FFF000
FFF000
0E0000
0E0000
0E0000
0E0000
0E0000
0FFE00
0FFF00
0E0780
0E0180
0E01C0
0E01C0
0E0180
0E0780
0FFF00
0FFC00
ENDCHAR
STARTCHAR 0464
ENCODING 1124
SWIDTH 600 0
DWIDTH 18 0
BBX 15 22 2 0
BITMAP
E03E
E0FE
E1E2
E1C0
E380
E380
E300
E300
E300
FFFC
FFFC
E700
E700
E300
E300
E300
E380
E180
E1C0
E0E2
E0FE
E03E
ENDCHAR
STARTCHAR 0465
ENCODING 1125
SWIDTH 600 0
DWIDTH 18 0
BBX 15 17 2 0
BITMAP
C07E
C0FE
C1E2
C380
C380
C300
C300
FFF8
FFF8
C700
C300
C300
C380
C380
C1E2
C0FE
C07E
ENDCHAR
STARTCHAR 0466
ENCODING 1126
SWIDTH 600 0
DWIDTH 18 0
BBX 18 22 0 0
BITMAP
00C000
01E000
01E000
01E000
03F000
033000
073000
073800
061800
0E1C00
0FFC00
0FFC00
1CCE00
1CCE00
18C600
38C700
38C700
30C300
70C380
70C380
60C180
E0C1C0
ENDCHAR
STARTCHAR 0467
ENCODING 1127
SWIDTH 600 0
DWIDTH 18 0
BBX 16 17 1 0
BITMAP
03C0
03C0
07E0
06E0
0660
0E70
0C70
1C38
1FF8
1FF8
399C
399C
718E
718E
6186
E187
C183
ENDCHAR
STARTCHAR 0468
ENCODING 1128
SWIDTH 1200 0
DWIDTH 36 0
BBX 29 22 5 0
BITMAP
E000E000
E000F000
E001F000
E001F800
E0019800
E0039C00
E0031C00
E0070E00
E0070E00
FFFFFE00
FFFFFF00
E01C6300
E01C6380
E0386380
E03861C0
E03861C0
E07060E0
E07060E0
E0E060F0
E0E06070
E1C06070
E1C06038
ENDCHAR
STARTCHAR 0469
ENCODING 1129
SWIDTH 600 0
DWIDTH 18 0
BBX 16 17 2 0
BITMAP
C0E0
C0F0
C0F0
C1F0
C1B0
C1B8
C198
FF98
FFFC
C3FC
C76C
C66C
C66E
C66E
CE66
CC66
CC67
ENDCHAR
STARTCHAR 046A
ENCODING 1130
SWIDTH 600 0
DWIDTH 18 0
BBX 18 22 0 0
BITMAP
3FFF00
3FFF00
380700
1C0E00
0C1C00
0E1C00
073800
073800
03F000
03F000
0FFC00
1FFE00
18CE00
38C700
38C700
30C300
30C300
70C380
70C380
70C380
60C180
E0C1C0
ENDCHAR
STARTCHAR 046B
ENCODING 1131
SWIDTH 600 0
DWIDTH 18 0
BBX 18 17 0 0
BITMAP
3FFF00
3FFF00
180600
1C0E00
0E1C00
073800
03F000
07F800
1FFE00
1CCE00
38C700
30C700
30C300
70C380
60C180
60C180
E0C1C0
ENDCHAR
STARTCHAR 046C
ENCODING 1132
SWIDTH 1200 0
DWIDTH 36 0
BBX 30 22 4 0
BITMAP
E07FFFF0
E07FFFF0
E03800E0
E01C01C0
E00E0180
E0070300
E0038700
E001CE00
E001DC00
FFFFFF00
FFFFFFC0
E01F73E0
E03870E0
E0387060
E0307070
E0707070
E0707030
E0707038
E0E07038
E0E07038
E0E07018
E1C0701C
ENDCHAR
STARTCHAR 046D
ENCODING 1133
SWIDTH 1200 0
DWIDTH 36 0
BBX 29 17 4 0
BITMAP
E03FFFE0
E03FFFE0
E01C01C0
E00E0380
E0070700
E0038E00
E001DC00
FFFFFF00
FFFFFF80
E01C71C0
E01870C0
E03870E0
E0307060
E0707070
E0707070
E0607030
E0E07038
ENDCHAR
STARTCHAR 046E
ENCODING 1134
SWIDTH 600 0
DWIDTH 18 0
BBX 15 34 1 -7
BITMAP
183C
1C7C
0E70
07C0
03C0
1FF0
7FF8
301C
000C
000C
000C
000C
001C
0078
1FF0
1FE0
00F8
001C
000E
000E
000E
000E
000E
001C
007C
3FF8
7FE0
F000
E000
E000
7000
7FFE
1FFE
0002
ENDCHAR
STARTCHAR 046F
ENCODING 1135
SWIDTH 600 0
DWIDTH 18 0
BBX 14 27 1 -6
BITMAP
181C
0C7C
0670
07E0
0FE0
3FF0
3878
0018
001C
0018
0078
07E0
07F0
0038
001C
000C
000C
001C
003C
3FF8
7FE0
6000
E000
6000
7FFC
3FFC
0004
ENDCHAR
STARTCHAR 0470
ENCODING 1136
SWIDTH 600 0
DWIDTH 18 0
BBX 16 22 1 0
BITMAP
E187
E187
E187
E187
E187
E187
E187
E187
E187
E187
E187
718E
799E
3FFC
1FF8
0180
0180
0180
0180
0180
0180
0180
ENDCHAR
STARTCHAR 0471
ENCODING 1137
SWIDTH 600 0
DWIDTH 18 0
BBX 14 31 2 -7
BITMAP
0300
0300
0300
0300
0300
0300
0300
E318
E31C
E31C
E30C
E30C
E30C
E30C
E30C
E30C
E30C
E30C
631C
631C
7318
3B78
3FF0
0FE0
0300
0300
0300
0300
0300
0300
0300
ENDCHAR
STARTCHAR 0472
ENCODING 1138
SWIDTH 600 0
DWIDTH 18 0
BBX 16 22 1 0
BITMAP
07E0
1FF8
1E78
381C
700E
700E
700E
6006
E007
E007
FFFF
FFFF
E007
E007
6006
700E
700E
700E
381C
1E78
1FF0
07E0
ENDCHAR
STARTCHAR 0473
ENCODING 1139
SWIDTH 600 0
DWIDTH 18 0
BBX 14 17 2 0
BITMAP
0FC0
3FF0
7CF8
7038
E01C
E01C
C01C
FFFC
FFFC
C00C
E01C
E01C
E01C
7038
7CF8
3FF0
0FC0
ENDCHAR
STARTCHAR 0474
ENCODING 1140
SWIDTH 600 0
DWIDTH 18 0
BBX 18 22 0 0
BITMAP
E003C0
E007C0
700740
700E00
700E00
300C00
381C00
381C00
181C00
1C1800
1C3800
0C3800
0C3000
0E3000
0E7000
067000
076000
076000
03E000
03E000
03C000
01C000
ENDCHAR
STARTCHAR 0475
ENCODING 1141
SWIDTH 600 0
DWIDTH 18 0
BBX 18 17 0 0
BITMAP
E003C0
7007C0
700700
300E00
380E00
380C00
181C00
1C1C00
1C1800
0C3800
0E3000
063000
077000
076000
036000
03E000
01C000
ENDCHAR
STARTCHAR 0476
ENCODING 1142
SWIDTH 600 0
DWIDTH 18 0
BBX 18 29 0 0
BITMAP
39E000
1CE000
0C7000
063000
031800
000000
000000
E003C0
E007C0
700740
700E00
700E00
300C00
381C00
381C00
181C00
1C1800
1C3800
0C3800
0C3000
0E3000
0E7000
067000
076000
076000
03E000
03E000
03C000
01C000
ENDCHAR
STARTCHAR 0477
ENCODING 1143
SWIDTH 600 0
DWIDTH 18 0
BBX 18 24 0 0
BITMAP
39C000
1CE000
1C6000
0E3000
061800
000000
000000
E003C0
7007C0
700700
300E00
380E00
380C00
181C00
1C1C00
1C1800
0C3800
0E3000
063000
077000
076000
036000
03E000
01C000
ENDCHAR
STARTCHAR 0478
ENCODING 1144
SWIDTH 1200 0
DWIDTH 36 0
BBX 34 29 1 -7
BITMAP
07E0000000
1FF8000000
1E78000000
381C000000
700E000000
700E3801C0
700E1C0380
60061C0380
E0070C0300
E0070E0700
E007060700
E007070600
E007070E00
E007030E00
6006038C00
700E019C00
700E01D800
700E01D800
381C00F800
1E7800F000
1FF0007000
07E0007000
0000006000
000000E000
000000E000
000001C000
000003C000
00001F8000
00001F0000
ENDCHAR
STARTCHAR 0479
ENCODING 1145
SWIDTH 1200 0
DWIDTH 36 0
BBX 33 24 2 -7
BITMAP
0FC0700380
3FF0380700
7CF8380700
7038180600
E01C1C0E00
E01C0C0E00
C01C0E0C00
C00C0E1C00
C00C061C00
C00C071800
C01C033800
E01C03B000
E01C03B000
703801F000
7CF801E000
3FF000E000
0FC000E000
000000C000
000001C000
000001C000
0000038000
0000078000
00003F0000
00003E0000
ENDCHAR
STARTCHAR 047A
ENCODING 1146
SWIDTH 600 0
DWIDTH 18 0
BBX 16 25 1 -1
BITMAP
0180
03C0
0FF0
1FF8
399C
300C
700E
6006
6006
6006
E007
E007
E007
E007
E007
6006
6006
6006
700E
300C
399C
1FF8
0FF0
03C0
0180
ENDCHAR
STARTCHAR 047B
ENCODING 1147
SWIDTH 600 0
DWIDTH 18 0
BBX 14 20 2 -1
BITMAP
0300
0780
1FE0
3FF0
7338
E018
E01C
C01C
C00C
C00C
C00C
C00C
C01C
E01C
E01C
7338
3FF0
1FE0
0780
0300
ENDCHAR
STARTCHAR 047C
ENCODING 1148
SWIDTH 600 0
DWIDTH 18 0
BBX 16 32 1 0
BITMAP
0FC0
1FFC
187C
0180
03C0
01C0
0080
0180
0200
0000
1E78
3E7C
724E
7006
6007
E007
E007
E007
C003
C003
C003
C003
C183
C183
E187
E187
E187
6187
6186
73CE
3FFC
1E78
ENDCHAR
STARTCHAR 047D
ENCODING 1149
SWIDTH 600 0
DWIDTH 18 0
BBX 16 28 1 0
BITMAP
0F00
1FE0
19FC
183C
0380
03C0
0080
0180
0300
0000
0000
1E78
3E7C
7A5E
600E
6006
E007
E007
E007
E187
E187
E187
E187
6186
718E
73DE
3FFC
1E78
ENDCHAR
STARTCHAR 047E
ENCODING 1150
SWIDTH 600 0
DWIDTH 18 0
BBX 17 28 0 0
BITMAP
1FFE00
1FFE00
08C400
088400
000000
000000
E1C180
E0C180
E0C180
E0C180
60C180
60C180
60C380
61C380
61E380
61E380
61E300
73E300
736300
336300
337300
333700
363600
3E3600
1E3E00
1E1E00
1C1C00
0C1C00
ENDCHAR
STARTCHAR 047F
ENCODING 1151
SWIDTH 600 0
DWIDTH 18 0
BBX 17 22 0 0
BITMAP
1FFE00
1FFE00
08C400
000000
000000
E0C180
E0C180
E0C180
60C180
60C180
60C380
61E380
61E300
71E300
736300
337300
337700
363600
3E3600
1E3E00
1E1C00
1C1C00
ENDCHAR
STARTCHAR 0480
ENCODING 1152
SWIDTH 600 0
DWIDTH 18 0
BBX 15 29 2 -7
BITMAP
03F8
0FFE
1E1C
3804
7000
7000
6000
E000
E000
E000
E000
E000
E000
E000
E000
6000
7000
7000
3800
1F08
0FF8
03F8
0038
0038
0038
0038
0038
0038
0038
ENDCHAR
STARTCHAR 0481
ENCODING 1153
SWIDTH 600 0
DWIDTH 18 0
BBX 12 24 3 -7
BITMAP
0FE0
3FF0
7C70
7000
E000
E000
C000
C000
C000
C000
C000
E000
E000
7000
7C40
3FC0
0FC0
01C0
01C0
01C0
01C0
01C0
01C0
01C0
ENDCHAR
ENDFONT
